<svg width="340" height="340" viewBox="0 0 340 340" fill="none" xmlns="http://www.w3.org/2000/svg">
<path d="M207.22 239.275C201.553 245.633 195.284 251.427 188.5 256.575C176.39 265.705 167.42 264.655 153.35 263.435C137 262.025 120.78 259.435 104.48 257.515C102.41 257.275 100.19 256.965 98.67 255.515C97.4531 254.162 96.6361 252.496 96.31 250.705C86.6931 215.769 80.8925 179.893 79.01 143.705C77.21 109.105 95.01 75.2255 128.6 62.5255C163.45 49.3255 208.81 58.0955 229.47 91.1055C258.46 137.475 242.45 199.915 207.22 239.275Z" fill="url(#paint0_linear_3_4565)"/>
<path d="M283.48 268.845C216.632 320.317 123.391 319.905 57 267.845L105.66 245.035C107.149 244.331 108.601 243.55 110.01 242.695L111.13 241.995C111.53 241.745 111.92 241.485 112.31 241.215C118.449 236.98 123.48 231.332 126.98 224.745C130.98 217.195 132.3 208.855 132.36 200.355C132.36 194.635 132.05 188.915 131.99 183.185C131.95 180.019 131.917 176.849 131.89 173.675L133.89 174.675L139.09 177.365L169.38 182.515L200.5 187.815L201.44 219.815L201.91 235.685L213.38 240.355L222.38 243.995L283.48 268.845Z" fill="#00214E"/>
<path d="M201.42 219.795C191.36 221.582 181.01 220.773 171.35 217.445C149.77 210.195 135.24 192.705 133.87 174.685L139.07 177.375L169.36 182.525L200.48 187.825L201.42 219.795Z" fill="#F2A196"/>
<circle cx="106.89" cy="141.665" r="17" fill="#F2A196"/>
<circle cx="112.89" cy="139.665" r="17" fill="#E88870"/>
<path d="M222.43 115.915C234.17 156.595 209.23 205.785 193.89 205.785C172.89 205.785 121.89 189.005 110.16 148.325C98.43 107.645 114.07 67.4154 145.07 58.4654C176.07 49.5154 210.68 75.2454 222.43 115.915Z" fill="#F2A196"/>
<path d="M164.85 162.965C169.654 168.333 176.241 171.776 183.39 172.655" stroke="#00214E"/>
<path d="M227.43 91.6655C223.26 81.5455 212.07 76.5455 201.78 72.7955C196.22 70.7955 190.52 68.7955 184.6 68.6655C179.124 68.6789 173.705 69.7837 168.66 71.9155C159.79 75.3955 150.66 80.5955 143.85 87.2855C140.54 90.5355 137.53 93.9455 134.11 97.1955C132.23 98.9955 130.42 100.875 128.7 102.825C127.39 104.315 125.81 107.425 124.17 108.425C154.7 89.9155 192.6 83.0655 227.43 91.6655Z" fill="#FF2609"/>
<path d="M185.47 117.825C185.47 118.025 190.26 126.385 192.79 135.415C193.959 140.242 194.5 145.2 194.4 150.165H180.89" stroke="#00214E"/>
<path d="M197.88 109.315C204.942 105.706 213.117 104.934 220.73 107.155" stroke="#00214E"/>
<path d="M138.74 113.295C148.483 108.333 159.93 107.966 169.97 112.295" stroke="#00214E"/>
<path d="M156.28 122.155C162.38 122.155 162.38 131.525 156.28 131.575H156C149.9 131.575 149.9 122.205 156 122.155H156.28Z" fill="#00214E"/>
<path d="M206.4 120.765C212.07 120.765 212.07 129.465 206.4 129.505H206.15C200.49 129.505 200.49 120.805 206.15 120.765H206.4Z" fill="#00214E"/>
<path fill-rule="evenodd" clip-rule="evenodd" d="M194.65 36.1455C226.28 45.6255 243.28 72.9855 249.28 103.455C253.351 124.558 252.592 146.308 247.06 167.075C241.34 187.975 232.03 207.675 222.19 226.975C222.038 227.274 221.887 227.57 221.736 227.866C215.557 239.995 210.467 249.987 196.8 255.365C172.77 264.845 143.48 259.455 123.89 242.555C89.3701 212.765 73.0701 151.365 79.8401 107.105C87.3601 57.7855 147.28 21.9155 194.65 36.1455ZM157.97 198.555C168.21 204.095 185.19 209.185 196.67 204.555C197.346 204.247 197.989 203.871 198.59 203.435C200.245 202.302 201.744 200.958 203.05 199.435C211.61 189.935 216.88 177.975 220.05 165.435C222.24 156.502 223.58 147.381 224.05 138.195C224.96 122.285 220.42 107.325 212.54 93.5455C205.64 81.4655 190.92 69.4255 176.24 73.1555C167.24 75.4655 159.67 81.3155 153.24 87.9255C149.615 91.6539 146.452 95.731 143.295 99.8004C138.798 105.598 134.313 111.38 128.52 116.115C125.818 118.412 122.886 120.423 119.77 122.115C119.29 122.355 112.95 125.495 112.88 125.175C113.549 128.597 114.393 131.981 115.41 135.315C122.07 158.435 132.95 182.355 153.73 196.015C155.103 196.915 156.517 197.762 157.97 198.555Z" fill="url(#paint1_linear_3_4565)"/>
<defs>
<linearGradient id="paint0_linear_3_4565" x1="78.88" y1="264.257" x2="244.49" y2="264.257" gradientUnits="userSpaceOnUse">
<stop stop-color="#16243F"/>
<stop offset="1" stop-color="#6878B1"/>
</linearGradient>
<linearGradient id="paint1_linear_3_4565" x1="78.3401" y1="260.01" x2="251.86" y2="260.01" gradientUnits="userSpaceOnUse">
<stop stop-color="#16243F"/>
<stop offset="1" stop-color="#6878B1"/>
</linearGradient>
</defs>
</svg>
