<svg width="340" height="340" viewBox="0 0 340 340" fill="none" xmlns="http://www.w3.org/2000/svg">
<path fill-rule="evenodd" clip-rule="evenodd" d="M230.688 90.1149C231.028 91.763 231.375 93.4448 231.74 95.1617C241.19 139.452 244.77 219.012 244.77 219.012C244.77 219.012 88.47 219.902 58.53 216.902L58.7737 215.467C63.0423 190.346 67.3106 165.225 72.07 140.192C72.4709 138.038 72.8724 135.831 73.2814 133.582C75.7191 120.182 78.4243 105.311 82.86 91.4817C86.3 80.7417 90.82 70.6217 97.13 62.3017C101.622 56.6528 107.113 51.8769 113.33 48.2117C121.683 43.2217 130.68 39.3995 140.07 36.8517C146.653 34.9998 153.397 33.771 160.21 33.1817C171.707 32.3618 183.231 34.3346 193.8 38.9317C199.023 41.1676 203.972 43.9961 208.55 47.3617C224.258 58.9579 227.082 72.6418 230.688 90.1149ZM140.77 110.172L157.57 115.602L195.14 93.2317L191.43 91.1717L140.77 110.172Z" fill="#00214E"/>
<path d="M283.48 269.652C216.632 321.123 123.391 320.711 57 268.652L105.66 245.842C107.149 245.137 108.601 244.356 110.01 243.502L111.13 242.802C111.53 242.552 111.92 242.292 112.31 242.022C118.449 237.786 123.48 232.138 126.98 225.552C130.98 218.002 132.3 209.662 132.36 201.162C132.36 195.442 132.05 189.722 131.99 183.992C131.95 180.818 131.917 177.648 131.89 174.482L133.89 175.482L139.09 178.172L169.36 183.302L200.48 188.602L201.42 220.602L201.89 236.472L213.36 241.142L222.36 244.782L283.48 269.652Z" fill="#F2D4CF"/>
<path d="M201.23 212.912C198.51 214.592 195.94 215.382 193.69 215.142C178.9 213.552 150.05 201.962 131.89 180.512C131.89 179.458 131.87 178.408 131.83 177.362C131.79 174.188 131.757 171.018 131.73 167.852L133.73 168.852L138.93 171.542L169.22 176.692L200.34 181.992L201.23 212.912Z" fill="#DAAEA8"/>
<path d="M283.48 269.652C216.632 321.123 123.391 320.711 57 268.652L105.66 245.842C107.149 245.137 108.601 244.356 110.01 243.502C133.69 260.912 166.65 272.252 195.07 259.502C203.13 255.882 210.4 249.502 213.36 241.192L222.36 244.832L283.48 269.652Z" fill="#F2A196"/>
<circle cx="105.21" cy="141.192" r="17" fill="#F2D4CF"/>
<circle cx="111.21" cy="139.192" r="17" fill="#DAAEA8"/>
<path d="M220.75 115.452C232.49 156.132 207.55 205.322 192.21 205.322C171.21 205.322 120.21 188.542 108.48 147.862C96.75 107.182 112.35 66.9317 143.35 57.9817C174.35 49.0317 209 74.7617 220.75 115.452Z" fill="#F2D4CF"/>
<path d="M190 111.432C197.069 107.843 205.24 107.081 212.85 109.302" stroke="#00214E"/>
<path d="M141.12 113.722C150.863 108.76 162.309 108.394 172.35 112.722" stroke="#00214E"/>
<ellipse cx="154.339" cy="126.733" rx="3.27" ry="7.94" transform="rotate(-85.77 154.339 126.733)" fill="#00214E"/>
<ellipse cx="205.831" cy="125.117" rx="7.94" ry="3.27" transform="rotate(-13.23 205.831 125.117)" fill="#00214E"/>
<path d="M190.8 135.792C190.8 135.792 191.09 141.442 192.42 144.092C192.99 145.242 193.87 146.202 194.42 147.332C196.63 151.672 193.05 152.582 189.61 152.582" stroke="#00214E"/>
<path d="M176.88 145.672C175.387 146.436 174.675 148.174 175.201 149.766C175.728 151.358 177.336 152.328 178.99 152.052" stroke="#00214E"/>
<path d="M158.9 161.182C159.178 160.744 159.626 160.441 160.136 160.347C160.646 160.252 161.173 160.373 161.59 160.682C163.66 162.142 167.46 165.242 172.86 166.322C180.22 167.782 186.61 164.842 188.13 166.732C188.99 167.802 187.94 169.112 185.93 170.732C181.685 173.935 176.325 175.284 171.07 174.472C163.98 173.142 158.67 164.942 158.67 162.042C158.67 161.74 158.749 161.443 158.9 161.182Z" fill="white"/>
<path d="M213.57 82.9116L191.43 91.2016L140.77 110.172H140.76L102.93 124.342L102.35 97.7716L101.57 61.9116L125.06 54.5916L162.57 42.9116L213.57 82.9116Z" fill="#00214E"/>
<path d="M191.43 91.2017L140.77 110.202L102.36 97.8017L82.87 91.5117C86.31 80.7717 90.87 70.6517 97.14 62.3317C101.635 56.6819 107.129 51.9059 113.35 48.2417C116.85 50.1317 120.82 52.2417 125.07 54.6217C148.52 67.4117 180.64 85.2117 191.43 91.2017Z" fill="url(#paint0_linear_3_4587)"/>
<path d="M193.8 38.9317C183.69 43.5217 160.13 55.0417 146.9 68.1217C129.72 85.1217 104.66 123.462 104.66 123.462C105.502 114.324 106.941 105.251 108.97 96.3017C112.33 81.6017 118.05 64.9817 123.14 57.0117C126.94 51.0717 133.6 43.3017 140.07 36.8517C146.65 35.0004 153.39 33.7717 160.2 33.1817C171.7 32.3602 183.228 34.333 193.8 38.9317Z" fill="url(#paint1_linear_3_4587)"/>
<defs>
<linearGradient id="paint0_linear_3_4587" x1="183.399" y1="133.28" x2="193.282" y2="61.3147" gradientUnits="userSpaceOnUse">
<stop offset="0.29" stop-color="#00214E"/>
<stop offset="0.51" stop-color="#6878B1"/>
<stop offset="0.79" stop-color="#00214E"/>
</linearGradient>
<linearGradient id="paint1_linear_3_4587" x1="143.098" y1="148.64" x2="210.807" y2="68.6003" gradientUnits="userSpaceOnUse">
<stop stop-color="#FF2609"/>
<stop offset="0.17" stop-color="#FF8500"/>
<stop offset="0.36" stop-color="#FFED00"/>
<stop offset="0.55" stop-color="#00830D"/>
<stop offset="0.72" stop-color="#004AFF"/>
<stop offset="1" stop-color="#81008C"/>
</linearGradient>
</defs>
</svg>
