<svg width="340" height="340" viewBox="0 0 340 340" fill="none" xmlns="http://www.w3.org/2000/svg">
<path d="M179.09 67.2599C177.72 73.1299 169.88 76.0299 166.57 80.6499C163.14 85.4299 162.83 93.7499 157.91 96.8099C152.99 99.8699 145.4 96.4699 139.59 97.4299C133.99 98.3599 127.92 104.1 122.04 102.73C116.16 101.36 113.27 93.5199 108.65 90.2099C103.87 86.7799 95.5501 86.4799 92.4901 81.5499C89.4301 76.6199 92.8301 69.0399 91.8701 63.2299C90.9401 57.6299 85.2001 51.5599 86.5701 45.6899C87.9401 39.8199 95.7701 36.9099 99.0801 32.2899C102.52 27.5099 102.82 19.1899 107.74 16.1299C112.66 13.0699 120.26 16.4699 126.07 15.5099C131.67 14.5899 137.74 8.8399 143.61 10.2099C149.48 11.5799 152.39 19.4199 157.01 22.7299C161.79 26.1599 170.1 26.4599 173.16 31.3899C176.22 36.3199 172.82 43.8999 173.79 49.7099C174.71 55.3099 180.46 61.3799 179.09 67.2599Z" fill="#DAAEA8"/>
<path d="M196.91 202.06C194.39 205.06 192.21 208.35 189.64 211.3C176.02 226.96 146.34 216.66 131.59 207.3C120.75 200.45 112.59 190.11 105.59 179.35C96.9901 166.08 89.8101 151.65 86.6901 136.15C72.4201 65.1499 163.47 34.2499 214.56 69.0899C233.56 82.0899 250.73 111.25 246.56 134.62C244.43 146.48 236 157.15 236.9 169.17C237.9 182.11 249.59 194.43 244.69 206.45C242.78 211.16 238.64 214.51 235.28 218.33C230.76 223.47 227.45 229.91 227.06 236.75C226.67 243.59 229.51 250.75 235.15 254.67C221.22 252.81 212.64 236.14 216.24 222.55C217.42 218.1 219.6 213.93 220.55 209.42C221.5 204.91 220.94 199.64 217.49 196.58C213.06 192.65 205.84 194.14 201.19 197.81C199.623 199.078 198.189 200.502 196.91 202.06Z" fill="#F2D4CF"/>
<path d="M283.48 290.77C216.632 342.241 123.391 341.829 57 289.77L105.71 266.98C107.199 266.276 108.651 265.495 110.06 264.64L111.18 263.94C111.58 263.69 111.97 263.43 112.36 263.16C118.499 258.925 123.53 253.276 127.03 246.69C131.03 239.14 132.35 230.8 132.41 222.3C132.41 216.58 132.1 210.86 132.04 205.13C132 201.957 131.967 198.787 131.94 195.62L133.94 196.62L139.14 199.31L169.43 204.46L200.55 209.76L201.49 241.76L201.96 257.63L213.43 262.3L222.43 265.94L283.48 290.77Z" fill="#845161"/>
<path d="M201.42 241.77C191.36 243.556 181.01 242.747 171.35 239.42C149.77 232.17 135.24 214.68 133.87 196.66L139.07 199.35L169.36 204.5L200.48 209.8L201.42 241.77Z" fill="#69303A"/>
<circle cx="102.89" cy="163.62" r="17" fill="#845161"/>
<circle cx="108.89" cy="161.62" r="17" fill="#69303A"/>
<path d="M225.81 136.83C238.26 179.98 214.01 230.08 195.55 232.14C150.91 237.14 119.2 214.35 106.75 171.2C94.3 128.05 110.85 85.3899 143.75 75.8999C176.65 66.4099 213.35 93.6899 225.81 136.83Z" fill="#845161"/>
<path d="M160.97 189.6C165.777 194.968 172.368 198.411 179.52 199.29" stroke="#00214E"/>
<path d="M199.34 149.6C199.397 152.23 200.603 154.704 202.64 156.37C204.656 158.022 206.903 159.37 209.31 160.37" stroke="#00214E"/>
<path d="M187.1 147.44C187.1 147.69 192.64 163.32 196.03 172.77C196.598 174.375 196.351 176.156 195.37 177.547C194.388 178.938 192.793 179.767 191.09 179.77H187.45" stroke="#00214E"/>
<ellipse cx="157.21" cy="151.71" rx="19" ry="11.84" stroke="white"/>
<ellipse cx="212.02" cy="149.16" rx="19" ry="11.84" stroke="white"/>
<path d="M176.21 151.71L193.16 150.42" stroke="white"/>
<path d="M185.11 88.1799C182.71 92.9199 177.71 97.0399 174.71 101.89C170.82 108.24 167.88 115.14 164.58 121.81C162.13 126.81 159.4 131.75 155.26 135.42C151.12 139.09 145.26 141.26 139.94 139.73C136.3 138.73 133.35 136.09 130.09 134.15C126.83 132.21 122.71 130.93 119.34 132.77C114.42 135.41 114.49 142.58 110.97 146.91C102.9 156.84 88.09 143.46 86.3 134.79C83.7 122.12 94.09 111.53 101.65 102.79C107.96 95.4899 116.49 84.3599 126.39 81.9199C126.56 81.9199 184.39 58.9199 184.39 58.9199C184.9 66.6499 188.02 78.0799 186.16 85.4799C185.908 86.4149 185.556 87.3201 185.11 88.1799Z" fill="#F2D4CF"/>
<path d="M174.82 173.5C173.491 174.292 172.934 175.933 173.506 177.37C174.078 178.808 175.61 179.618 177.12 179.28" stroke="#00214E"/>
<path d="M196.93 131.56C203.995 127.961 212.166 127.188 219.78 129.4" stroke="#00214E"/>
<path d="M141.82 135.26C151.563 130.299 163.009 129.932 173.05 134.26" stroke="#00214E"/>
<path d="M283.48 290.77C216.632 342.241 123.391 341.829 57 289.77L105.71 266.98C108.027 265.891 110.251 264.613 112.36 263.16C113 262.72 113.64 262.26 114.25 261.78C119.546 257.728 123.905 252.581 127.03 246.69C129.392 242.164 130.962 237.266 131.67 232.21C132.376 232.894 133.117 233.542 133.89 234.15C140.022 238.684 146.676 242.464 153.71 245.41C157.125 246.834 160.617 248.066 164.17 249.1C174.874 252.221 186.05 253.403 197.17 252.59C198.71 252.47 200.26 252.32 201.8 252.21L201.95 257.29V257.62L214.05 262.54L283.48 290.77Z" fill="#00214E"/>
<path d="M155.47 161.77C158.265 161.944 161.012 160.98 163.084 159.096C165.157 157.212 166.378 154.569 166.47 151.77" stroke="#00214E"/>
<path d="M148.41 191.86C149.658 189.77 151.197 187.867 152.98 186.21C156.655 182.84 161.264 180.661 166.2 179.96" stroke="#00214E"/>
<path d="M174.14 112.38H197.8" stroke="#00214E"/>
<path d="M168.36 120.2H197.8" stroke="#00214E"/>
<path d="M158.17 146.49C164.28 146.42 164.46 155.75 158.36 155.91H158.08C151.98 155.98 151.8 146.66 157.9 146.49H158.17Z" fill="#00214E"/>
<path d="M208.41 144.86C214.08 144.79 214.24 153.44 208.58 153.6H208.33C202.67 153.66 202.5 145.01 208.16 144.85H208.41V144.86Z" fill="#00214E"/>
</svg>
