<svg width="340" height="340" viewBox="0 0 340 340" fill="none" xmlns="http://www.w3.org/2000/svg">
<path d="M56 210.671C56 210.671 75 105.411 83.23 85.231C96.05 53.701 126.62 34.901 160.15 32.231C184.66 30.291 207.79 40.611 220.4 61.601C236.5 88.411 251.67 210.821 251.67 210.821L56 210.671Z" fill="url(#paint0_linear_3_4592)"/>
<path d="M283.42 268.711C216.572 320.182 123.331 319.771 56.9399 267.711L105.6 244.901C107.089 244.197 108.541 243.416 109.95 242.561L111.07 241.861C111.47 241.611 111.86 241.351 112.25 241.081C118.389 236.846 123.42 231.197 126.92 224.611C130.92 217.061 132.24 208.721 132.3 200.221C132.3 194.501 131.99 188.781 131.93 183.051C131.89 179.884 131.857 176.714 131.83 173.541L133.83 174.541L139.03 177.231L169.3 182.351L200.42 187.651L201.12 211.451L201.36 219.621L201.83 235.491L213.3 240.161L222.3 243.801L283.42 268.711Z" fill="#E18477"/>
<path d="M201.12 211.491C198.45 213.121 195.93 213.881 193.72 213.641C178.93 212.051 150.08 200.461 131.92 179.011C131.92 177.964 131.9 176.914 131.86 175.861C131.86 175.081 131.86 174.311 131.86 173.531L133.86 174.531L139.06 177.221L169.3 182.351L200.42 187.651L201.12 211.491Z" fill="#A76962"/>
<path d="M283.43 268.711C216.582 320.182 123.341 319.771 56.95 267.711L105.61 244.901C107.099 244.197 108.551 243.416 109.96 242.561C133.64 259.971 166.6 271.311 195.02 258.561C203.08 254.941 210.35 248.511 213.31 240.251L222.31 243.891L283.43 268.711Z" fill="#F2D4CF"/>
<circle cx="105.16" cy="140.251" r="17" fill="#E18477"/>
<circle cx="111.16" cy="138.251" r="17" fill="#A76962"/>
<path d="M220.69 114.511C232.44 155.191 207.54 204.351 192.16 204.351C171.16 204.351 120.16 187.571 108.42 146.891C96.6801 106.211 112.29 65.971 143.29 57.021C174.29 48.071 208.95 73.821 220.69 114.511Z" fill="#E18477"/>
<path d="M185.83 64.971C185.442 66.8697 184.887 68.7303 184.17 70.531C176.65 89.101 165.05 105.111 148.17 116.231C128.17 129.391 108.57 128.811 86.17 132.031C87.44 123.851 90.31 116.031 90.56 107.461C90.96 94.041 93.99 88.921 102.45 79.121C108.75 71.831 117.28 60.691 127.18 58.251C127.35 58.251 185.18 35.251 185.18 35.251C185.82 45.241 187.78 55.471 185.83 64.971Z" fill="url(#paint1_linear_3_4592)"/>
<path d="M193.54 107.891C200.605 104.29 208.778 103.521 216.39 105.741" stroke="#00214E"/>
<path d="M141.07 110.791C150.813 105.828 162.26 105.462 172.3 109.791" stroke="#00214E"/>
<path d="M190.75 134.851C190.75 134.851 191.04 140.511 192.36 143.161C192.94 144.301 193.82 145.261 194.36 146.391C196.58 150.731 193 151.641 189.55 151.641" stroke="#00214E"/>
<path d="M176.82 144.731C175.327 145.495 174.615 147.233 175.141 148.825C175.668 150.417 177.276 151.388 178.93 151.111" stroke="#00214E"/>
<path d="M160.92 163.861C165.725 169.227 172.312 172.669 179.46 173.551" stroke="#00214E"/>
<ellipse cx="157.546" cy="125.307" rx="3.27" ry="7.94" transform="rotate(-85.77 157.546 125.307)" fill="#00214E"/>
<ellipse cx="209.056" cy="123.69" rx="7.94" ry="3.27" transform="rotate(-8.86 209.056 123.69)" fill="#00214E"/>
<defs>
<linearGradient id="paint0_linear_3_4592" x1="56" y1="210.842" x2="251.67" y2="210.842" gradientUnits="userSpaceOnUse">
<stop stop-color="#315676"/>
<stop offset="1" stop-color="#E1B9E0"/>
</linearGradient>
<linearGradient id="paint1_linear_3_4592" x1="99.4356" y1="241.208" x2="299.938" y2="118.599" gradientUnits="userSpaceOnUse">
<stop stop-color="#315676"/>
<stop offset="0.08" stop-color="#375979"/>
<stop offset="0.18" stop-color="#496383"/>
<stop offset="0.2" stop-color="#4D6585"/>
<stop offset="0.29" stop-color="#546989"/>
<stop offset="0.43" stop-color="#677495"/>
<stop offset="0.6" stop-color="#8786A9"/>
<stop offset="0.78" stop-color="#B39FC4"/>
<stop offset="0.95" stop-color="#E1B9E0"/>
</linearGradient>
</defs>
</svg>
