<svg width="340" height="340" viewBox="0 0 340 340" fill="none" xmlns="http://www.w3.org/2000/svg">
<path d="M262.87 119.89C262.87 126.63 254.29 132.44 253.03 138.81C251.73 145.38 257.41 154.02 254.91 160.06C252.41 166.1 242.2 168.29 238.55 173.75C234.9 179.21 236.8 189.43 232.13 194.09C227.46 198.75 217.29 196.82 211.79 200.5C206.29 204.18 204.25 214.32 198.1 216.87C191.95 219.42 183.42 213.69 176.85 214.98C170.48 216.25 164.67 224.83 157.93 224.83C151.19 224.83 145.38 216.25 139.01 214.98C132.45 213.69 123.8 219.37 117.76 216.87C111.72 214.37 109.54 204.16 104.08 200.5C98.62 196.84 88.4 198.73 83.73 194.09C79.06 189.45 81.01 179.25 77.32 173.73C73.63 168.21 63.51 166.19 60.96 160.04C58.41 153.89 64.14 145.36 62.84 138.79C61.58 132.42 53 126.61 53 119.87C53 113.13 61.58 107.32 62.84 100.95C64.11 94.41 58.46 85.73 60.96 79.73C63.46 73.73 73.66 71.51 77.32 66.05C80.98 60.59 79.11 50.36 83.73 45.73C88.35 41.1 98.57 43 104.08 39.32C109.59 35.64 111.62 25.51 117.76 22.96C123.9 20.41 132.45 26.14 139.01 24.84C145.38 23.58 151.19 15 157.93 15C164.67 15 170.48 23.58 176.85 24.84C183.42 26.14 192.06 20.45 198.1 22.96C204.14 25.47 206.33 35.66 211.79 39.32C217.25 42.98 227.47 41.02 232.11 45.73C236.75 50.44 234.83 60.57 238.52 66.08C242.21 71.59 252.36 73.58 254.91 79.73C257.46 85.88 251.73 94.42 253.03 100.98C254.29 107.34 262.87 113.15 262.87 119.89Z" fill="url(#paint0_linear_3_4579)"/>
<path d="M286.11 286.1C219.262 337.571 126.021 337.16 59.63 285.1L108.29 262.29C109.779 261.586 111.231 260.805 112.64 259.95L113.76 259.25C114.16 259 114.55 258.74 114.94 258.47C121.079 254.235 126.11 248.586 129.61 242C133.61 234.45 134.93 226.11 134.99 217.61C134.99 211.89 134.68 206.17 134.62 200.44C134.58 197.273 134.547 194.103 134.52 190.93L136.52 191.93L141.72 194.62L172.01 199.77L203.13 205.07L204.07 237.07L204.54 252.94L216.01 257.61L225.01 261.25L286.11 286.1Z" fill="#845161"/>
<path d="M204.11 237.05C194.043 238.851 183.682 238.053 174.01 234.73C152.43 227.48 137.9 209.99 136.53 191.97L141.73 194.66L172.02 199.81L203.14 205.11L204.11 237.05Z" fill="#69303A"/>
<circle cx="105.55" cy="158.92" r="17" fill="#845161"/>
<circle cx="111.55" cy="156.92" r="17" fill="#69303A"/>
<path d="M228.46 132.14C240.92 175.28 216.67 225.39 198.2 227.44C153.57 232.44 121.86 209.65 109.4 166.51C96.9401 123.37 113.51 80.69 146.4 71.2C179.29 61.71 216.01 88.99 228.46 132.14Z" fill="#845161"/>
<path d="M192.56 142.37C193.028 145.942 193.859 149.457 195.04 152.86C196.18 155.86 197.66 157.68 199.67 160.2C200.361 161.026 200.971 161.917 201.49 162.86C204.26 168.2 201.38 174.47 195.21 174.86L191.4 175.09" stroke="#00214E"/>
<path d="M177.47 168.8C176.135 169.591 175.575 171.237 176.151 172.679C176.727 174.12 178.267 174.927 179.78 174.58" stroke="#00214E"/>
<path d="M199.59 126.86C206.657 123.266 214.83 122.504 222.44 124.73" stroke="#00214E"/>
<path d="M144.48 130.56C154.219 125.598 165.663 125.231 175.7 129.56" stroke="#00214E"/>
<path d="M286.11 286.1C219.262 337.571 126.021 337.16 59.63 285.1L108.29 262.29C110.607 261.201 112.832 259.923 114.94 258.47C115.58 258.03 116.22 257.57 116.83 257.09C122.126 253.038 126.485 247.891 129.61 242C131.972 237.474 133.542 232.576 134.25 227.52C134.956 228.204 135.697 228.852 136.47 229.46C142.61 234 149.275 237.784 156.32 240.73C159.735 242.155 163.227 243.386 166.78 244.42C177.484 247.541 188.66 248.723 199.78 247.91C201.32 247.79 202.87 247.64 204.41 247.53L204.56 252.61V252.94L216.66 257.86L286.11 286.1Z" fill="url(#paint1_linear_3_4579)"/>
<path d="M158.11 157.09C160.905 157.264 163.652 156.3 165.724 154.416C167.797 152.532 169.018 149.889 169.11 147.09" stroke="#00214E"/>
<path d="M201.99 144.9C202.054 147.532 203.258 150.006 205.29 151.68C207.307 153.33 209.554 154.678 211.96 155.68" stroke="#00214E"/>
<path d="M151.11 187.16C152.357 185.072 153.896 183.173 155.68 181.52C159.35 178.143 163.961 175.963 168.9 175.27" stroke="#00214E"/>
<path d="M176.79 107.68H200.46" stroke="#00214E"/>
<path d="M171.01 115.5H200.46" stroke="#00214E"/>
<path d="M203.19 90.51C203.47 94.45 198.54 94.62 196.14 92.04C195.52 91.37 195.08 90.55 194.45 89.89C193.863 89.1747 192.92 88.8564 192.02 89.07C191.49 89.3173 191.05 89.7225 190.76 90.23C188.82 93.11 188.58 96.85 187.14 99.96C185.64 103.072 182.894 105.404 179.58 106.38C173.85 107.98 169.23 104.65 167.07 99.56C166.53 98.29 165.35 95.93 163.61 96.84C161.5 97.95 161.48 101.45 161.03 103.49C160.561 105.838 159.93 108.15 159.14 110.41C157.59 114.88 154.402 118.597 150.22 120.81C144.66 123.72 133.53 124.27 130.9 117.23C130.653 116.384 130.318 115.566 129.9 114.79C129.473 114.004 128.654 113.511 127.76 113.5C127.564 113.511 127.371 113.555 127.19 113.63C126.629 113.895 126.182 114.353 125.93 114.92C125.624 115.674 125.454 116.477 125.43 117.29C125.04 121.69 124.43 126.29 122.43 130.29C120.43 134.29 116.43 137.82 112.01 138.45C110.233 138.776 108.412 138.181 107.17 136.87C104.77 134.01 105.89 128.63 106.17 125.22C107.28 112.37 111.17 99.54 118.48 88.84C125.09 79.21 134.58 71.67 145.88 68.41C165.2 62.83 185.88 70.29 201.93 86.31V86.37C202.62 87.653 203.048 89.0602 203.19 90.51Z" fill="url(#paint2_linear_3_4579)"/>
<path d="M202.04 86.37C182.83 82.07 160.48 84.01 145.64 93.16C119.84 109.07 114.14 121.07 106.26 133.74L105.92 134.3C105.92 133.59 105.92 132.87 105.92 132.15C106.26 101.49 121.45 75.48 145.92 68.41C165.24 62.83 185.92 70.29 201.97 86.31L202.04 86.37Z" fill="#00214E"/>
<path d="M162.11 185.93C162.383 185.489 162.828 185.182 163.338 185.085C163.847 184.988 164.374 185.11 164.79 185.42C166.87 186.89 170.67 189.98 176.07 191.06C183.43 192.52 189.82 189.58 191.34 191.48C192.2 192.55 191.15 193.85 189.14 195.53C184.883 198.706 179.527 200.032 174.28 199.21C167.2 197.89 161.88 189.68 161.88 186.78C161.879 186.481 161.958 186.187 162.11 185.93Z" fill="white"/>
<path d="M159.96 140.73C166.06 140.66 166.24 149.99 160.14 150.16H159.87C153.77 150.23 153.59 140.91 159.69 140.74H159.96V140.73Z" fill="#00214E"/>
<path d="M210.2 139.08C215.86 139.01 216.03 147.67 210.37 147.82H210.11C204.44 147.88 204.27 139.23 209.94 139.07H210.19L210.2 139.08Z" fill="#00214E"/>
<defs>
<linearGradient id="paint0_linear_3_4579" x1="144.181" y1="352.997" x2="380.559" y2="133.213" gradientUnits="userSpaceOnUse">
<stop stop-color="#315676"/>
<stop offset="1" stop-color="#E1B9E0"/>
</linearGradient>
<linearGradient id="paint1_linear_3_4579" x1="59.66" y1="324.423" x2="286.14" y2="324.423" gradientUnits="userSpaceOnUse">
<stop stop-color="#16243F"/>
<stop offset="1" stop-color="#6878B1"/>
</linearGradient>
<linearGradient id="paint2_linear_3_4579" x1="213.027" y1="202.592" x2="255.554" y2="51.4678" gradientUnits="userSpaceOnUse">
<stop stop-color="#315676"/>
<stop offset="1" stop-color="#E1B9E0"/>
</linearGradient>
</defs>
</svg>
