<svg width="340" height="340" viewBox="0 0 340 340" fill="none" xmlns="http://www.w3.org/2000/svg">
<path d="M175.6 274.696C159.05 275.756 143 275.166 126.6 274.886C107.95 274.886 85.7201 279.746 71.7501 263.496C62.0901 252.256 63.2501 235.206 68.2301 221.246C71.7401 211.416 76.9501 201.366 75.0101 191.106C73.5401 183.336 68.1601 176.886 65.7701 169.356C63.4401 162.016 64.1001 153.036 68.0801 146.356C71.7101 140.236 77.5501 137.066 78.7601 129.306C79.4201 125.046 78.2401 120.756 77.5501 116.496C71.9001 81.5858 100.16 57.1458 128.01 42.4958C145.09 33.4958 165.6 29.3758 184.01 36.9558C185.366 37.6287 186.827 38.0649 188.33 38.2458C189.705 38.1884 191.071 38.0009 192.41 37.6858C215.31 34.3058 244.97 75.1458 238.65 95.8558C236.73 102.126 233.71 108.626 235.41 114.966C237.92 124.306 249.7 129.266 251.16 138.826C252.74 149.136 241.21 158.366 243.48 168.556C244.82 174.556 250.53 178.476 254.15 183.486C256.867 187.295 258.42 191.811 258.62 196.486C258.76 199.372 258.37 202.26 257.47 205.006C254.77 213.156 247.61 220.566 249.4 229.006C251.52 239.006 264.4 242.546 263.73 253.926C263.36 260.006 258.03 264.716 252.4 267.026C248.348 268.556 244.173 269.741 239.92 270.566C236.78 271.266 234.01 270.636 230.87 270.956C222.13 271.846 213.51 273.216 204.71 273.716C195.07 274.196 185.3 274.076 175.6 274.696Z" fill="url(#paint0_linear_3_4595)"/>
<path d="M283.48 268.996C216.632 320.467 123.391 320.055 57 267.996L105.66 245.186C107.149 244.481 108.601 243.7 110.01 242.846L111.13 242.146C111.53 241.896 111.92 241.636 112.31 241.366C118.449 237.131 123.48 231.482 126.98 224.896C130.98 217.346 132.3 209.006 132.36 200.506C132.36 194.786 132.05 189.066 131.99 183.336C131.95 180.162 131.917 176.992 131.89 173.826L133.89 174.826L139.09 177.516L169.38 182.666L200.5 187.966L201.44 219.966L201.91 235.836L213.38 240.506L222.38 244.146L283.48 268.996Z" fill="#E18477"/>
<path d="M201.39 211.686C198.67 213.366 196.1 214.156 193.85 213.916C179.06 212.326 150.21 200.736 132.05 179.286C132.05 178.239 132.03 177.189 131.99 176.136C131.95 172.969 131.917 169.799 131.89 166.626L133.89 167.626L139.09 170.316L169.38 175.466L200.5 180.766L201.39 211.686Z" fill="#A76962"/>
<circle cx="106.89" cy="141.576" r="17" fill="#E18477"/>
<circle cx="112.89" cy="139.576" r="17" fill="#A76962"/>
<path d="M222.43 116.106C234.17 156.796 209.23 205.996 193.89 205.996C172.89 205.996 121.89 189.226 110.16 148.536C98.43 107.846 114.07 67.5958 145.07 58.6458C176.07 49.6958 210.68 75.4258 222.43 116.106Z" fill="#E18477"/>
<path d="M156.99 123.176C163.09 123.176 163.09 132.556 156.99 132.596H156.71C150.61 132.596 150.61 123.226 156.71 123.176H156.99Z" fill="#00214E"/>
<path d="M207.07 121.786C212.74 121.786 212.74 130.486 207.07 130.536H206.82C201.16 130.536 201.16 121.826 206.82 121.786H207.07Z" fill="#00214E"/>
<path d="M185.15 66.7957C185.03 67.0657 184.91 67.3457 184.78 67.6257C181.853 73.8137 177.995 79.5166 173.34 84.5357C164.09 94.7357 152.5 102.696 140.48 109.306C133.546 113.261 126.372 116.781 119 119.846C108.37 124.076 99.36 126.186 99.07 126.486C98.14 114.596 91.64 89.6557 123.89 65.2357C149.89 45.5657 187.58 47.1057 187.58 47.1057C187.46 54.5157 188.07 59.9957 185.15 66.7957Z" fill="url(#paint1_linear_3_4595)"/>
<path d="M185.47 117.996C185.39 118.346 193.83 154.406 193.83 154.406H181.33" stroke="#00214E"/>
<path d="M196.93 107.796C203.995 104.197 212.166 103.424 219.78 105.636" stroke="#00214E"/>
<path d="M141.82 111.496C151.56 106.523 163.012 106.157 173.05 110.496" stroke="#00214E"/>
<path d="M283.48 268.996C216.632 320.467 123.391 320.055 57 267.996L105.66 245.186C107.977 244.096 110.201 242.819 112.31 241.366C112.95 240.926 113.59 240.466 114.2 239.986C119.496 235.934 123.855 230.787 126.98 224.896C129.342 220.37 130.912 215.472 131.62 210.416C132.326 211.1 133.067 211.748 133.84 212.356C139.972 216.89 146.626 220.67 153.66 223.616C157.075 225.04 160.567 226.272 164.12 227.306C174.824 230.427 186 231.609 197.12 230.796C198.66 230.676 200.21 230.526 201.75 230.416L201.9 235.496V235.826L214 240.746L283.48 268.996Z" fill="url(#paint2_linear_3_4595)"/>
<rect x="114.956" y="68.6365" width="28.06" height="9.73" rx="4.86" transform="rotate(20.94 114.956 68.6365)" fill="#FF2609"/>
<rect x="108.302" y="83.4697" width="28.06" height="9.73" rx="4.86" transform="rotate(20.94 108.302 83.4697)" fill="#F2D4CF"/>
<path d="M159.48 161.646C159.753 161.204 160.198 160.898 160.708 160.801C161.217 160.704 161.744 160.826 162.16 161.136C164.24 162.606 168.04 165.696 173.44 166.776C180.8 168.236 187.19 165.296 188.71 167.196C189.57 168.266 188.52 169.566 186.51 171.246C182.253 174.421 176.897 175.748 171.65 174.926C164.57 173.606 159.25 165.396 159.25 162.496C159.249 162.197 159.328 161.903 159.48 161.646Z" fill="white"/>
<defs>
<linearGradient id="paint0_linear_3_4595" x1="160.452" y1="395.248" x2="351.768" y2="224.705" gradientUnits="userSpaceOnUse">
<stop stop-color="#16243F"/>
<stop offset="1" stop-color="#6878B1"/>
</linearGradient>
<linearGradient id="paint1_linear_3_4595" x1="129.338" y1="159.865" x2="202.098" y2="82.7444" gradientUnits="userSpaceOnUse">
<stop stop-color="#16243F"/>
<stop offset="1" stop-color="#6878B1"/>
</linearGradient>
<linearGradient id="paint2_linear_3_4595" x1="57" y1="307.349" x2="283.48" y2="307.349" gradientUnits="userSpaceOnUse">
<stop stop-color="#315676"/>
<stop offset="1" stop-color="#E1B9E0"/>
</linearGradient>
</defs>
</svg>
