<svg width="340" height="340" viewBox="0 0 340 340" fill="none" xmlns="http://www.w3.org/2000/svg">
<path d="M265.84 118.88C265.84 126.76 256.94 133.36 255 140.62C253 148.13 257.34 158.28 253.53 164.86C249.72 171.44 238.67 172.86 233.25 178.24C227.83 183.62 226.55 194.66 219.88 198.52C213.21 202.38 203.18 198 195.63 200C188.37 201.94 181.77 210.84 173.9 210.84C166.03 210.84 159.43 201.92 152.18 200C144.67 198 134.52 202.34 127.94 198.54C121.36 194.74 119.94 183.67 114.57 178.26C109.2 172.85 98.15 171.55 94.29 164.88C90.43 158.21 94.83 148.15 92.82 140.64C90.88 133.38 81.98 126.78 81.98 118.9C81.98 111.02 90.88 104.43 92.82 97.17C94.82 89.66 90.48 79.5 94.29 72.93C98.1 66.36 109.18 65 114.55 59.53C119.92 54.06 121.25 43.11 127.92 39.25C134.59 35.39 144.65 39.79 152.17 37.79C159.43 35.84 166.03 27 173.9 27C181.77 27 188.37 35.89 195.63 37.84C203.15 39.84 213.3 35.5 219.88 39.3C226.46 43.1 227.88 54.17 233.25 59.58C238.62 64.99 249.67 66.28 253.53 72.96C257.39 79.64 252.99 89.69 255 97.2C256.94 104.41 265.84 111 265.84 118.88Z" fill="url(#paint0_linear_3_4611)"/>
<path d="M283.48 275C216.632 326.471 123.391 326.06 57 274L105.66 251.19C107.977 250.101 110.201 248.823 112.31 247.37C112.95 246.93 113.59 246.47 114.2 245.99C119.496 241.938 123.855 236.791 126.98 230.9C129.342 226.374 130.912 221.476 131.62 216.42C132.108 213.139 132.356 209.827 132.36 206.51C132.36 200.79 132.05 195.07 131.99 189.34C131.95 186.167 131.917 182.997 131.89 179.83L133.89 180.83L139.09 183.52L141.5 183.93L169.38 188.67L200.48 194L201.42 226L201.73 236.46L201.88 241.54V241.87L213.98 246.79L283.48 275Z" fill="#E18477"/>
<path d="M283.48 275C216.632 326.471 123.391 326.06 57 274L105.66 251.19C107.977 250.101 110.201 248.823 112.31 247.37C112.95 246.93 113.59 246.47 114.2 245.99C137.75 262.75 169.89 273.32 197.69 260.81C204.31 257.81 210.39 252.97 213.99 246.75L283.48 275Z" fill="#845161"/>
<path d="M201.87 241.52C191.42 242.15 179.74 239.45 168.87 233.18C148.46 221.39 137.55 200.83 141.47 183.97L169.35 188.71L200.47 194.01L201.41 226.01L201.87 241.52Z" fill="#A76962"/>
<circle cx="122.05" cy="151.85" r="17" fill="#E18477"/>
<circle cx="127.44" cy="151.85" r="15.22" fill="#A76962"/>
<path d="M128.06 136.69C128.28 139.29 128.14 141.89 128.34 144.5L129.99 166L131.5 185.72C132.06 192.99 134.89 197.34 139.62 203.15C148.029 213.455 158.735 221.648 170.88 227.07C182.47 232.24 198.56 237.38 210.93 232.37C223.58 227.24 227.62 213.04 231.88 201.26C236.14 189.48 240.09 176.52 239.88 163.8C239.61 146.54 235.04 136.87 235.04 136.87C236.14 130.203 237.247 123.557 238.36 116.93C239.61 109.42 241.22 101.57 239.36 94.02C238.59 90.9 236.44 85.85 234.12 83.62C232.67 82.23 230.37 81.5 228.59 82.44C227.29 83.12 226.59 84.51 225.59 85.63C223.247 88.2629 219.657 89.4124 216.22 88.63C211.69 87.56 206.94 81.42 202.07 82.87C197.2 84.32 197.18 91.06 196.74 95C196.326 99.5834 194.609 103.952 191.79 107.59C188.91 111.232 184.533 113.369 179.89 113.4C176.58 113.3 173.45 111.92 170.19 111.3C166.93 110.68 163.09 111.03 161.03 113.63C157.88 117.63 160.86 123.53 159.54 128.4C158.22 133.27 152.54 136.09 147.4 136.4C140.95 136.84 134.63 135.15 128.15 135.84H127.98C128.01 136.16 128.04 136.42 128.06 136.69Z" fill="#E18477"/>
<path d="M156.18 129.1C165.437 127.18 174.959 126.91 184.31 128.3" stroke="#00214E"/>
<path d="M218.76 128.14C224.467 126.823 230.346 126.415 236.18 126.93" stroke="#00214E"/>
<path d="M165 189C168.698 182.913 173.966 177.932 180.25 174.58" stroke="#00214E"/>
<path d="M182.91 144.3C182.422 148.432 179.748 151.982 175.91 153.59C173.844 154.345 171.684 154.81 169.49 154.97" stroke="#00214E"/>
<path d="M184.27 111.91H215.88" stroke="#00214E"/>
<path d="M180.25 118.44H211.85" stroke="#00214E"/>
<path d="M215.73 142C216.688 144.549 217.943 146.975 219.47 149.23C220.972 151.306 223.206 152.735 225.72 153.23" stroke="#00214E"/>
<path d="M177.06 185.5C177.333 185.059 177.778 184.752 178.288 184.655C178.797 184.558 179.324 184.68 179.74 184.99C181.81 186.46 185.62 189.55 191.02 190.63C198.38 192.09 204.76 189.15 206.29 191.05C207.15 192.12 206.1 193.42 204.09 195.05C199.833 198.225 194.477 199.551 189.23 198.73C182.15 197.41 176.83 189.2 176.83 186.3C176.838 186.018 176.917 185.743 177.06 185.5Z" fill="white"/>
<path d="M206.54 139.15C206.82 143.034 207.49 146.88 208.54 150.63C209.54 153.94 211.06 156 213.06 158.85C213.754 159.789 214.353 160.794 214.85 161.85C217.5 167.79 213.99 174.37 207.31 174.37H203.18" stroke="#00214E"/>
<path d="M189.84 167.34C188.361 168.114 187.66 169.845 188.183 171.43C188.707 173.016 190.301 173.989 191.95 173.73" stroke="#00214E"/>
<path d="M175.18 139C181.28 138.93 181.46 148.25 175.36 148.42H175.09C168.99 148.49 168.81 139.17 174.91 139H175.18Z" fill="#00214E"/>
<path d="M225.41 137.36C231.07 137.3 231.24 145.95 225.58 146.1H225.32C219.66 146.16 219.49 137.51 225.16 137.35H225.41V137.36Z" fill="#00214E"/>
<defs>
<linearGradient id="paint0_linear_3_4611" x1="81.96" y1="210.81" x2="265.84" y2="210.81" gradientUnits="userSpaceOnUse">
<stop stop-color="#16243F"/>
<stop offset="1" stop-color="#6878B1"/>
</linearGradient>
</defs>
</svg>
