<svg width="340" height="340" viewBox="0 0 340 340" fill="none" xmlns="http://www.w3.org/2000/svg">
<path d="M283.48 270.18C216.632 321.651 123.391 321.24 57 269.18L105.66 246.37C107.977 245.281 110.201 244.003 112.31 242.55C112.95 242.11 113.59 241.65 114.2 241.17C119.496 237.118 123.855 231.971 126.98 226.08C129.345 221.548 130.914 216.643 131.62 211.58C132.108 208.299 132.356 204.987 132.36 201.67C132.36 195.95 132.05 190.23 131.99 184.5C131.95 181.327 131.917 178.157 131.89 174.99L133.89 175.99L139.09 178.68L141.5 179.09L169.38 183.83L200.5 189.13L201.44 221.13L201.75 231.59L201.9 236.67V237L214 241.92L283.48 270.18Z" fill="#F2D4CF"/>
<path d="M201.9 234.68C198.463 235.271 194.927 234.724 191.83 233.12L132.16 184.34C132.09 182.08 132.03 184.45 132 182.19C131.96 179.017 131.927 175.847 131.9 172.68L133.9 173.68L139.1 176.37L141.51 176.78L169.37 181.58L200.49 186.88L201.43 218.88L201.74 229.34L201.89 234.42V234.75L201.9 234.68Z" fill="#DAAEA8"/>
<path d="M269.07 31L268.8 31.11L265.74 89.23C264.119 120.099 244.451 147.11 215.57 158.13L132.07 187C132.07 186.27 126.76 181 120.07 174.59C102.494 157.875 92.3121 134.839 91.78 110.59C90.84 68.28 123.78 32.31 166.12 31.02C166.92 31.02 167.72 31.02 168.53 31.02L269.07 31Z" fill="url(#paint0_linear_3_4588)"/>
<path d="M268.78 31.11L268.25 83.36C267.918 116.81 246.941 146.571 215.55 158.13V89.5C215.55 89.5 240.34 31.39 268.78 31.11Z" fill="url(#paint1_linear_3_4588)"/>
<circle cx="122.05" cy="147" r="17" fill="#F2D4CF"/>
<circle cx="127.45" cy="147" r="15.22" fill="#DAAEA8"/>
<path d="M127.67 130.96L132.05 187.96L198.49 226.78C208.028 230.338 218.709 226.071 223.17 216.92C232.73 197.34 248.07 166.42 246.05 154.92C243.05 137.92 235.05 131.92 235.05 131.92L238.38 111.98C239.63 104.47 241.24 96.63 239.38 89.08C237.25 80.42 230.71 76.73 225.33 70.26C211.17 88.5 187.89 98.81 167.56 109.26C157.07 114.78 127.67 130.96 127.67 130.96Z" fill="#F2D4CF"/>
<path d="M159.72 119.17C168.978 117.259 178.5 116.991 187.85 118.38" stroke="#00214E"/>
<path d="M218.77 119.28C224.485 117.948 230.376 117.54 236.22 118.07" stroke="#00214E"/>
<path d="M195.74 157.76C194.247 158.524 193.535 160.262 194.061 161.854C194.588 163.446 196.196 164.417 197.85 164.14" stroke="#00214E"/>
<ellipse cx="173.772" cy="133.431" rx="3.27" ry="7.94" transform="rotate(-85.77 173.772 133.431)" fill="#00214E"/>
<ellipse cx="225.864" cy="132.717" rx="7.94" ry="3.27" transform="rotate(-7.27 225.864 132.717)" fill="#00214E"/>
<path d="M213.8 147.41C213.8 147.41 214.09 153.06 215.41 155.71C215.98 156.85 216.87 157.81 217.41 158.95C219.63 163.28 216.05 164.19 212.6 164.19" stroke="#00214E"/>
<path d="M283.48 270.18C216.632 321.651 123.391 321.24 57 269.18L105.66 246.37C107.977 245.281 110.201 244.003 112.31 242.55C112.95 242.11 113.59 241.65 114.2 241.17C119.496 237.118 123.855 231.971 126.98 226.08C129.345 221.548 130.914 216.643 131.62 211.58C132.326 212.264 133.067 212.912 133.84 213.52C139.972 218.054 146.626 221.835 153.66 224.78C157.075 226.204 160.567 227.436 164.12 228.47C174.824 231.591 186 232.773 197.12 231.96C198.66 231.84 200.21 231.69 201.75 231.58L201.9 236.66V236.99L214 241.91L283.48 270.18Z" fill="#00214E"/>
<path d="M179.23 175.65C179.504 175.21 179.951 174.906 180.46 174.811C180.97 174.716 181.496 174.839 181.91 175.15C183.99 176.61 187.79 179.71 193.19 180.78C200.55 182.25 206.93 179.3 208.46 181.2C209.32 182.27 208.27 183.57 206.26 185.2C202.005 188.379 196.648 189.709 191.4 188.89C184.32 187.56 179 179.36 179 176.45C179.008 176.168 179.087 175.893 179.23 175.65Z" fill="white"/>
<defs>
<linearGradient id="paint0_linear_3_4588" x1="201.758" y1="207.448" x2="338.464" y2="60.4528" gradientUnits="userSpaceOnUse">
<stop stop-color="#315676"/>
<stop offset="1" stop-color="#E1B9E0"/>
</linearGradient>
<linearGradient id="paint1_linear_3_4588" x1="168.116" y1="48.362" x2="323.983" y2="195.279" gradientUnits="userSpaceOnUse">
<stop stop-color="#315676"/>
<stop offset="1" stop-color="#E1B9E0"/>
</linearGradient>
</defs>
</svg>
