<svg width="340" height="340" viewBox="0 0 340 340" fill="none" xmlns="http://www.w3.org/2000/svg">
<path d="M244 122.87C241.58 130.07 241.19 139.87 236.94 146.25C227.59 160.25 209.45 162.65 194.69 167.69C193.715 167.873 192.768 168.179 191.87 168.6L186.65 170.25C181.63 171.83 176.63 173.43 171.65 175.05C164.73 177.3 155.22 178.68 150.24 184.36C147.371 187.641 144.699 191.091 142.24 194.69C141.76 195.4 141.17 196.18 140.32 196.25C139.78 196.25 139.32 195.54 138.87 195.25C129.99 190.47 123.46 183.91 117.99 175.59C101.477 150.096 94.7297 119.495 98.9899 89.42C99.0499 88.98 99.1099 88.55 99.1799 88.11C100.859 78.3795 105.294 69.3349 111.96 62.05C118.701 54.7307 126.65 48.6251 135.46 44C140.701 41.2286 146.104 38.7742 151.64 36.65C163.653 31.9077 176.408 29.3181 189.32 29C201.583 29.0113 213.726 31.4127 225.07 36.07C240.69 42.32 252.8 53.99 253.81 71.65C254.81 89.06 249.53 106.41 244 122.87Z" fill="#00214E"/>
<circle cx="121.9" cy="149.86" r="17" fill="#F2A196"/>
<circle cx="127.75" cy="148.86" r="16" fill="#E88870"/>
<path d="M283.48 273C216.632 324.471 123.391 324.06 57 272L105.66 249.19C107.977 248.101 110.201 246.823 112.31 245.37L113.42 244.59L114.2 243.99C119.496 239.938 123.855 234.791 126.98 228.9C130.98 221.35 132.3 213.01 132.36 204.51C132.36 201.64 132.3 198.77 132.21 195.9C132.12 193.03 132.02 190.2 131.99 187.34C131.95 184.167 131.917 180.997 131.89 177.83L133.73 178.78L133.87 178.85L139.07 181.54L141.48 181.95L169.36 186.69L180.41 188.57L200.48 192L201.42 224L201.81 237.3L201.88 239.54V239.87L213.98 244.79L214.73 245.1L283.48 273Z" fill="#F2A196"/>
<path d="M132.21 189.68L165.07 220.5C175.19 229.395 188.385 233.985 201.84 233.29L201.45 219.99L200.51 187.99L180.44 184.57C177.7 185.81 174.96 187.05 172.22 188.13C164.02 191.36 154.75 190.13 146.8 186.77C140.877 184.144 135.748 180.005 131.93 174.77L132.21 189.68Z" fill="#E88870"/>
<path d="M283.48 273C216.632 324.471 123.391 324.06 57 272L105.66 249.19C107.977 248.101 110.201 246.823 112.31 245.37L113.42 244.59C137.78 261.2 170.24 271.25 198.42 258.59C205.033 255.732 210.691 251.045 214.73 245.08L283.48 273Z" fill="#845161"/>
<path d="M241.53 158.31C241.109 165.612 239.932 172.85 238.02 179.91C233.71 196.83 226.57 213.56 223.02 219.82C220.36 224.49 216.65 225.39 210.78 226.82C196.055 230.19 180.592 226.922 168.49 217.88L132.07 191C131.56 186 130.7 180.75 129.74 175.4C126.96 159.86 123.36 143.4 124.92 128.86C125.427 124.726 127.434 120.922 130.56 118.17C138.94 110.23 154.56 106.63 164.3 104.17C178.92 100.41 193.94 98.17 208.35 93.74C218.96 90.44 230.41 85.42 236.77 75.86C236.77 75.86 237.87 86.67 238.12 89.14C238.65 94.23 238.64 98.65 239.19 103.67C239.733 109.172 239.396 114.725 238.19 120.12C237.36 123.85 236.38 127.57 235.68 131.33C235.01 134.93 235.96 134.99 237.81 137.54C241.61 142.74 241.76 152.14 241.53 158.31Z" fill="#F2A196"/>
<path d="M174.63 130C180.73 130 180.73 139.38 174.63 139.43H174.36C168.26 139.43 168.26 130.05 174.36 130H174.63Z" fill="#00214E"/>
<path d="M224.76 128.6C230.42 128.65 230.42 137.3 224.76 137.35H224.51C218.84 137.35 218.84 128.65 224.51 128.6H224.76Z" fill="#00214E"/>
<path d="M206.47 134C206.42 134.2 211.26 142.56 213.78 151.59C214.949 156.417 215.494 161.374 215.4 166.34H201.89" stroke="#00214E"/>
<path d="M238.07 179.91C233.76 196.83 226.62 213.56 223.07 219.82C220.41 224.49 216.7 225.39 210.83 226.82C196.104 230.19 180.642 226.922 168.54 217.88L132.07 191C131.47 185.11 129.32 179.47 128.07 173.67C127.53 171.05 127.07 168.31 127.71 165.67C127.885 167.059 128.482 168.361 129.42 169.4C134.14 175.82 139.66 183.07 147.52 185.71C155.72 188.46 165.06 188.89 172.97 185.01C179.86 181.63 186.61 177.22 193.8 174.44C198.582 172.465 203.742 171.574 208.91 171.83C216.25 172.33 219.39 175.64 224.76 180.01C226.52 181.45 228.49 182.95 230.76 182.96C233.36 183 235.86 181.56 238.07 179.91Z" fill="#00214E"/>
<path d="M191.44 185.32C198.321 187.455 205.742 187.025 212.33 184.11" stroke="#F2A196"/>
<path d="M159.56 122C168.817 120.081 178.339 119.81 187.69 121.2" stroke="#00214E"/>
<path d="M218.61 122.13C224.33 120.809 230.222 120.401 236.07 120.92" stroke="#00214E"/>
<path d="M190.56 161.34C189.067 162.104 188.354 163.842 188.881 165.434C189.407 167.026 191.016 167.997 192.67 167.72" stroke="#00214E"/>
<path d="M128.74 175.44L129.74 175.38L130.4 176.16L132.55 189.98L132.07 190.16L131.35 189.17L128.74 175.44Z" fill="#00214E"/>
</svg>
