<svg width="340" height="340" viewBox="0 0 340 340" fill="none" xmlns="http://www.w3.org/2000/svg">
<path d="M179.65 68.2502C178.28 74.1302 170.44 77.0302 167.13 81.6402C163.7 86.4302 163.4 94.7402 158.47 97.8002C153.54 100.86 145.96 97.4602 140.15 98.4202C134.55 99.3502 128.48 105.1 122.61 103.73C116.74 102.36 113.83 94.5202 109.21 91.2102C104.43 87.7802 96.11 87.4702 93.05 82.5502C89.99 77.6302 93.39 70.0402 92.43 64.2302C91.51 58.6202 85.76 52.5602 87.13 46.6802C88.5 40.8002 96.34 37.9002 99.65 33.2902C103.08 28.5002 103.38 20.1902 108.31 17.1302C113.24 14.0702 120.82 17.4702 126.63 16.5102C132.23 15.5802 138.3 9.84019 144.18 11.2102C150.06 12.5802 152.95 20.4102 157.57 23.7202C162.35 27.1502 170.67 27.4602 173.73 32.3802C176.79 37.3002 173.39 44.9002 174.35 50.7102C175.28 56.3102 181.07 62.3802 179.65 68.2502Z" fill="#DAAEA8"/>
<path d="M197.47 203.06C194.95 206.06 192.77 209.34 190.2 212.29C176.58 227.95 146.91 217.66 132.2 208.29C121.37 201.44 113.2 191.11 106.2 180.35C97.6 167.08 90.41 152.65 87.29 137.15C73 66.1602 164.07 35.2802 215.14 70.1302C234.14 83.1302 251.31 112.29 247.14 135.66C245.01 147.52 236.58 158.19 237.48 170.2C238.48 183.14 250.17 195.47 245.28 207.49C243.36 212.19 239.22 215.55 235.87 219.36C231.34 224.51 228.03 230.95 227.64 237.79C227.25 244.63 230.09 251.79 235.73 255.71C221.8 253.85 213.22 237.17 216.82 223.59C218 219.13 220.18 214.97 221.13 210.45C222.08 205.93 221.52 200.68 218.07 197.62C213.64 193.69 206.42 195.18 201.77 198.84C200.201 200.101 198.76 201.515 197.47 203.06Z" fill="#F2D4CF"/>
<path d="M283.48 291.15C216.63 342.614 123.393 342.203 57 290.15L105.66 267.34C107.149 266.639 108.601 265.862 110.01 265.01C110.39 264.78 110.76 264.55 111.13 264.3C111.5 264.05 111.92 263.8 112.31 263.53C118.448 259.294 123.479 253.646 126.98 247.06C130.98 239.52 132.3 231.18 132.36 222.68C132.36 216.95 132.05 211.24 131.99 205.5C131.95 202.334 131.917 199.164 131.89 195.99L132.08 196.09L133.87 197.02L139.07 199.7L169.36 204.85L200.48 210.16L201.2 234.61L201.42 242.12L201.89 257.99L213.36 262.66L222.36 266.31L283.48 291.15Z" fill="#845161"/>
<path d="M201.2 234.58C199.066 236.002 196.532 236.703 193.97 236.58C179.18 234.99 150.33 223.4 132.17 201.95C132.17 200.897 132.15 199.847 132.11 198.8V196.01L133.9 196.94L139.1 199.62L169.39 204.77L200.51 210.08L201.2 234.58Z" fill="#69303A"/>
<path d="M283.48 291.15C216.632 342.621 123.391 342.21 57 290.15L105.66 267.34C107.149 266.636 108.601 265.855 110.01 265C133.69 282.41 166.65 293.75 195.07 281C203.13 277.38 210.4 270.95 213.36 262.69L222.36 266.33L283.48 291.15Z" fill="#00214E"/>
<circle cx="106.89" cy="163.97" r="17" fill="#845161"/>
<circle cx="112.89" cy="161.97" r="17" fill="#69303A"/>
<path d="M222.43 138.22C234.17 178.91 209.22 228.06 193.89 228.06C172.89 228.06 121.89 211.29 110.16 170.6C98.43 129.91 114.07 89.7102 145.07 80.7602C176.07 71.8102 210.68 97.5402 222.43 138.22Z" fill="#845161"/>
<path d="M187.61 88.2802C185.21 93.0202 180.21 97.1402 177.24 101.99C173.35 108.34 170.41 115.24 167.11 121.91C164.66 126.91 161.92 131.85 157.78 135.52C153.64 139.19 147.78 141.36 142.47 139.83C138.83 138.78 135.87 136.18 132.62 134.25C129.37 132.32 125.19 131.03 121.85 132.83C116.93 135.47 117 142.64 113.48 146.97C105.4 156.9 90.59 143.52 88.81 134.85C86.2 122.18 96.6 111.59 104.16 102.85C110.46 95.5502 118.99 84.4102 128.89 81.9802C129.06 81.9802 186.89 58.9802 186.89 58.9802C187.41 66.7102 190.53 78.1402 188.66 85.5402C188.415 86.4903 188.062 87.4094 187.61 88.2802Z" fill="#F2D4CF"/>
<path d="M185.47 140.12C185.41 140.36 191.01 156 194.4 165.44C194.963 167.045 194.714 168.823 193.734 170.213C192.753 171.603 191.161 172.432 189.46 172.44H185.82" stroke="#00214E"/>
<path d="M196.93 129.91C203.995 126.311 212.166 125.539 219.78 127.75" stroke="#F2D4CF"/>
<path d="M141.82 133.61C151.558 128.644 163.004 128.277 173.04 132.61" stroke="#F2D4CF"/>
<path d="M159.99 144.69C166.09 144.69 166.09 154.06 159.99 154.11H159.71C153.61 154.06 153.61 144.73 159.71 144.69H159.99Z" fill="#00214E"/>
<path d="M210.25 141.6C215.91 141.65 215.91 150.3 210.25 150.35H209.99C204.33 150.35 204.33 141.65 209.99 141.6H210.25Z" fill="#00214E"/>
<path d="M178.37 166.71C176.735 166.888 175.468 168.219 175.37 169.86C175.395 170.652 175.773 171.391 176.4 171.875C177.027 172.359 177.838 172.537 178.61 172.36" stroke="#00214E"/>
<path d="M160.72 181.83C160.996 181.393 161.442 181.091 161.951 180.996C162.459 180.901 162.984 181.022 163.4 181.33C165.47 182.79 169.28 185.89 174.68 186.96C182.04 188.43 188.42 185.48 189.95 187.38C190.81 188.45 189.76 189.75 187.75 191.43C183.494 194.608 178.138 195.938 172.89 195.12C165.81 193.79 160.49 185.59 160.49 182.68C160.49 182.381 160.569 182.088 160.72 181.83Z" fill="white"/>
</svg>
