<svg width="340" height="340" viewBox="0 0 340 340" fill="none" xmlns="http://www.w3.org/2000/svg">
<path d="M109.13 156.066C108.54 154.666 107.97 153.246 107.44 151.816C94.4398 117.226 99.6998 74.9459 129.65 50.9459C137.91 44.3259 145.54 38.7059 155.39 34.4459C158.45 33.1259 161.9 31.8659 165.04 32.9959C168.18 34.1259 169.93 38.8659 167.26 40.8559C173.483 36.4713 180.419 33.1995 187.76 31.1859C192.14 29.9959 196.96 29.2859 201.12 31.1159C205.28 32.9459 208.18 38.1759 206.12 42.2159C212.12 40.0259 218.57 38.1459 224.8 39.4959C234.19 41.4959 241.52 55.4959 245.55 63.4959C251.207 75.0105 254.156 87.6666 254.17 100.496C254.28 111.136 251.35 121.556 248.17 131.696C243.71 145.906 238.45 160.326 228.55 171.456C218.45 182.686 207.07 185.816 192.66 186.686C184.26 187.196 175.88 188.026 167.5 188.766C163.25 189.146 158.99 189.526 154.73 189.766C150.93 189.996 147.46 191.926 143.63 192.436C140.363 192.988 137.005 192.443 134.08 190.886C131.932 189.46 130.048 187.674 128.51 185.606C124.487 181.015 120.718 176.208 117.22 171.206C114.056 166.423 111.347 161.354 109.13 156.066Z" fill="#00214E"/>
<circle cx="121.89" cy="148.216" r="17" fill="#845161"/>
<circle cx="127.75" cy="147.216" r="16" fill="#69303A"/>
<path d="M283.48 271.396C216.632 322.867 123.391 322.455 57 270.396L105.66 247.586C107.977 246.496 110.201 245.219 112.31 243.766C112.95 243.326 113.59 242.866 114.2 242.386C119.496 238.334 123.855 233.187 126.98 227.296C130.98 219.746 132.3 211.406 132.36 202.906C132.36 201.166 132.36 199.416 132.3 197.676C132.21 193.676 132.03 189.676 131.99 185.736C131.95 182.569 131.917 179.399 131.89 176.226L133.89 177.226L139.09 179.916L141.5 180.326L169.38 185.066L200.5 190.366L201.44 222.366L201.8 234.576L201.9 237.906V238.236L214 243.156L283.48 271.396Z" fill="#845161"/>
<path d="M201.81 234.766L200.27 234.926C185.221 236.245 170.351 230.889 159.6 220.276L132.22 188.366C132.13 185.466 132.02 187.766 131.99 184.856C131.95 181.689 131.917 178.519 131.89 175.346L133.89 176.346L139.09 179.036L141.5 179.446L169.38 184.186L200.5 189.486L201.44 221.486L201.81 234.766Z" fill="#69303A"/>
<path d="M142.92 115.496C142.055 120.783 141.72 126.143 141.92 131.496C141.02 131.306 124.49 126.896 124.61 128.276C125.48 138.636 130.99 179.046 132.04 189.276L168.46 216.136C180.562 225.177 196.024 228.446 210.75 225.076C216.62 223.696 220.34 222.786 222.99 218.076C228.11 209.076 240.68 178.286 241.5 156.566C241.73 150.396 241.58 140.996 237.78 135.746C235.93 133.196 234.98 133.136 235.65 129.536C236.34 125.776 237.33 122.066 238.16 118.326C240.16 109.266 240.91 100.866 238.91 91.5858C237.54 85.2558 231.44 73.8658 231.44 73.8658C230.63 78.4758 223.44 85.4158 216.57 86.8058C200.74 90.0058 187.84 82.9458 172.57 82.1758C166.14 81.8458 159.36 83.3558 154.57 87.6358C150.89 90.9058 148.66 95.4958 146.94 100.116C145.096 105.097 143.75 110.249 142.92 115.496Z" fill="#845161"/>
<path d="M207.26 131.496C207.53 135.384 208.2 139.235 209.26 142.986C210.26 146.296 211.77 148.346 213.78 151.196C214.464 152.141 215.063 153.145 215.57 154.196C218.21 160.136 214.7 166.726 208.02 166.726H203.89" stroke="#00214E"/>
<path d="M178.23 176.526C183.034 181.893 189.621 185.336 196.77 186.216" stroke="#00214E"/>
<path d="M159.56 120.386C168.817 118.466 178.339 118.195 187.69 119.586" stroke="#00214E"/>
<path d="M218.61 120.496C224.328 119.166 230.222 118.754 236.07 119.276" stroke="#00214E"/>
<path d="M283.48 271.396C216.632 322.867 123.391 322.455 57 270.396L105.66 247.586C107.977 246.496 110.201 245.219 112.31 243.766C112.95 243.326 113.59 242.866 114.2 242.386C137.75 259.146 169.89 269.716 197.69 257.206C204.31 254.206 210.39 249.366 213.99 243.146L283.48 271.396Z" fill="#FF2609"/>
<path d="M190.56 159.686C189.067 160.45 188.354 162.188 188.881 163.78C189.407 165.372 191.016 166.342 192.67 166.066" stroke="#00214E"/>
<path d="M175.07 128.016C181.17 128.016 181.17 137.396 175.07 137.446H174.79C168.69 137.446 168.69 128.066 174.79 128.016H175.07Z" fill="#00214E"/>
<path d="M225.32 128.016C230.98 128.016 230.98 136.726 225.32 136.766H225.07C219.41 136.766 219.41 128.066 225.07 128.016H225.33H225.32Z" fill="#00214E"/>
</svg>
