<svg width="340" height="340" viewBox="0 0 340 340" fill="none" xmlns="http://www.w3.org/2000/svg">
<path d="M281.48 272.566C214.632 324.038 121.391 323.626 55 271.566L103.66 248.756C105.977 247.667 108.201 246.389 110.31 244.936C110.95 244.496 111.59 244.036 112.2 243.556C117.496 239.504 121.855 234.357 124.98 228.466C127.342 223.94 128.912 219.043 129.62 213.986C130.108 210.705 130.356 207.393 130.36 204.076C130.36 198.356 130.05 192.636 129.99 186.906C129.95 183.733 129.917 180.563 129.89 177.396L131.89 178.396L137.09 181.086L139.5 181.496L167.38 186.236L198.5 191.536L199.44 223.536L199.75 233.996L199.9 239.076V239.406L212 244.326L281.48 272.566Z" fill="#E18477"/>
<path d="M199.86 238.176C196.423 238.768 192.887 238.22 189.79 236.616L130.12 187.806C130.05 185.546 129.99 187.916 129.96 185.656C129.92 182.49 129.887 179.32 129.86 176.146L131.86 177.146L137.06 179.836L139.47 180.246L167.35 184.986L198.47 190.286L199.41 222.286L199.72 232.746L199.87 237.826V238.156L199.86 238.176Z" fill="#A76962"/>
<path d="M244.48 76.0363C261.636 85.7549 275.148 100.812 282.96 118.916C276.32 119.454 269.773 120.818 263.47 122.976H263.41C261.77 123.536 260.143 124.153 258.53 124.826L257.53 125.256L255.94 125.956C255.41 126.186 254.88 126.436 254.36 126.696C253.84 126.956 253.36 127.206 252.79 127.476C252.22 127.746 251.79 128.006 251.24 128.286C250.69 128.566 250.33 128.776 249.88 129.036C248.8 129.636 247.74 130.266 246.7 130.916C246.287 131.17 245.877 131.43 245.47 131.696C241.46 134.292 237.694 137.248 234.22 140.526C229.83 144.676 225.73 149.446 221.22 153.706C217.352 157.605 212.822 160.784 207.84 163.096C198.2 167.246 187.05 169.646 177.04 173.096L130.04 189.346C130.04 188.606 124.72 183.346 118.04 176.936C100.46 160.223 90.2737 137.187 89.7401 112.936C88.1201 39.6763 174.18 18.1363 232.74 33.8363C242.042 36.341 250.888 40.3034 258.95 45.5763C264.289 49.0287 269.174 53.1375 273.49 57.8063C278.527 63.225 282.572 69.487 285.44 76.3063L284.65 76.1663C271.376 73.7184 257.77 73.6744 244.48 76.0363Z" fill="url(#paint0_linear_3_4610)"/>
<path d="M282.96 118.916C276.32 119.454 269.772 120.818 263.47 122.976H263.41C261.75 123.503 260.121 124.12 258.53 124.826L257.53 125.256L255.92 125.976C255.39 126.216 254.87 126.456 254.34 126.716C253.81 126.976 253.34 127.226 252.77 127.496C252.2 127.766 251.77 128.026 251.22 128.306C250.67 128.586 250.31 128.796 249.86 129.056C248.78 129.656 247.72 130.286 246.68 130.936L245.45 131.716C241.44 134.312 237.674 137.268 234.2 140.546C229.81 144.696 225.71 149.466 221.2 153.726C219.74 154.326 218.29 154.956 216.84 155.586C217.02 155.506 215.69 138.586 215.73 136.876C215.897 130.343 216.643 123.838 217.96 117.436C220.5 105.126 218.88 93.6763 221.33 81.0563C221.847 78.2393 222.515 75.452 223.33 72.7063C227.51 69.5863 233.33 68.6263 238.4 67.8963C250.55 66.1463 263.05 67.8063 274.74 71.4863C276.673 72.0983 278.572 72.8126 280.43 73.6263C281.31 74.0163 282.17 74.4363 283.02 74.8863C283.769 75.4508 284.581 75.9273 285.44 76.3063C271.895 73.8072 258.016 73.7158 244.44 76.0363C261.611 85.7481 275.138 100.806 282.96 118.916Z" fill="url(#paint1_linear_3_4610)"/>
<circle cx="120.05" cy="149.386" r="17" fill="#E18477"/>
<circle cx="125.44" cy="149.386" r="15.22" fill="#A76962"/>
<path d="M125.67 133.346L130.05 190.346L196.49 229.166C206.028 232.724 216.709 228.457 221.17 219.306C230.73 199.726 246.07 168.816 244.05 157.306C241.05 140.306 233.05 134.306 233.05 134.306C234.163 127.64 235.27 120.993 236.37 114.366C237.63 106.856 239.23 99.0164 237.37 91.4664C235.24 82.8164 228.7 79.1164 223.32 72.6464C209.16 90.8864 185.88 101.196 165.55 111.646C155.05 117.166 125.67 133.346 125.67 133.346Z" fill="#E18477"/>
<path d="M157.72 121.556C166.98 119.658 176.502 119.404 185.85 120.806" stroke="#00214E"/>
<path d="M216.77 121.666C222.487 120.346 228.376 119.937 234.22 120.456" stroke="#00214E"/>
<path d="M193.74 160.146C192.247 160.91 191.535 162.648 192.061 164.24C192.588 165.832 194.196 166.803 195.85 166.526" stroke="#00214E"/>
<path d="M211.79 149.806C211.79 149.806 212.08 155.456 213.41 158.106C213.98 159.246 214.87 160.206 215.41 161.346C217.62 165.676 214.05 166.596 210.6 166.596" stroke="#00214E"/>
<path d="M281.48 272.566C214.632 324.038 121.391 323.626 55 271.566L103.66 248.756C105.977 247.667 108.201 246.389 110.31 244.936C110.95 244.496 111.59 244.036 112.2 243.556C117.496 239.504 121.855 234.357 124.98 228.466C127.342 223.94 128.912 219.043 129.62 213.986C130.326 214.671 131.067 215.318 131.84 215.926C137.972 220.46 144.626 224.241 151.66 227.186C155.075 228.611 158.567 229.843 162.12 230.876C172.824 233.998 184 235.179 195.12 234.366C196.66 234.246 198.21 234.096 199.75 233.986L199.9 239.066V239.396L212 244.316L281.48 272.566Z" fill="#00214E"/>
<circle cx="178.64" cy="136.556" r="19" stroke="white"/>
<circle cx="231.78" cy="133.556" r="19" stroke="white"/>
<path d="M197.64 136.556L212.78 135.256" stroke="white"/>
<path d="M177.22 178.036C177.498 177.598 177.946 177.296 178.456 177.201C178.966 177.106 179.493 177.228 179.91 177.536C181.98 178.996 185.79 182.096 191.19 183.166C198.55 184.636 204.93 181.686 206.46 183.586C207.32 184.656 206.27 185.966 204.26 187.636C200.004 190.814 194.648 192.144 189.4 191.326C182.32 189.996 177 181.796 177 178.886C177.002 178.589 177.077 178.297 177.22 178.036Z" fill="white"/>
<ellipse cx="174.165" cy="136.379" rx="3.27" ry="7.94" transform="rotate(-85.77 174.165 136.379)" fill="#00214E"/>
<ellipse cx="225.678" cy="134.757" rx="7.94" ry="3.27" transform="rotate(-8.86 225.678 134.757)" fill="#00214E"/>
<defs>
<linearGradient id="paint0_linear_3_4610" x1="202.931" y1="206.383" x2="321.113" y2="59.8286" gradientUnits="userSpaceOnUse">
<stop stop-color="#16243F"/>
<stop offset="1" stop-color="#6878B1"/>
</linearGradient>
<linearGradient id="paint1_linear_3_4610" x1="215.74" y1="155.584" x2="285.44" y2="155.584" gradientUnits="userSpaceOnUse">
<stop stop-color="#16243F"/>
<stop offset="1" stop-color="#6878B1"/>
</linearGradient>
</defs>
</svg>
