<svg width="340" height="340" viewBox="0 0 340 340" fill="none" xmlns="http://www.w3.org/2000/svg">
<path d="M191.49 242.762C172.793 241.003 154.248 237.892 136 233.452C99 224.232 63.23 207.942 35 182.312C59.9 156.312 73.47 141.262 93 111.052C107.49 88.6323 125.29 49.2123 152.13 39.0523C194.2 23.1223 251.01 38.6023 262.97 85.9223C268.02 105.922 268.21 126.842 265.35 147.182C264.05 156.352 254.77 245.872 249.45 245.782C230.12 245.442 210.76 244.652 191.49 242.762Z" fill="#F2D4CF"/>
<path d="M304.85 268.572C238.002 320.044 144.761 319.632 78.3701 267.572L127.03 244.762C128.52 244.058 129.972 243.277 131.38 242.422L132.5 241.722C132.9 241.472 133.29 241.212 133.68 240.942C139.819 236.707 144.85 231.058 148.35 224.472C152.35 216.922 153.67 208.582 153.73 200.082C153.73 194.362 153.42 188.642 153.36 182.912C153.32 179.746 153.287 176.576 153.26 173.402L155.26 174.402L160.46 177.092L190.76 182.252L221.88 187.552L222.82 219.552L223.29 235.422L234.76 240.062L243.76 243.702L304.85 268.572Z" fill="#F2A196"/>
<path d="M222.67 214.432C219.95 216.112 217.38 216.902 215.13 216.662C200.34 215.072 171.49 203.482 153.33 182.032C153.33 180.979 153.31 179.929 153.27 178.882C153.23 175.709 153.197 172.539 153.17 169.372L155.17 170.372L160.37 173.062L190.66 178.212L221.78 183.512L222.67 214.432Z" fill="#E88870"/>
<circle cx="128.26" cy="141.392" r="17" fill="#F2A196"/>
<circle cx="134.26" cy="139.392" r="17" fill="#E88870"/>
<path d="M243.76 115.642C255.5 156.332 230.55 205.512 215.22 205.512C194.22 205.512 143.22 188.742 131.48 148.052C119.74 107.362 135.35 67.1323 166.35 58.1823C197.35 49.2323 232.05 74.9623 243.76 115.642Z" fill="#F2A196"/>
<circle cx="180.62" cy="128.892" r="19" stroke="white"/>
<circle cx="233.76" cy="125.892" r="19" stroke="white"/>
<path d="M205.09 61.5624C200.79 80.2624 191.4 96.1424 174.23 107.702C155.71 120.532 134.43 122.332 113.1 126.562C113.64 113.452 113.93 99.4124 120.7 87.7124C128.373 74.7355 139.579 64.2092 153.01 57.3624C167.81 49.7024 190.72 42.2024 207.36 47.5124C206.901 52.2389 206.143 56.9316 205.09 61.5624Z" fill="#F2D4CF"/>
<path d="M206.84 117.542C206.76 117.892 214.76 149.892 214.76 149.892H202.26" stroke="#00214E"/>
<path d="M218.29 107.332C225.359 103.734 233.532 102.961 241.15 105.172" stroke="#00214E"/>
<path d="M163.18 111.032C172.923 106.071 184.369 105.705 194.41 110.032" stroke="#00214E"/>
<path d="M199.62 128.892L214.76 127.602" stroke="white"/>
<path d="M304.85 268.572C238.002 320.044 144.761 319.632 78.3701 267.572L127.03 244.762C129.347 243.673 131.572 242.395 133.68 240.942C134.32 240.502 134.96 240.042 135.57 239.562C140.866 235.51 145.225 230.363 148.35 224.472C150.713 219.946 152.282 215.049 152.99 209.992C153.696 210.677 154.437 211.324 155.21 211.932C161.342 216.466 167.996 220.247 175.03 223.192C178.445 224.617 181.937 225.849 185.49 226.882C196.194 230.004 207.37 231.185 218.49 230.372C220.03 230.252 221.58 230.102 223.12 229.992L223.27 235.072V235.402L235.37 240.322L304.85 268.572Z" fill="#00214E"/>
<path d="M180.85 161.182C181.123 160.741 181.568 160.435 182.078 160.338C182.588 160.241 183.114 160.362 183.53 160.672C185.61 162.142 189.41 165.232 194.81 166.312C202.17 167.772 208.55 164.832 210.08 166.732C210.94 167.802 209.89 169.102 207.88 170.782C203.623 173.958 198.267 175.285 193.02 174.462C185.94 173.142 180.62 164.932 180.62 162.032C180.619 161.733 180.698 161.44 180.85 161.182Z" fill="white"/>
<path d="M181.58 122.542C187.68 122.592 187.68 131.922 181.58 131.972H181.3C175.2 131.922 175.2 122.592 181.3 122.542H181.58Z" fill="#00214E"/>
<path d="M231.84 121.882C237.5 121.882 237.5 130.582 231.84 130.632H231.58C225.92 130.582 225.92 121.932 231.58 121.882H231.84Z" fill="#00214E"/>
</svg>
