<svg width="340" height="340" viewBox="0 0 340 340" fill="none" xmlns="http://www.w3.org/2000/svg">
<path d="M257.3 264.241C255.3 198.131 252.52 128.851 219.12 71.7609C210.92 57.7609 197.98 43.3109 181.83 44.8209C162.95 46.5809 153.57 68.0609 148.07 86.2009C139.89 113.091 131.69 140.001 124.84 167.271C119.89 187.001 106.2 220.841 113.68 241.271C127 277.601 225.97 265.341 257.3 264.241Z" fill="#DAAEA8"/>
<circle cx="114.54" cy="148.681" r="17" fill="#F2A196"/>
<circle cx="120.37" cy="147.531" r="16" fill="#E88870"/>
<path d="M283.48 269.701C216.632 321.172 123.391 320.761 57 268.701L105.66 245.891C107.977 244.802 110.201 243.524 112.31 242.071L113.42 241.291L114.2 240.691C119.496 236.639 123.855 231.492 126.98 225.601C130.98 218.051 132.3 209.711 132.36 201.211C132.36 198.341 132.3 195.471 132.21 192.601C132.12 189.731 132.02 186.901 131.99 184.041C131.95 180.874 131.917 177.704 131.89 174.531L133.73 175.481L133.87 175.551L139.07 178.241L141.48 178.651L169.36 183.341L180.41 185.221L200.48 188.641L201.42 220.641L201.81 233.941L201.88 236.181V236.511L213.98 241.431L214.73 241.741L283.48 269.701Z" fill="#F2A196"/>
<path d="M132.21 190.341L165.07 221.161C175.19 230.056 188.385 234.646 201.84 233.951L201.45 220.651L200.51 188.651L180.44 185.231C177.7 186.471 174.96 187.711 172.22 188.791C164.02 192.021 154.75 190.791 146.8 187.431C140.877 184.805 135.748 180.666 131.93 175.431L132.21 190.341Z" fill="#E88870"/>
<path d="M283.48 269.701C216.632 321.172 123.391 320.761 57 268.701L105.66 245.891C107.977 244.802 110.201 243.524 112.31 242.071L113.42 241.291C137.78 257.901 170.24 267.951 198.42 255.291C205.033 252.433 210.691 247.746 214.73 241.781L283.48 269.701Z" fill="#F2D4CF"/>
<path d="M234.35 154.101C234.102 161.412 233.097 168.677 231.35 175.781C227.47 192.781 220.76 209.711 217.35 216.061C214.8 220.801 211.12 221.791 205.29 223.331C190.651 227.072 175.109 224.194 162.78 215.461L125.69 189.531C125.06 184.531 124.06 179.321 122.97 174.001C119.8 158.531 115.78 142.161 116.97 127.601C117.372 123.455 119.283 119.601 122.34 116.771C130.51 108.621 146.09 104.621 155.71 101.891C170.23 97.7609 185.19 95.1909 199.48 90.3409C210.01 86.7809 221.33 81.4709 227.48 71.7509C227.48 71.7509 228.86 82.5309 229.17 84.9909C229.83 90.0709 229.93 94.4809 230.61 99.4909C231.286 104.978 231.083 110.538 230.01 115.961C229.28 119.711 228.39 123.451 227.79 127.231C227.21 130.851 228.16 130.881 230.07 133.381C234.07 138.531 234.42 147.931 234.35 154.101Z" fill="#F2A196"/>
<path d="M166.76 127.491C172.86 127.381 173.09 136.701 167 136.911H166.72C160.62 137.011 160.38 127.691 166.48 127.481H166.76V127.491Z" fill="#00214E"/>
<path d="M216.83 124.831C222.49 124.731 222.71 133.381 217.05 133.571H216.8C211.14 133.661 210.92 125.011 216.58 124.821H216.83V124.831Z" fill="#00214E"/>
<path d="M198.68 130.701C198.68 130.901 203.68 139.131 206.44 148.101C207.737 152.894 208.409 157.835 208.44 162.801L194.93 163.151" stroke="#00214E"/>
<path d="M231.39 175.781C227.51 192.781 220.8 209.711 217.39 216.061C214.84 220.801 211.16 221.791 205.33 223.331C190.692 227.072 175.149 224.194 162.82 215.461L125.73 189.531C124.99 183.671 122.73 178.081 121.34 172.321C120.73 169.701 120.18 166.981 120.78 164.321C120.985 165.707 121.614 166.996 122.58 168.011C127.46 174.311 133.16 181.411 141.09 183.851C149.35 186.391 158.7 186.591 166.51 182.511C173.31 178.961 179.95 174.381 187.07 171.411C191.789 169.32 196.91 168.296 202.07 168.411C209.42 168.731 212.65 171.961 218.13 176.191C219.92 177.581 221.93 179.031 224.21 178.991C226.81 178.971 229.27 177.491 231.39 175.781Z" fill="#00214E"/>
<path d="M184.96 182.341C191.891 184.305 199.3 183.687 205.81 180.601" stroke="#F2A196"/>
<path d="M151.49 119.911C160.696 117.761 170.208 117.25 179.59 118.401" stroke="#00214E"/>
<path d="M210.52 118.521C216.202 117.05 222.083 116.493 227.94 116.871" stroke="#00214E"/>
<path d="M183.47 158.421C181.982 159.217 181.303 160.984 181.875 162.571C182.447 164.158 184.096 165.086 185.75 164.751" stroke="#00214E"/>
<path d="M122.03 174.081L123.03 174.001L123.71 174.761L126.21 188.521L125.73 188.711L124.99 187.741L122.03 174.081Z" fill="#00214E"/>
<path d="M146.51 154.591C141.16 177.651 128.19 272.471 127.51 296.071C127.7 289.071 72.93 278.961 68.25 272.071C68.25 272.071 102.58 105.191 103.56 89.8309C103.64 88.5709 106.56 76.3309 108.27 73.2009C137.14 21.4609 206.57 16.5409 239.82 62.6309C240.49 63.5609 242.08 70.4109 242.71 71.3609C244.56 74.1409 245.92 76.9209 247.52 79.6909C257.34 96.6909 258.12 120.941 258.92 140.431C259.92 164.841 272.86 267.891 272.86 267.891C272.86 267.891 238.74 277.891 238.46 277.951C238.46 277.951 239.74 156.371 238.7 143.821C237.7 131.821 235.27 116.271 228.94 105.821C223.94 97.6009 185.07 99.2109 174.43 102.641C159.9 107.321 154.25 119.881 150.88 135.231C149.46 141.711 148.003 148.164 146.51 154.591Z" fill="#F2D4CF"/>
<path d="M105.5 70.7509C130.775 77.4585 156.989 79.9153 183.07 78.0209C203.831 76.7105 224.321 72.6138 243.99 65.8409" stroke="#00214E" stroke-width="3" stroke-linecap="round"/>
<path d="M102.17 80.3409C129.125 87.5226 157.078 90.2252 184.91 88.3409C206.575 86.9883 227.958 82.7163 248.48 75.6409" stroke="#00214E" stroke-width="3" stroke-linecap="round"/>
</svg>
