<svg width="340" height="340" viewBox="0 0 340 340" fill="none" xmlns="http://www.w3.org/2000/svg">
<path d="M237.42 147.919C235.865 149.545 234.161 151.022 232.33 152.329C221.93 159.859 208.05 162.329 196.19 166.389C191.19 168.099 136.97 183.509 136.97 186.859C136.97 186.129 131.66 180.859 124.97 174.459C101.896 152.359 94.2029 118.639 105.41 88.7191C116.32 60.0491 151.1 40.2891 180.23 35.7191C194.1 33.5491 210.56 32.3391 223.37 38.9891C229.92 42.3991 235.42 47.3691 240.37 52.8791C241.93 54.6191 243.443 56.3958 244.91 58.2091C245.54 58.9691 246.16 59.7291 246.77 60.4991C269.54 89.1291 261.47 122.649 237.42 147.919Z" fill="url(#paint0_linear_3_4616)"/>
<path d="M237.42 147.919C235.865 149.545 234.161 151.022 232.33 152.329C231.903 151.585 231.519 150.817 231.18 150.029C228.54 144.029 227.18 137.519 226.18 131.029C224.629 121.581 223.571 112.058 223.01 102.499C222.1 87.1591 215.55 79.5491 228.58 67.5891C233.269 63.2917 238.853 60.0881 244.93 58.2091C245.56 58.9691 246.18 59.7291 246.79 60.4991C269.54 89.1291 261.47 122.649 237.42 147.919Z" fill="url(#paint1_linear_3_4616)"/>
<path d="M283.48 268.279C216.632 319.75 123.391 319.339 57 267.279L105.66 244.469C107.977 243.38 110.201 242.102 112.31 240.649C112.95 240.209 113.59 239.749 114.2 239.269C119.501 235.203 123.861 230.038 126.98 224.129C129.342 219.603 130.912 214.705 131.62 209.649C132.108 206.368 132.356 203.056 132.36 199.739C132.36 194.019 132.05 188.299 131.99 182.569C131.95 179.402 131.917 176.232 131.89 173.059L133.89 174.059L139.09 176.749L141.5 177.159L169.38 181.899L200.5 187.199L201.44 219.199L201.75 229.659L201.9 234.739V235.129L214 240.049L283.48 268.279Z" fill="#E18477"/>
<path d="M283.48 268.279C216.632 319.75 123.391 319.339 57 267.279L105.66 244.469C107.977 243.38 110.201 242.102 112.31 240.649C112.95 240.209 113.59 239.749 114.2 239.269C137.75 256.029 169.89 266.599 197.69 254.089C204.31 251.089 210.39 246.249 213.99 240.029L283.48 268.279Z" fill="url(#paint2_linear_3_4616)"/>
<path d="M201.88 234.769C191.43 235.399 179.75 232.699 168.88 226.429C148.47 214.639 137.56 194.079 141.48 177.219L169.36 181.959L200.48 187.259L201.42 219.259L201.88 234.769Z" fill="#A76962"/>
<circle cx="122.05" cy="145.099" r="17" fill="#E18477"/>
<circle cx="127.45" cy="145.099" r="15.22" fill="#A76962"/>
<path d="M128.07 129.939C128.29 132.539 128.14 135.139 128.34 137.749L129.99 159.229L131.5 178.949C132.06 186.219 134.9 190.569 139.62 196.379C148.029 206.684 158.735 214.877 170.88 220.299C182.48 225.469 198.56 230.609 210.94 225.599C223.59 220.469 227.63 206.269 231.89 194.489C236.15 182.709 240.09 169.749 239.89 157.029C239.62 139.769 235.07 130.129 235.07 130.129L238.4 110.129C239.65 102.629 241.26 94.7791 239.4 87.2291C238.04 81.7291 234.4 77.8891 230.61 73.9491C225.93 69.1191 223.61 69.2791 216.98 71.1591C205.461 74.5379 195.404 81.6733 188.41 91.4291C181.42 101.129 177.28 113.129 168.07 120.629C161.71 125.819 153.83 127.949 145.79 128.629C142.883 128.979 139.949 129.039 137.03 128.809C134.075 128.724 131.118 128.844 128.18 129.169H128.01C128.07 129.409 128.07 129.669 128.07 129.939Z" fill="#E18477"/>
<path d="M202.2 128.899C202.12 129.249 215.56 167.369 215.56 167.369L197.62 168.249" stroke="#00214E"/>
<path d="M156.18 122.339C165.438 120.428 174.96 120.16 184.31 121.549" stroke="#00214E"/>
<path d="M218.77 121.389C224.487 120.068 230.376 119.66 236.22 120.179" stroke="#00214E"/>
<path d="M165.01 182.229C168.702 176.14 173.966 171.159 180.25 167.809" stroke="#00214E"/>
<path d="M182.92 137.539C182.505 140.943 180.609 143.991 177.74 145.869C177.154 146.256 176.535 146.59 175.89 146.869C173.829 147.627 171.671 148.088 169.48 148.239" stroke="#00214E"/>
<path d="M184.28 105.159H215.88" stroke="#00214E"/>
<path d="M180.25 111.689H211.86" stroke="#00214E"/>
<path d="M215.74 135.259C216.698 137.808 217.954 140.234 219.48 142.489C220.977 144.566 223.208 145.997 225.72 146.489" stroke="#00214E"/>
<path d="M177.07 178.739C177.347 178.302 177.793 178 178.301 177.905C178.81 177.81 179.335 177.931 179.75 178.239C181.83 179.699 185.63 182.799 191.03 183.879C198.39 185.339 204.78 182.399 206.3 184.299C207.16 185.359 206.11 186.669 204.1 188.349C199.844 191.525 194.487 192.851 189.24 192.029C182.16 190.709 176.85 182.499 176.85 179.599C176.847 179.298 176.923 179.002 177.07 178.739Z" fill="white"/>
<path d="M174.37 132.439C180.48 132.369 180.66 141.699 174.56 141.869H174.28C168.18 141.939 168 132.619 174.1 132.449H174.37V132.439Z" fill="#00214E"/>
<path d="M224.61 130.809C230.28 130.739 230.44 139.399 224.78 139.549H224.53C218.87 139.609 218.7 130.959 224.36 130.799H224.61V130.809Z" fill="#00214E"/>
<defs>
<linearGradient id="paint0_linear_3_4616" x1="100.27" y1="186.883" x2="260.24" y2="186.883" gradientUnits="userSpaceOnUse">
<stop stop-color="#16243F"/>
<stop offset="1" stop-color="#6878B1"/>
</linearGradient>
<linearGradient id="paint1_linear_3_4616" x1="194.488" y1="120.104" x2="261.554" y2="139.112" gradientUnits="userSpaceOnUse">
<stop stop-color="#16243F"/>
<stop offset="1" stop-color="#6878B1"/>
</linearGradient>
<linearGradient id="paint2_linear_3_4616" x1="57" y1="306.597" x2="283.48" y2="306.597" gradientUnits="userSpaceOnUse">
<stop stop-color="#16243F"/>
<stop offset="1" stop-color="#6878B1"/>
</linearGradient>
</defs>
</svg>
