<svg width="340" height="340" viewBox="0 0 340 340" fill="none" xmlns="http://www.w3.org/2000/svg">
<path d="M249.65 118.485C248.28 136.265 243.16 153.975 233.17 168.155C231.59 170.564 229.624 172.696 227.35 174.465C223.35 174.545 217.72 178.515 213.14 178.955C209.69 179.295 206.02 178.345 202.68 178.895C192.26 180.585 181.21 188.235 171.68 192.745C165.25 195.745 158.68 198.865 151.57 199.465C142.97 200.175 134.87 197.155 127.69 192.265C121.654 188.002 116.294 182.854 111.79 176.995C96.7201 157.885 86.8701 132.355 89.8601 107.365C96.6001 51.1553 166.57 15.4252 217.73 30.4352C220.401 31.2078 222.943 32.3739 225.27 33.8952C225.99 34.6953 226.7 35.5253 227.38 36.3553C228.8 38.0653 230.16 39.8252 231.48 41.6252L232.16 42.5652C237.014 49.4195 241.08 56.7995 244.28 64.5653C251.69 82.5352 251.12 99.2653 249.65 118.485Z" fill="url(#paint0_linear_3_4603)"/>
<path d="M227.38 36.3553C225.55 43.8653 217.92 54.4153 214.79 59.9053C200.04 85.6953 177.35 104.905 161.49 129.165C160.36 130.895 159.38 132.715 158.37 134.515C153.17 143.725 148.16 153.055 143.18 162.395C140.207 167.975 137.263 173.569 134.35 179.175C133.2 181.415 131.48 183.495 131.23 186.005C130.924 188.397 130.757 190.804 130.73 193.215C130.774 194.197 130.959 195.167 131.28 196.095C131.39 196.435 132.08 198.615 132.47 198.635C131.01 198.438 129.629 197.855 128.47 196.945C120.78 191.815 115.1 185.225 109.61 177.945C107.124 174.74 104.814 171.401 102.69 167.945C97.38 159.035 94.51 148.945 92.37 138.885C90.14 128.385 88.58 118.125 89.87 107.375C96.6 51.1553 166.57 15.4253 217.73 30.4353C220.401 31.2078 222.942 32.3739 225.27 33.8953C225.99 34.6953 226.7 35.5253 227.38 36.3553Z" fill="url(#paint1_linear_3_4603)"/>
<circle cx="113.37" cy="153.295" r="17" fill="#845161"/>
<circle cx="119.2" cy="152.175" r="16" fill="#69303A"/>
<path d="M283.48 275.335C216.632 326.807 123.391 326.395 57 274.335L105.66 251.525C107.977 250.436 110.201 249.158 112.31 247.705C112.95 247.265 113.59 246.805 114.2 246.325C119.496 242.273 123.855 237.126 126.98 231.235C130.98 223.685 132.3 215.345 132.36 206.845V206.225C132.36 201.475 132.13 196.715 132.03 191.955C132.03 191.195 132.03 190.435 132.03 189.675C131.99 186.509 131.957 183.339 131.93 180.165L133.93 181.165L139.13 183.855L141.54 184.265L169.42 189.005L173.21 189.655L200.54 194.305L201.48 226.305L201.75 235.515L201.94 241.845V242.155L214.04 247.075L283.48 275.335Z" fill="#845161"/>
<path d="M201.69 235.495C187.682 238.313 173.133 235.196 161.51 226.885L132.36 206.215C132.36 201.465 132.13 196.705 132.03 191.945C142.6 197.295 155.24 199.215 165.38 193.945C167.98 192.615 170.56 191.115 173.15 189.625L200.48 194.275L201.42 226.275L201.69 235.495Z" fill="#69303A"/>
<path d="M233.14 159.355C232.75 181.095 220.8 212.105 215.86 221.225C213.31 225.945 209.61 226.925 203.77 228.425C189.115 232.096 173.588 229.137 161.31 220.335L124.31 193.515C122.75 180.855 119.5 169.195 117.49 156.605C116.2 148.505 112.17 131.245 118.9 124.785C119.833 123.95 120.897 123.275 122.05 122.785C126.46 120.715 133 119.515 136.62 118.085C143.287 115.465 149.89 112.695 156.43 109.775C163.097 106.782 169.71 103.642 176.27 100.355C182.543 97.2019 188.737 93.9186 194.85 90.5052L204.64 96.1852C210.6 99.6452 216.557 103.105 222.51 106.565C234.42 113.475 228.62 121.365 226.79 132.485C226.19 136.095 227.14 136.135 229.05 138.645C232.91 143.795 233.26 153.155 233.14 159.355Z" fill="#845161"/>
<path d="M150.47 124.715C159.689 122.624 169.203 122.167 178.58 123.365" stroke="#00214E"/>
<path d="M209.51 123.645C215.201 122.209 221.084 121.682 226.94 122.085" stroke="#00214E"/>
<path d="M283.48 275.335C216.632 326.807 123.391 326.395 57 274.335L105.66 251.525C107.977 250.436 110.201 249.158 112.31 247.705C112.95 247.265 113.59 246.805 114.2 246.325C137.75 263.085 169.89 273.655 197.69 261.145C204.31 258.145 210.39 253.305 213.99 247.085L283.48 275.335Z" fill="#FF2609"/>
<path d="M182.25 163.405C180.765 164.196 180.082 165.953 180.642 167.539C181.202 169.125 182.838 170.063 184.49 169.745" stroke="#00214E"/>
<path d="M197.07 134.065C199.75 143.565 202.01 152.925 204.57 162.495C204.869 163.366 204.988 164.288 204.92 165.205C204.55 167.965 201.3 169.155 198.59 169.795" stroke="#00214E"/>
<circle cx="195.15" cy="117.805" r="4.02" fill="#FF2609"/>
<path d="M207.22 97.6752C199.49 97.8752 189.33 98.1752 181.64 99.2652C179.42 99.5852 176.23 100.325 176.23 100.325C182.503 97.1719 188.697 93.8886 194.81 90.4752L207.22 97.6752Z" fill="white"/>
<path d="M230.07 180.985C226.07 197.985 219.49 214.895 216.07 221.225C213.51 225.945 209.81 226.915 203.97 228.425C190.06 232.002 175.286 229.548 163.28 221.665C158.77 218.785 154.15 216.105 149.55 213.385C144.36 210.325 139.2 207.205 134.3 203.715C130.03 200.665 126.03 197.625 123.76 192.715C122.953 190.905 122.284 189.036 121.76 187.125C121.3 185.535 120.76 183.695 121.12 182.025C121.244 181.363 121.713 180.817 122.35 180.595C122.805 180.5 123.278 180.542 123.71 180.715C126.58 181.575 129.2 183.525 131.8 184.975C134.602 186.591 137.582 187.877 140.68 188.805C148.76 191.145 157.76 191.345 165.39 187.415C172.21 183.905 178.87 179.355 186 176.415C190.748 174.352 195.896 173.372 201.07 173.545C208.42 173.895 211.62 177.145 217.07 181.405C218.86 182.805 220.86 184.265 223.13 184.235C225.67 184.155 227.95 182.675 230.07 180.985Z" fill="#00214E"/>
<path d="M183.63 188.655C190.326 191.316 197.76 191.455 204.55 189.045" stroke="#F2A196"/>
<path d="M163.15 133.545C169.25 133.475 169.44 142.795 163.34 142.965H163.07C156.97 143.035 156.79 133.715 162.89 133.545H163.16H163.15Z" fill="#00214E"/>
<path d="M213.39 131.905C219.05 131.845 219.22 140.495 213.56 140.645H213.31C207.64 140.705 207.48 132.055 213.14 131.895H213.39V131.905Z" fill="#00214E"/>
<defs>
<linearGradient id="paint0_linear_3_4603" x1="147.986" y1="189.402" x2="295.137" y2="211.302" gradientUnits="userSpaceOnUse">
<stop stop-color="#16243F"/>
<stop offset="1" stop-color="#6878B1"/>
</linearGradient>
<linearGradient id="paint1_linear_3_4603" x1="105.533" y1="305.777" x2="318.941" y2="202.266" gradientUnits="userSpaceOnUse">
<stop stop-color="#16243F"/>
<stop offset="1" stop-color="#6878B1"/>
</linearGradient>
</defs>
</svg>
