<svg width="340" height="340" viewBox="0 0 340 340" fill="none" xmlns="http://www.w3.org/2000/svg">
<path fill-rule="evenodd" clip-rule="evenodd" d="M230.688 90.1376C231.028 91.7856 231.375 93.4674 231.74 95.1843C241.19 139.474 244.77 219.034 244.77 219.034C244.77 219.034 88.47 219.924 58.53 216.924L58.7737 215.49C63.0423 190.368 67.3106 165.248 72.07 140.214C72.4709 138.06 72.8724 135.853 73.2814 133.605C75.7191 120.205 78.4243 105.334 82.86 91.5043C86.3 80.7643 90.82 70.6443 97.13 62.3243C101.622 56.6637 107.117 51.8774 113.34 48.2043C127.56 39.5043 145.73 34.3543 160.21 33.2043C177.28 31.8543 194.82 37.2643 208.55 47.3843C224.258 58.9805 227.082 72.6644 230.688 90.1376ZM140.77 110.194L157.57 115.624L195.14 93.2543L191.43 91.1943L140.77 110.194Z" fill="#00214E"/>
<path d="M283.48 269.664C216.632 321.136 123.391 320.724 57 268.664L105.66 245.854C107.149 245.15 108.601 244.369 110.01 243.514L111.13 242.814C111.53 242.564 111.92 242.304 112.31 242.034C118.449 237.799 123.48 232.15 126.98 225.564C130.98 218.014 132.3 209.674 132.36 201.174C132.36 195.454 132.05 189.734 131.99 184.004C131.95 180.838 131.917 177.668 131.89 174.494L133.89 175.494L139.09 178.184L169.36 183.324L200.48 188.624L201.42 220.624L201.89 236.494L213.36 241.164L222.36 244.804L283.48 269.664Z" fill="#F2D4CF"/>
<path d="M201.23 216.924C198.51 218.604 195.94 219.394 193.69 219.154C178.9 217.564 150.05 205.974 131.89 184.524C131.89 183.478 131.87 182.428 131.83 181.374C131.79 178.201 131.757 175.031 131.73 171.864L133.73 172.864L138.93 175.554L169.22 180.704L200.34 186.004L201.23 216.924Z" fill="#DAAEA8"/>
<path d="M283.48 269.664C216.632 321.136 123.391 320.724 57 268.664L105.66 245.854C107.16 245.148 108.61 244.371 110.01 243.524C133.69 260.934 166.65 272.264 195.07 259.474C203.13 255.854 210.4 249.424 213.36 241.164L222.36 244.804L283.48 269.664Z" fill="#FF2609"/>
<circle cx="105.21" cy="141.214" r="17" fill="#F2D4CF"/>
<circle cx="111.21" cy="139.214" r="17" fill="#DAAEA8"/>
<path d="M220.75 115.464C232.49 156.154 207.55 205.344 192.21 205.344C171.21 205.344 120.21 188.564 108.48 147.874C96.75 107.184 112.35 66.9543 143.35 58.0043C174.35 49.0543 209 74.7843 220.75 115.464Z" fill="#F2D4CF"/>
<path d="M190 111.454C197.066 107.855 205.241 107.093 212.85 109.324" stroke="#00214E"/>
<path d="M141.12 113.744C150.863 108.783 162.309 108.417 172.35 112.744" stroke="#00214E"/>
<ellipse cx="154.339" cy="126.756" rx="3.27" ry="7.94" transform="rotate(-85.77 154.339 126.756)" fill="#00214E"/>
<ellipse cx="205.831" cy="125.139" rx="7.94" ry="3.27" transform="rotate(-13.23 205.831 125.139)" fill="#00214E"/>
<path d="M190.8 135.814C190.8 135.814 191.09 141.464 192.42 144.114C192.99 145.254 193.87 146.224 194.42 147.354C196.63 151.694 193.05 152.604 189.61 152.604" stroke="#00214E"/>
<path d="M176.88 145.694C175.387 146.458 174.675 148.196 175.201 149.788C175.728 151.381 177.336 152.351 178.99 152.074" stroke="#00214E"/>
<path d="M158.9 161.204C159.178 160.767 159.626 160.464 160.136 160.369C160.646 160.274 161.173 160.396 161.59 160.704C163.66 162.164 167.46 165.264 172.86 166.334C180.22 167.804 186.61 164.854 188.13 166.754C188.99 167.824 187.94 169.134 185.93 170.754C181.685 173.957 176.325 175.306 171.07 174.494C163.98 173.164 158.67 164.964 158.67 162.064C158.668 161.762 158.748 161.465 158.9 161.204Z" fill="white"/>
<path d="M213.57 82.9343L191.43 91.2243L140.77 110.194H140.76L102.93 124.364L102.35 97.7943L101.57 61.9343L125.06 54.6143L162.57 42.9343L213.57 82.9343Z" fill="#00214E"/>
<path d="M191.43 91.2243L140.77 110.224L102.36 97.8243L82.87 91.5343C86.31 80.7943 90.87 70.6743 97.14 62.3543C101.635 56.7045 107.129 51.9285 113.35 48.2643C116.85 50.1543 120.82 52.2643 125.07 54.6443C148.52 67.4343 180.64 85.2343 191.43 91.2243Z" fill="url(#paint0_linear_3_4589)"/>
<defs>
<linearGradient id="paint0_linear_3_4589" x1="183.399" y1="133.303" x2="193.282" y2="61.3373" gradientUnits="userSpaceOnUse">
<stop offset="0.29" stop-color="#00214E"/>
<stop offset="0.51" stop-color="#6878B1"/>
<stop offset="0.79" stop-color="#00214E"/>
</linearGradient>
</defs>
</svg>
