<svg width="340" height="340" viewBox="0 0 340 340" fill="none" xmlns="http://www.w3.org/2000/svg">
<path d="M102.48 146.584C91.71 124.354 93.14 97.344 105.3 75.964C122.91 44.964 162.3 30.314 196.55 32.154C203.29 32.514 210.64 33.804 215.04 38.924C216.41 40.514 217.54 42.504 219.49 43.304C220.849 43.7214 222.281 43.8408 223.69 43.654C230.03 43.364 236.61 44.294 242 47.654C247.39 51.014 251.34 57.084 250.9 63.414C250.77 65.244 250.31 67.194 251.09 68.864C251.74 70.254 253.09 71.124 254.23 72.194C257.23 75.104 258.23 79.644 257.75 83.814C256.26 97.604 252.26 111.864 244.96 123.844C240.456 131.266 234.822 137.94 228.26 143.624C221.78 149.204 213.73 151.834 208.13 158.244C202.28 164.934 203.02 174.014 197.28 181.244C191.19 188.934 182.28 193.894 172.85 196.334C162.29 199.064 141.57 200.074 132.13 193.784C129.27 191.874 127.23 188.984 125.3 186.134C116.756 173.514 109.13 160.297 102.48 146.584Z" fill="#00214E"/>
<path d="M283.48 270.134C216.632 321.605 123.391 321.194 57 269.134L105.66 246.324C107.977 245.235 110.201 243.957 112.31 242.504C112.95 242.064 113.59 241.604 114.2 241.124C119.496 237.072 123.855 231.925 126.98 226.034C129.342 221.508 130.912 216.61 131.62 211.554C132.108 208.273 132.356 204.961 132.36 201.644C132.36 195.924 132.05 190.204 131.99 184.474C131.95 181.307 131.917 178.137 131.89 174.964L133.89 175.964L139.09 178.654L141.5 179.064L169.38 183.804L200.5 189.104L201.44 221.104L201.75 231.564L201.9 236.644V236.974L214 241.894L283.48 270.134Z" fill="#845161"/>
<path d="M283.48 270.134C216.632 321.605 123.391 321.194 57 269.134L105.66 246.324C107.977 245.235 110.201 243.957 112.31 242.504C112.95 242.064 113.59 241.604 114.2 241.124C137.75 257.884 169.89 268.454 197.69 255.944C204.31 252.944 210.39 248.104 213.99 241.884L283.48 270.134Z" fill="#FF2609"/>
<path d="M201.88 236.624C191.43 237.254 179.75 234.554 168.88 228.284C148.47 216.494 137.56 195.934 141.48 179.074L169.36 183.814L200.48 189.114L201.42 221.114L201.88 236.624Z" fill="#69303A"/>
<circle cx="122.05" cy="146.954" r="17" fill="#845161"/>
<circle cx="127.44" cy="146.954" r="15.22" fill="#69303A"/>
<path d="M127.67 130.904L129.99 161.084L131.5 180.814C132.06 188.074 134.89 192.424 139.62 198.234C148.025 208.543 158.732 216.736 170.88 222.154C182.48 227.324 198.56 232.474 210.94 227.454C223.59 222.334 227.63 208.124 231.88 196.354C236.13 184.584 240.09 171.614 239.88 158.894C239.61 141.634 235.04 131.954 235.04 131.954C236.147 125.287 237.253 118.641 238.36 112.014C239.61 104.504 241.22 96.664 239.36 89.114C237.23 80.454 230.69 76.764 225.31 70.294C211.15 88.534 187.87 98.844 167.54 109.294C157.07 114.764 127.67 130.904 127.67 130.904Z" fill="#845161"/>
<path d="M204.12 135.764C204.06 136.004 209.66 151.644 213.05 161.084C213.613 162.691 213.364 164.471 212.381 165.861C211.398 167.251 209.803 168.08 208.1 168.084H204.47" stroke="#00214E"/>
<path d="M190.46 162.044C189.125 162.836 188.565 164.481 189.141 165.923C189.717 167.364 191.257 168.171 192.77 167.824" stroke="#00214E"/>
<path d="M156.17 124.204C165.428 122.295 174.949 122.024 184.3 123.404" stroke="#00214E"/>
<path d="M218.77 123.254C224.498 121.918 230.403 121.51 236.26 122.044" stroke="#00214E"/>
<path d="M165 184.084C168.705 178.001 173.975 173.024 180.26 169.674" stroke="#00214E"/>
<path d="M182.92 139.404C182.412 143.53 179.744 147.074 175.92 148.704C173.856 149.452 171.699 149.913 169.51 150.074" stroke="#00214E"/>
<path d="M184.28 107.024H215.88" stroke="#00214E"/>
<path d="M180.25 113.544H211.86" stroke="#00214E"/>
<path d="M215.74 137.124C216.696 139.67 217.952 142.094 219.48 144.344C220.976 146.422 223.207 147.853 225.72 148.344" stroke="#00214E"/>
<path d="M177.06 180.604C177.336 180.167 177.782 179.864 178.291 179.77C178.799 179.675 179.324 179.796 179.74 180.104C181.82 181.564 185.62 184.664 191.02 185.734C198.38 187.204 204.77 184.254 206.29 186.154C207.15 187.224 206.1 188.524 204.09 190.204C199.843 193.375 194.498 194.705 189.26 193.894C182.18 192.564 176.86 184.364 176.86 181.454C176.851 181.158 176.92 180.865 177.06 180.604Z" fill="white"/>
<path d="M174.34 132.814C180.45 132.754 180.63 142.074 174.53 142.244H174.26C168.16 142.314 167.98 132.994 174.08 132.824H174.35L174.34 132.814Z" fill="#00214E"/>
<path d="M224.58 131.184C230.25 131.114 230.41 139.774 224.75 139.924H224.5C218.84 139.984 218.67 131.334 224.33 131.174H224.58V131.184Z" fill="#00214E"/>
</svg>
