<svg width="340" height="340" viewBox="0 0 340 340" fill="none" xmlns="http://www.w3.org/2000/svg">
<path d="M262.659 120.229C262.379 126.969 253.559 132.409 252.029 138.719C250.459 145.229 255.769 154.099 253.029 160.029C250.289 165.959 240.029 167.719 236.099 173.029C232.169 178.339 233.699 188.619 228.839 193.089C223.979 197.559 213.899 195.179 208.249 198.629C202.599 202.079 200.129 212.119 193.879 214.399C187.629 216.679 179.339 210.609 172.729 211.629C166.309 212.629 160.149 220.949 153.409 220.629C146.669 220.309 141.229 211.529 134.919 209.999C128.419 208.419 119.539 213.739 113.609 210.999C107.679 208.259 105.929 197.999 100.609 194.079C95.289 190.159 85.019 191.679 80.549 186.819C76.079 181.959 78.449 171.879 74.999 166.219C71.549 160.559 61.529 158.109 59.239 151.869C56.949 145.629 63.039 137.329 62.009 130.719C61.009 124.299 52.689 118.129 53.009 111.399C53.329 104.669 62.119 99.219 63.649 92.909C65.219 86.409 59.909 77.529 62.649 71.599C65.389 65.669 75.649 63.919 79.569 58.599C83.489 53.279 81.979 43.009 86.839 38.599C91.699 34.189 101.779 36.499 107.429 33.049C113.079 29.599 115.549 19.569 121.799 17.279C128.049 14.989 136.329 21.029 142.919 20.009C149.329 19.009 155.499 10.689 162.229 11.009C168.959 11.329 174.409 20.119 180.729 21.639C187.229 23.219 196.099 17.899 202.029 20.639C207.959 23.379 209.719 33.639 215.029 37.559C220.339 41.479 230.619 39.959 235.089 44.819C239.559 49.679 237.189 59.769 240.639 65.419C244.089 71.069 254.119 73.539 256.409 79.779C258.699 86.019 252.609 94.319 253.629 100.929C254.609 107.309 262.949 113.499 262.659 120.229Z" fill="url(#paint0_linear_3_4584)"/>
<path d="M286.039 289.679C219.191 341.15 125.95 340.739 59.5591 288.679L108.219 265.869C109.709 265.165 111.16 264.384 112.569 263.529L113.689 262.829C114.089 262.579 114.479 262.319 114.869 262.049C121.008 257.814 126.039 252.165 129.539 245.579C133.539 238.029 134.859 229.689 134.919 221.189C134.919 215.469 134.609 209.749 134.549 204.019C134.509 200.852 134.476 197.682 134.449 194.509L136.449 195.509L141.649 198.199L171.939 203.349L203.059 208.649L203.999 240.649L204.469 256.519L215.939 261.189L224.939 264.829L286.039 289.679Z" fill="#845161"/>
<path d="M203.979 240.629C193.922 242.425 183.572 241.626 173.909 238.309C152.329 231.059 137.799 213.569 136.429 195.549L141.629 198.239L171.919 203.389L203.039 208.689L203.979 240.629Z" fill="#69303A"/>
<path d="M286.039 289.679C219.191 341.15 125.95 340.739 59.5591 288.679L108.219 265.869C109.709 265.165 111.16 264.384 112.569 263.529C136.249 280.939 169.199 292.279 197.629 279.529C205.689 275.909 212.959 269.479 215.919 261.219L224.919 264.859L286.039 289.679Z" fill="url(#paint1_linear_3_4584)"/>
<circle cx="111.939" cy="160.949" r="17" fill="#845161"/>
<circle cx="118.019" cy="159.209" r="17" fill="#69303A"/>
<path d="M195.609 228.689C174.609 227.799 124.389 208.889 114.359 167.749C112.252 159.178 111.31 150.362 111.559 141.539C111.559 139.809 111.719 138.099 111.859 136.399C114.329 108.139 129.809 85.069 152.979 79.399C154.319 79.079 155.659 78.809 156.979 78.619C165.068 77.4559 173.319 78.3819 180.949 81.309C190.758 85.1317 199.526 91.2168 206.539 99.069C209.503 102.305 212.208 105.769 214.629 109.429C220.803 118.792 225.294 129.161 227.899 140.069C237.919 181.239 210.929 229.309 195.609 228.689Z" fill="#845161"/>
<path d="M162.869 142.389C168.959 142.699 168.569 152.009 162.469 151.809H162.199C156.099 151.499 156.499 142.179 162.589 142.389H162.869Z" fill="#00214E"/>
<path d="M213.249 140.669C218.899 140.959 218.539 149.599 212.879 149.409H212.619C206.969 149.129 207.329 140.479 212.989 140.669H213.249Z" fill="#00214E"/>
<path d="M194.969 140.379C195.079 144.274 195.588 148.148 196.489 151.939C197.389 155.289 198.779 157.409 200.659 160.339C201.305 161.306 201.861 162.33 202.319 163.399C204.709 169.399 200.929 175.879 194.249 175.599L190.129 175.419" stroke="#00214E"/>
<path d="M165.729 185.579C170.306 191.141 176.743 194.857 183.849 196.039" stroke="#00214E"/>
<path d="M175.839 167.149C174.303 167.843 173.507 169.557 173.968 171.178C174.429 172.799 176.008 173.837 177.679 173.619" stroke="#00214E"/>
<path d="M200.219 128.309C207.427 125.003 215.625 124.574 223.139 127.109" stroke="#00214E"/>
<path d="M147.669 128.989C157.613 124.442 169.066 124.566 178.909 129.329" stroke="#00214E"/>
<path d="M208.329 99.819C208.819 100.999 208.719 102.029 207.879 103.639C206.875 105.545 205.625 107.31 204.159 108.889C198.039 115.624 188.673 118.382 179.879 116.039C177.563 115.488 175.351 114.566 173.329 113.309C171.829 112.309 170.089 109.949 168.049 110.749C167.221 111.184 166.568 111.89 166.199 112.749C162.929 118.529 160.919 124.599 154.459 127.639C150.702 129.252 146.536 129.657 142.539 128.799C139.119 128.189 138.059 125.479 135.129 124.649C133.479 124.179 131.829 125.449 130.829 126.849C128.939 129.499 128.779 132.849 127.219 135.659C125.219 139.359 121.149 142.659 116.809 143.139C115.076 143.378 113.339 142.727 112.189 141.409C109.979 138.549 111.289 133.409 111.709 130.099C113.309 117.719 117.569 105.459 125.099 95.409C131.889 86.409 141.379 79.409 152.439 76.759C171.589 72.089 195.299 83.259 207.189 97.919C207.667 98.4878 208.052 99.1291 208.329 99.819Z" fill="url(#paint2_linear_3_4584)"/>
<path d="M206.029 96.479C187.619 91.539 165.919 92.479 151.189 100.749C125.589 115.089 119.579 126.469 111.439 138.399L111.089 138.929C111.089 138.239 111.089 137.539 111.179 136.849C112.759 107.199 128.509 82.659 152.509 76.849C171.419 72.239 191.139 80.299 205.999 96.449L206.029 96.479Z" fill="#00214E"/>
<defs>
<linearGradient id="paint0_linear_3_4584" x1="134.27" y1="348.153" x2="379.702" y2="138.516" gradientUnits="userSpaceOnUse">
<stop stop-color="#315676"/>
<stop offset="1" stop-color="#E1B9E0"/>
</linearGradient>
<linearGradient id="paint1_linear_3_4584" x1="59.5591" y1="327.972" x2="286.039" y2="327.972" gradientUnits="userSpaceOnUse">
<stop stop-color="#16243F"/>
<stop offset="1" stop-color="#6878B1"/>
</linearGradient>
<linearGradient id="paint2_linear_3_4584" x1="159.547" y1="224.564" x2="195.559" y2="78.6983" gradientUnits="userSpaceOnUse">
<stop stop-color="#315676"/>
<stop offset="1" stop-color="#E1B9E0"/>
</linearGradient>
</defs>
</svg>
