<svg width="340" height="340" viewBox="0 0 340 340" fill="none" xmlns="http://www.w3.org/2000/svg">
<path d="M257.51 195.153C257.51 195.153 72.1899 186.723 70.2499 186.643C65.2499 179.883 70.6699 164.543 74.5599 158.583C81.2999 148.263 93.4799 141.583 97.4999 129.923C102.13 116.473 94.3799 105.863 93.1699 93.1433C92.0699 81.0733 96.9399 68.7233 104.92 59.7233C121.07 41.7233 147.86 32.8033 173.73 33.0033C187.23 33.0933 200.47 35.6733 211.81 40.7033C213.19 41.3133 214.53 41.9533 215.81 42.6333C216.81 43.1633 217.81 43.7233 218.81 44.3133C230.04 51.0089 239.33 60.5188 245.76 71.9033C253.67 85.7433 255.55 98.5733 250.92 113.903C247.92 123.723 244.19 133.903 246.05 143.903C248.05 154.953 256.59 163.903 258.83 174.903C260.26 181.663 259.21 188.583 257.51 195.153Z" fill="#F2D4CF"/>
<path d="M283.48 268.473C216.632 319.945 123.391 319.533 57 267.473L105.66 244.663C107.977 243.574 110.201 242.296 112.31 240.843C112.95 240.403 113.59 239.943 114.2 239.463C119.496 235.411 123.855 230.264 126.98 224.373C129.342 219.847 130.912 214.95 131.62 209.893C132.108 206.612 132.356 203.3 132.36 199.983C132.36 194.263 132.05 188.543 131.99 182.813C131.95 179.64 131.917 176.47 131.89 173.303L133.89 174.303L139.09 176.993L141.5 177.403L169.38 182.143L200.5 187.443L201.44 219.443L201.75 229.903L201.9 234.983V235.313L214 240.233L283.48 268.473Z" fill="#F2A196"/>
<path d="M201.78 232.913C198.343 233.505 194.807 232.957 191.71 231.353L132.07 182.573C132 180.313 131.94 182.683 131.91 180.423C131.87 177.257 131.837 174.087 131.81 170.913L133.81 171.913L139.01 174.603L141.42 175.013L169.3 179.753L200.42 185.053L201.36 217.053L201.67 227.513L201.82 232.593V232.923L201.78 232.913Z" fill="#E88870"/>
<path d="M283.48 268.473C216.632 319.945 123.391 319.533 57 267.473L105.66 244.663C107.977 243.574 110.201 242.296 112.31 240.843C112.95 240.403 113.59 239.943 114.2 239.463C137.75 256.223 169.89 266.793 197.69 254.283C204.31 251.283 210.39 246.443 213.99 240.223L283.48 268.473Z" fill="url(#paint0_linear_3_4576)"/>
<circle cx="120.04" cy="147.263" r="17" fill="#F2A196"/>
<circle cx="125.43" cy="147.013" r="15.22" fill="#E88870"/>
<path d="M124.9 130.973L131.96 187.723C132.14 189.183 142.96 193.463 144.23 194.133C158.73 201.723 173.66 211.823 190.07 214.423C197.07 215.533 204.42 215.423 211.07 212.853C222.79 208.353 224.37 199.533 228.39 189.153C232.01 179.798 234.859 170.163 236.91 160.343C238.91 150.943 240.69 138.013 233.79 129.953C232.95 128.953 232.05 128.423 232.22 126.953C233.68 114.633 236 100.693 230.63 89.0533C227.13 81.4833 221.47 75.1133 215.26 69.5633C215.26 69.5633 168.03 105.063 163.74 107.563C153.51 113.433 124.9 130.973 124.9 130.973Z" fill="#F2A196"/>
<path d="M202.24 127.723C202.24 128.013 214.9 157.543 214.9 157.543L199.9 158.993" stroke="#00214E"/>
<path d="M156.21 115.333C165.367 112.99 174.865 112.276 184.27 113.223" stroke="#00214E"/>
<path d="M215.35 115.023C221.001 113.44 226.867 112.765 232.73 113.023" stroke="#00214E"/>
<path d="M178.32 168.793C178.576 168.343 179.009 168.019 179.514 167.902C180.019 167.784 180.551 167.882 180.98 168.173C183.12 169.543 187.06 172.473 192.5 173.303C199.91 174.443 206.17 171.223 207.77 173.053C208.68 174.053 207.69 175.433 205.77 177.193C201.656 180.563 196.355 182.128 191.07 181.533C183.94 180.533 178.26 172.533 178.14 169.653C178.124 169.356 178.186 169.059 178.32 168.793Z" fill="white"/>
<path d="M173.65 126.483C179.74 126.213 180.23 135.533 174.14 135.893H173.87C167.77 136.163 167.28 126.843 173.38 126.483H173.65Z" fill="#00214E"/>
<path d="M223.81 123.203C229.46 122.953 229.92 131.593 224.26 131.933H224.01C218.35 132.183 217.9 123.543 223.55 123.203H223.81Z" fill="#00214E"/>
<defs>
<linearGradient id="paint0_linear_3_4576" x1="57" y1="306.791" x2="283.48" y2="306.791" gradientUnits="userSpaceOnUse">
<stop stop-color="#16243F"/>
<stop offset="1" stop-color="#6878B1"/>
</linearGradient>
</defs>
</svg>
