<svg width="340" height="340" viewBox="0 0 340 340" fill="none" xmlns="http://www.w3.org/2000/svg">
<path d="M288 125.96C288 133.57 279.33 140.23 277.91 147.43C276.44 154.84 281.91 164.31 279.05 171.13C276.19 177.95 265.61 180.91 261.48 187.07C257.35 193.23 258.71 204.13 253.48 209.4C248.25 214.67 237.37 213.27 231.16 217.4C224.95 221.53 222.16 232.1 215.21 234.97C208.26 237.84 198.93 232.37 191.51 233.84C184.32 235.26 177.65 243.93 170.04 243.93C162.43 243.93 155.77 235.26 148.57 233.84C141.16 232.37 131.69 237.84 124.87 234.97C118.05 232.1 115.1 221.53 108.93 217.4C102.76 213.27 91.87 214.64 86.6 209.4C81.33 204.16 82.73 193.29 78.6 187.07C74.47 180.85 63.83 178.04 60.96 171.13C58.09 164.22 63.56 154.84 62.1 147.43C60.67 140.23 52 133.57 52 125.96C52 118.35 60.67 111.68 62.1 104.49C63.56 97.08 58.1 87.61 60.96 80.79C63.82 73.97 74.4 71.04 78.53 64.84C82.66 58.64 81.29 47.84 86.53 42.52C91.77 37.2 102.64 38.65 108.86 34.52C115.08 30.39 117.86 19.83 124.8 16.95C131.74 14.07 141.09 19.56 148.5 18.09C155.7 16.67 162.36 8 169.97 8C177.58 8 184.28 16.63 191.47 18.04C198.89 19.51 208.35 14.04 215.17 16.9C221.99 19.76 224.95 30.35 231.12 34.48C237.29 38.61 248.12 37.24 253.44 42.48C258.76 47.72 257.32 58.59 261.44 64.81C265.56 71.03 276.13 73.81 279.01 80.75C281.89 87.69 276.4 97.04 277.87 104.45C279.33 111.68 288 118.35 288 125.96Z" fill="url(#paint0_linear_3_4583)"/>
<circle cx="119" cy="170.96" r="17" fill="#845161"/>
<circle cx="124.86" cy="169.96" r="16" fill="#69303A"/>
<path d="M280.59 294.14C213.742 345.611 120.501 345.2 54.1101 293.14L102.77 270.33C105.087 269.241 107.312 267.963 109.42 266.51C110.06 266.07 110.7 265.61 111.31 265.13C116.606 261.078 120.965 255.931 124.09 250.04C128.09 242.49 129.41 234.15 129.47 225.65C129.47 223.91 129.47 222.16 129.41 220.42C129.32 216.42 129.14 212.42 129.1 208.48C129.06 205.307 129.027 202.137 129 198.97L131 199.97L136.2 202.66L138.61 203.07L166.49 207.81L197.61 213.11L198.55 245.11L198.91 257.32L199.01 260.65V260.98L211.11 265.9L280.59 294.14Z" fill="#845161"/>
<path d="M198.92 257.51L197.38 257.67C182.334 258.995 167.465 253.646 156.71 243.04L129.33 210.51C129.24 207.61 129.13 210.51 129.1 207.6C129.06 204.427 129.027 201.257 129 198.09L131 199.09L136.2 201.78L138.61 202.19L166.49 206.93L197.61 212.23L198.55 244.23L198.92 257.51Z" fill="#69303A"/>
<path d="M124.11 136.36C123.32 137.36 122.62 139.36 121.87 142.47C120.14 149.8 127.72 197.92 129.17 212.09L165.59 238.94C177.683 248.001 193.146 251.292 207.88 247.94C213.75 246.55 217.47 245.65 220.12 240.94C225.24 231.94 237.81 201.15 238.63 179.43C238.86 173.27 238.71 163.86 234.91 158.61C233.06 156.06 232.11 156.01 232.78 152.4C233.47 148.64 234.46 144.93 235.29 141.19C237.58 130.86 239.41 119.19 236.1 108.91C234.34 103.41 231.23 99.77 226.81 96.23C222.09 92.45 220.14 92.64 217.31 98.23C215.4 102.03 213.48 105.23 209.61 107.39C204 110.5 200.18 108.48 194.61 108.05C189.73 107.68 190.25 111.45 189.18 115C188.077 118.782 185.681 122.056 182.41 124.25C176.339 128.193 168.528 128.24 162.41 124.37C161.58 123.775 160.581 123.463 159.56 123.48C156.22 123.66 156.07 127.67 155.31 130.55C153.7 136.55 146.69 139.87 140.46 139.38C130.3 138.63 126.68 132.97 124.11 136.36Z" fill="#845161"/>
<path d="M204.37 154.24C204.644 158.128 205.314 161.978 206.37 165.73C207.37 169.04 208.89 171.09 210.89 173.95C211.581 174.891 212.18 175.895 212.68 176.95C215.32 182.89 211.81 189.48 205.13 189.48H201" stroke="#00214E"/>
<path d="M175.34 199.27C180.147 204.634 186.732 208.08 193.88 208.97" stroke="#00214E"/>
<path d="M156.67 143.13C165.928 141.22 175.449 140.95 184.8 142.33" stroke="#00214E"/>
<path d="M215.72 143.24C221.435 141.912 227.327 141.507 233.17 142.04" stroke="#00214E"/>
<path d="M280.59 294.14C213.742 345.611 120.501 345.2 54.1101 293.14L102.77 270.33C105.087 269.241 107.312 267.963 109.42 266.51C110.06 266.07 110.7 265.61 111.31 265.13C134.83 281.88 167 292.45 194.83 279.94C201.45 276.94 207.53 272.1 211.13 265.88L280.59 294.14Z" fill="#FF2609"/>
<path d="M187.67 182.44C186.177 183.204 185.465 184.942 185.991 186.534C186.518 188.126 188.126 189.097 189.78 188.82" stroke="#00214E"/>
<path d="M172.17 150.77C178.27 150.82 178.27 160.14 172.17 160.19H171.89C165.79 160.14 165.79 150.82 171.89 150.77H172.17Z" fill="#00214E"/>
<path d="M222.43 150.77C228.09 150.77 228.09 159.47 222.43 159.51H222.17C216.51 159.51 216.51 150.81 222.17 150.77H222.43Z" fill="#00214E"/>
<defs>
<linearGradient id="paint0_linear_3_4583" x1="225.747" y1="321.911" x2="491.534" y2="74.7319" gradientUnits="userSpaceOnUse">
<stop stop-color="#315676"/>
<stop offset="1" stop-color="#E1B9E0"/>
</linearGradient>
</defs>
</svg>
