<svg width="340" height="340" viewBox="0 0 340 340" fill="none" xmlns="http://www.w3.org/2000/svg">
<path d="M102.48 146.592C91.71 124.362 93.14 97.3521 105.3 75.9621C122.91 45.0121 162.3 30.3221 196.55 32.1521C203.29 32.5121 210.64 33.8021 215.04 38.9221C216.41 40.5221 217.54 42.5121 219.49 43.3021C220.848 43.7228 222.28 43.8456 223.69 43.6621C230.03 43.3721 236.61 44.3021 242 47.6621C247.39 51.0221 251.34 57.0921 250.9 63.4121C250.77 65.2521 250.31 67.2021 251.09 68.8621C251.74 70.2521 253.09 71.1321 254.23 72.2021C257.23 75.1121 258.23 79.6521 257.75 83.8221C256.22 97.6221 252.28 111.892 244.96 123.822C240.45 131.246 234.809 137.919 228.24 143.602C221.76 149.182 213.71 151.812 208.11 158.222C202.26 164.912 203 173.982 197.26 181.222C191.17 188.922 182.26 193.882 172.83 196.312C162.27 199.052 141.55 200.062 132.11 193.772C129.25 191.862 127.21 188.972 125.28 186.122C116.746 173.507 109.127 160.296 102.48 146.592Z" fill="#DAAEA8"/>
<path d="M283.48 270.142C216.632 321.613 123.391 321.202 57 269.142L105.66 246.332C107.979 245.227 110.203 243.932 112.31 242.462C112.95 242.022 113.59 241.562 114.2 241.082C119.496 237.03 123.855 231.883 126.98 225.992C129.342 221.466 130.912 216.568 131.62 211.512C132.108 208.231 132.356 204.919 132.36 201.602C132.36 195.882 132.05 190.162 131.99 184.432C131.95 181.265 131.917 178.095 131.89 174.922L133.89 175.922L139.09 178.612L141.5 179.022L169.38 183.762L200.5 189.062L201.44 221.062L201.75 231.522L201.9 236.602V236.932L214 241.852L283.48 270.142Z" fill="#845161"/>
<path d="M283.48 270.142C216.632 321.613 123.391 321.202 57 269.142L105.66 246.332C107.979 245.227 110.203 243.932 112.31 242.462C112.95 242.022 113.59 241.562 114.2 241.082C137.75 257.842 169.89 268.412 197.69 255.902C204.31 252.902 210.39 248.062 213.99 241.842L283.48 270.142Z" fill="#DE8276"/>
<path d="M201.84 236.632C191.39 237.262 179.71 234.562 168.84 228.292C148.43 216.502 137.52 195.942 141.44 179.082L169.32 183.822L200.44 189.122L201.38 221.122L201.84 236.632Z" fill="#69303A"/>
<circle cx="122.05" cy="146.962" r="17" fill="#845161"/>
<circle cx="127.44" cy="146.962" r="15.22" fill="#69303A"/>
<path d="M127.67 130.912L129.99 161.092L131.5 180.822C132.06 188.082 134.89 192.432 139.62 198.242C148.017 208.542 158.709 216.734 170.84 222.162C182.43 227.332 198.52 232.472 210.9 227.462C223.55 222.332 227.59 208.132 231.84 196.352C236.09 184.572 240.05 171.612 239.84 158.892C239.57 141.632 235 131.962 235 131.962C236.107 125.295 237.213 118.649 238.32 112.022C239.57 104.512 241.18 96.6621 239.32 89.1221C237.19 80.4621 230.65 76.7721 225.32 70.2921C211.16 88.5321 187.88 98.8421 167.55 109.292C157.07 114.732 127.67 130.912 127.67 130.912Z" fill="#845161"/>
<path d="M204.12 135.792C204.06 136.032 209.66 151.672 213.05 161.112C213.616 162.727 213.361 164.517 212.367 165.91C211.372 167.302 209.762 168.124 208.05 168.112H204.42" stroke="#00214E"/>
<path d="M190.46 162.052C189.109 162.834 188.538 164.488 189.117 165.937C189.697 167.386 191.253 168.189 192.77 167.822" stroke="#00214E"/>
<path d="M156.17 124.212C165.427 122.293 174.949 122.022 184.3 123.412" stroke="#00214E"/>
<path d="M218.77 123.252C224.487 121.931 230.376 121.523 236.22 122.042" stroke="#00214E"/>
<path d="M165 184.092C168.701 178.007 173.968 173.027 180.25 169.672" stroke="#00214E"/>
<path d="M182.92 139.462C182.428 143.593 179.755 147.14 175.92 148.752C173.858 149.507 171.7 149.972 169.51 150.132" stroke="#00214E"/>
<path d="M184.28 107.022H215.88" stroke="#00214E"/>
<path d="M180.25 113.552H211.86" stroke="#00214E"/>
<path d="M215.74 137.122C216.694 139.673 217.95 142.1 219.48 144.352C220.979 146.427 223.209 147.857 225.72 148.352" stroke="#00214E"/>
<path d="M177.06 180.612C177.333 180.171 177.778 179.864 178.288 179.767C178.797 179.67 179.324 179.792 179.74 180.102C181.82 181.572 185.62 184.662 191.02 185.742C198.38 187.202 204.77 184.262 206.29 186.162C207.15 187.232 206.1 188.532 204.09 190.212C199.833 193.388 194.477 194.714 189.23 193.892C182.15 192.572 176.84 184.362 176.84 181.462C176.836 181.164 176.912 180.871 177.06 180.612Z" fill="white"/>
<path d="M174.34 132.822C180.45 132.752 180.63 142.082 174.53 142.242H174.25C168.15 142.312 167.97 132.982 174.07 132.822H174.34Z" fill="#00214E"/>
<path d="M224.58 131.182C230.25 131.122 230.41 139.772 224.75 139.932H224.5C218.84 140.002 218.67 131.342 224.33 131.192H224.58V131.182Z" fill="#00214E"/>
</svg>
