<svg width="340" height="340" viewBox="0 0 340 340" fill="none" xmlns="http://www.w3.org/2000/svg">
<path fill-rule="evenodd" clip-rule="evenodd" d="M209.14 46.8673C239.12 66.4273 245.04 102.827 245.45 136.017C245.623 150.049 245.491 164.019 245.359 177.972C245.102 205.115 244.845 232.189 246.84 259.507C246.7 257.557 215.09 252.867 211.48 252.707C203.89 252.379 196.04 253.092 188.279 253.797C184.454 254.144 180.65 254.489 176.91 254.707C170.387 255.115 163.717 255.279 157.012 255.443C144.156 255.758 131.165 256.077 118.81 258.127C116.414 258.526 114.05 258.93 111.705 259.33C99.2902 261.449 87.4183 263.476 74.28 264.207C73.2415 264.388 72.1729 264.178 71.28 263.617C70.28 262.797 70.28 261.317 70.28 260.027C70.28 244.571 70.9724 229.121 71.6643 213.683C72.6416 191.876 73.6178 170.093 72.64 148.347C71.7702 129.847 74.8378 111.373 81.64 94.1473C87.4517 79.2925 96.5687 65.9555 108.3 55.1473C111.485 52.2689 114.903 49.66 118.52 47.3473C145.39 30.0673 182.07 29.2073 209.14 46.8673ZM120.98 121.837L135.07 131.837L180.47 86.4473L174.76 82.8373C169.318 92.0606 161.85 99.9255 152.92 105.837C143.058 112.612 132.311 117.996 120.98 121.837Z" fill="#00214E"/>
<path d="M283.48 266.717C216.632 318.189 123.391 317.777 57 265.717L105.66 242.907C107.149 242.203 108.601 241.422 110.01 240.567L111.13 239.867C111.53 239.617 111.92 239.357 112.31 239.087C118.449 234.852 123.48 229.203 126.98 222.617C130.98 215.067 132.3 206.727 132.36 198.227C132.36 193.557 132.17 188.887 132.05 184.227C132.05 183.181 132.03 182.131 131.99 181.077C131.95 177.911 131.917 174.741 131.89 171.567H131.96L133.87 172.567L139.07 175.257L169.36 180.407L200.48 185.707L201.19 209.707L201.39 216.587V217.657L201.86 233.527L213.33 238.197L222.33 241.837L283.48 266.717Z" fill="#F2A196"/>
<path d="M201.19 209.717C199.035 211.193 196.46 211.933 193.85 211.827C179.07 210.237 150.21 198.647 132.07 177.197C132.07 176.151 132.05 175.101 132.01 174.047V171.577L133.92 172.577L139.12 175.267L169.41 180.417L200.53 185.717L201.19 209.717Z" fill="#E88870"/>
<circle cx="106.89" cy="139.537" r="17" fill="#F2A196"/>
<circle cx="112.89" cy="137.537" r="17" fill="#E88870"/>
<path d="M222.43 113.797C234.17 154.477 209.23 203.667 193.89 203.667C172.89 203.667 121.89 186.887 110.16 146.207C98.43 105.527 114.07 65.2873 145.07 56.3473C176.07 47.4073 210.69 73.1073 222.43 113.797Z" fill="#F2A196"/>
<path d="M164.38 163.217C169.182 168.586 175.77 172.029 182.92 172.907" stroke="#00214E"/>
<path d="M185 118.077C184.95 118.277 189.79 126.637 192.31 135.667C193.48 140.498 194.025 145.458 193.93 150.427H180.42" stroke="#00214E"/>
<path d="M197.41 109.567C204.475 105.968 212.646 105.196 220.26 107.407" stroke="#00214E"/>
<path d="M138.26 113.547C148.003 108.585 159.45 108.218 169.49 112.547" stroke="#00214E"/>
<path d="M155.8 122.407C161.9 122.457 161.9 131.787 155.8 131.827H155.53C149.43 131.827 149.43 122.457 155.53 122.407H155.8Z" fill="#00214E"/>
<path d="M205.93 121.017C211.59 121.017 211.59 129.717 205.93 129.757H205.68C200.01 129.757 200.01 121.057 205.68 121.017H205.93Z" fill="#00214E"/>
<path d="M186 45.6673C185.535 50.3766 184.777 55.0524 183.73 59.6673C181.941 67.8112 178.905 75.63 174.73 82.8473C169.288 92.0706 161.82 99.9355 152.89 105.847C143.028 112.622 132.281 118.006 120.95 121.847C111.977 124.896 102.801 127.311 93.49 129.077C93.8 121.447 93.49 112.007 94.43 103.147C95.13 96.7873 96.53 90.7173 99.35 85.8273C107.001 72.8885 118.162 62.3827 131.54 55.5273L131.66 55.4673C146.45 47.8573 169.36 40.3473 186 45.6673Z" fill="#00214E"/>
<path d="M283.48 266.717C216.632 318.189 123.391 317.777 57 265.717L105.66 242.907C107.977 241.818 110.201 240.54 112.31 239.087C112.95 238.647 113.59 238.187 114.2 237.707C119.496 233.655 123.855 228.508 126.98 222.617C129.342 218.091 130.912 213.194 131.62 208.137C132.326 208.822 133.067 209.469 133.84 210.077C139.971 214.615 146.625 218.399 153.66 221.347C157.075 222.772 160.567 224.004 164.12 225.037C174.824 228.159 186 229.34 197.12 228.527C198.66 228.407 200.21 228.257 201.75 228.147L201.9 233.227V233.557L214 238.477L283.48 266.717Z" fill="#F2D4CF"/>
<path d="M174.71 82.8873C169.268 92.1105 161.799 99.9755 152.87 105.887C143.008 112.662 132.261 118.046 120.93 121.887L94.4099 103.187L81.6399 94.1873C87.4516 79.3325 96.5686 65.9955 108.3 55.1873C111.483 52.2951 114.902 49.6727 118.52 47.3473L131.52 55.5673L174.71 82.8873Z" fill="url(#paint0_linear_3_4567)"/>
<defs>
<linearGradient id="paint0_linear_3_4567" x1="144.062" y1="149.947" x2="184.271" y2="66.5144" gradientUnits="userSpaceOnUse">
<stop offset="0.29" stop-color="#00214E"/>
<stop offset="0.51" stop-color="#6878B1"/>
<stop offset="0.79" stop-color="#00214E"/>
</linearGradient>
</defs>
</svg>
