<svg width="340" height="340" viewBox="0 0 340 340" fill="none" xmlns="http://www.w3.org/2000/svg">
<path d="M117.92 168.745C97.7901 136.905 84.5701 79.1247 120.43 52.1447C143.004 35.255 170.761 26.7676 198.92 28.1447C206.92 28.5747 215.21 29.9147 221.99 34.2547C228.77 38.5947 233.72 46.5347 232.54 54.4947C231.36 62.4547 229.95 64.6147 237.07 67.9747C243.383 70.967 249.047 75.1699 253.74 80.3447C259.15 86.3447 262.96 94.1947 262.4 102.235C261.72 111.925 254.92 120.785 255.93 130.455C256.69 137.655 261.63 143.615 264.71 150.165C268.047 157.029 268.977 164.817 267.35 172.275C262.43 192.645 242.73 190.345 226.05 191.975L191.59 195.345C182.31 196.255 172.98 195.545 163.68 196.975C155.62 198.215 146.83 200.865 139.41 195.905C137.158 194.255 135.161 192.284 133.48 190.055C127.849 183.287 122.652 176.17 117.92 168.745Z" fill="url(#paint0_linear_3_4608)"/>
<path d="M283.48 272.775C216.632 324.246 123.391 323.834 57 271.775L105.66 248.965C107.977 247.875 110.201 246.598 112.31 245.145C112.95 244.705 113.59 244.245 114.2 243.765C119.496 239.713 123.855 234.565 126.98 228.675C129.342 224.148 130.912 219.251 131.62 214.195C132.108 210.914 132.356 207.602 132.36 204.285C132.36 198.565 132.05 192.845 131.99 187.115C131.95 183.948 131.917 180.778 131.89 177.605L133.89 178.605L139.07 181.345L141.48 181.755L169.36 186.495L200.48 191.795L201.42 223.795L201.73 234.255L201.88 239.335V239.665L213.98 244.585L283.48 272.775Z" fill="#845161"/>
<path d="M201.78 237.215C198.343 237.806 194.807 237.258 191.71 235.655L132.07 186.885C132 184.625 131.94 186.985 131.91 184.725C131.87 181.558 131.836 178.388 131.81 175.215L133.81 176.215L139.01 178.905L141.42 179.315L169.3 184.055L200.37 189.345L201.31 221.345L201.62 231.805L201.77 236.885V237.215H201.78Z" fill="#69303A"/>
<path d="M283.48 272.775C216.632 324.246 123.391 323.834 57 271.775L105.66 248.965C107.977 247.875 110.201 246.598 112.31 245.145C112.95 244.705 113.59 244.245 114.2 243.765C137.75 260.525 169.89 271.095 197.69 258.585C204.31 255.585 210.39 250.745 213.99 244.525L283.48 272.775Z" fill="#F2A196"/>
<circle cx="120.78" cy="151.505" r="17" fill="#845161"/>
<circle cx="126.17" cy="151.325" r="15.22" fill="#69303A"/>
<path d="M125.84 135.275L132.19 192.135C132.35 193.605 143.1 198.025 144.38 198.705C158.78 206.475 173.58 216.705 189.98 219.545C196.98 220.735 204.31 220.685 210.98 218.235C222.75 213.885 224.44 205.075 228.59 194.745C232.33 185.437 235.3 175.838 237.47 166.045C238.47 161.515 239.63 156.805 239.79 152.155C239.98 146.635 238.79 140.215 234.89 136.105C233.98 135.155 233.02 134.015 233.2 132.605C234.82 120.305 237.31 106.395 232.08 94.6847C228.69 87.0747 223.08 80.6847 216.96 75.0047C216.96 75.0047 169.3 109.905 164.96 112.335C154.67 118.095 125.84 135.275 125.84 135.275Z" fill="#845161"/>
<path d="M205.78 141.775C207.348 145.319 209.314 148.674 211.64 151.775C213.55 154.095 215.85 155.555 215.88 158.955C215.94 163.895 211.29 166.765 206.72 166.535" stroke="#00214E"/>
<path d="M178.82 179.495C183.817 184.675 190.52 187.872 197.69 188.495" stroke="#00214E"/>
<path d="M158.22 124.025C167.407 121.792 176.916 121.197 186.31 122.265" stroke="#00214E"/>
<path d="M217.24 122.095C222.908 120.575 228.781 119.964 234.64 120.285" stroke="#00214E"/>
<path d="M190.56 160.975C189.082 161.784 188.419 163.554 189.003 165.135C189.587 166.716 191.24 167.63 192.89 167.285" stroke="#00214E"/>
<path d="M173.97 131.125C180.07 130.965 180.4 140.285 174.3 140.545H174.07C167.97 140.705 167.64 131.385 173.74 131.125H174.01H173.97Z" fill="#00214E"/>
<path d="M224.21 129.345C229.87 129.205 230.21 137.845 224.51 138.095H224.25C218.59 138.245 218.25 129.595 223.95 129.355H224.21V129.345Z" fill="#00214E"/>
<defs>
<linearGradient id="paint0_linear_3_4608" x1="100.863" y1="200.882" x2="268.854" y2="195.881" gradientUnits="userSpaceOnUse">
<stop stop-color="#315676"/>
<stop offset="1" stop-color="#E1B9E0"/>
</linearGradient>
</defs>
</svg>
