<svg width="340" height="340" viewBox="0 0 340 340" fill="none" xmlns="http://www.w3.org/2000/svg">
<path d="M191.49 243.762C172.792 242.01 154.246 238.898 136 234.452C99 225.232 63.22 208.952 35 183.312C59.9 157.312 73.47 142.312 93 112.052C107.48 89.6323 125.28 50.2123 152.13 40.0523C194.19 24.1223 251.01 39.6023 262.96 86.9223C268.02 106.922 268.21 127.842 265.34 148.182C264.05 157.352 254.77 246.872 249.44 246.792C230.11 246.462 210.73 245.672 191.49 243.762Z" fill="#F2D4CF"/>
<path d="M304.68 266.712C237.832 318.184 144.591 317.772 78.2 265.712L126.86 242.902C128.349 242.198 129.801 241.417 131.21 240.562L132.33 239.862C132.73 239.612 133.12 239.352 133.51 239.082C139.649 234.847 144.68 229.198 148.18 222.612C152.18 215.062 153.5 206.722 153.56 198.222C153.56 192.502 153.25 186.782 153.19 181.052C153.15 177.886 153.117 174.716 153.09 171.542L155.09 172.542L160.29 175.232L190.58 180.382L221.7 185.682L222.64 217.682L223.11 233.552L234.58 238.222L243.58 241.862L304.68 266.712Z" fill="#F2A196"/>
<path d="M222.52 209.572C219.8 211.252 217.23 212.042 214.98 211.802C200.19 210.212 171.34 198.622 153.18 177.172C153.18 176.119 153.16 175.069 153.12 174.022C153.08 170.849 153.047 167.679 153.02 164.512L155.02 165.512L160.22 168.202L190.49 173.342L221.61 178.642L222.52 209.572Z" fill="#E88870"/>
<circle cx="128.1" cy="139.532" r="17" fill="#F2A196"/>
<circle cx="134.1" cy="137.532" r="17" fill="#E88870"/>
<path d="M243.68 113.782C255.43 154.472 230.48 203.652 215.14 203.652C194.14 203.652 143.14 186.882 131.41 146.192C119.68 105.502 135.24 65.2723 166.24 56.3423C197.24 47.4123 231.9 73.1023 243.68 113.782Z" fill="#F2A196"/>
<circle cx="180.34" cy="126.722" r="15.16" fill="#00214E"/>
<circle cx="231.7" cy="124.282" r="15.16" fill="#00214E"/>
<path d="M212.34 59.3923C208.03 78.1023 198.64 93.9823 181.48 105.542C162.96 118.342 141.68 120.172 120.35 124.402C120.89 111.292 121.18 97.2523 127.94 85.5523C135.615 72.5746 146.82 62.0455 160.25 55.1923C175.06 47.5423 197.97 40.0423 214.6 45.3423C214.145 50.0688 213.39 54.7616 212.34 59.3923Z" fill="#F2D4CF"/>
<path d="M206.68 115.682C206.6 116.032 214.6 148.032 214.6 148.032H202.1" stroke="#00214E"/>
<path d="M218.14 105.472C225.209 101.883 233.38 101.122 240.99 103.342" stroke="#00214E"/>
<path d="M163.03 109.172C172.772 104.206 184.22 103.839 194.26 108.172" stroke="#00214E"/>
<path d="M192.6 127.612L218.14 125.432" stroke="#00214E"/>
<path d="M304.68 266.712C237.832 318.184 144.591 317.772 78.2 265.712L126.86 242.902C129.177 241.813 131.402 240.535 133.51 239.082C134.15 238.642 134.79 238.182 135.4 237.702C140.696 233.65 145.055 228.503 148.18 222.612C150.542 218.086 152.112 213.189 152.82 208.132C153.526 208.817 154.267 209.464 155.04 210.072C161.174 214.611 167.832 218.394 174.87 221.342C178.285 222.767 181.777 223.999 185.33 225.032C196.034 228.154 207.21 229.335 218.33 228.522C219.87 228.402 221.42 228.252 222.96 228.142L223.11 233.222V233.552L235.21 238.472L304.68 266.712Z" fill="#FF2609"/>
<path d="M180.68 159.342C180.955 158.901 181.402 158.594 181.913 158.497C182.424 158.4 182.953 158.522 183.37 158.832C185.44 160.302 189.24 163.392 194.64 164.472C202 165.932 208.39 162.992 209.91 164.892C210.77 165.962 209.72 167.262 207.71 168.942C203.456 172.116 198.103 173.443 192.86 172.622C185.77 171.302 180.46 163.092 180.46 160.192C180.455 159.894 180.531 159.601 180.68 159.342Z" fill="white"/>
</svg>
