<svg width="340" height="340" viewBox="0 0 340 340" fill="none" xmlns="http://www.w3.org/2000/svg">
<path d="M283.48 267.31C216.632 318.781 123.391 318.369 57 266.31L105.66 243.5C107.977 242.41 110.201 241.133 112.31 239.68C112.95 239.24 113.59 238.78 114.2 238.3C119.496 234.247 123.855 229.1 126.98 223.21C129.342 218.683 130.912 213.786 131.62 208.73C132.108 205.449 132.356 202.136 132.36 198.82C132.36 193.1 132.05 187.38 131.99 181.65C131.95 178.476 131.917 175.306 131.89 172.14L133.89 173.14L139.09 175.83L141.5 176.24L169.38 180.98L200.5 186.28L201.44 218.28L201.75 228.74L201.9 233.82V234.15L214 239.07L283.48 267.31Z" fill="#845161"/>
<path d="M283.48 267.31C216.632 318.781 123.391 318.369 57 266.31L105.66 243.5C107.977 242.41 110.201 241.133 112.31 239.68C112.95 239.24 113.59 238.78 114.2 238.3C137.75 255.06 169.89 265.63 197.69 253.12C204.31 250.12 210.39 245.28 213.99 239.06L283.48 267.31Z" fill="#FF2609"/>
<path d="M201.88 233.83C191.43 234.46 179.75 231.76 168.88 225.49C148.47 213.7 137.56 193.14 141.48 176.28L169.36 181.02L200.48 186.32L201.42 218.32L201.88 233.83Z" fill="#69303A"/>
<path d="M254.83 71.0095C257.358 76.327 258.722 82.1228 258.83 88.0095C259.05 109.19 246.68 129.66 232.83 144.85L232.53 145.18C221.94 156.3 205.22 158.9 191.3 163.65C186.3 165.37 132.08 180.77 132.08 184.13C132.08 183.4 126.77 178.13 120.08 171.72C107.872 160.139 99.634 144.999 96.5401 128.46C94.0001 114.52 96.1401 97.3095 100.23 83.7795C107.61 59.4295 128.23 43.6595 152.23 37.5695C175.48 31.6795 205.42 32.6695 227.09 43.6195C238.75 49.4895 249.33 59.1595 254.83 71.0095Z" fill="url(#paint0_linear_3_4605)"/>
<circle cx="122.05" cy="144.16" r="17" fill="#845161"/>
<circle cx="127.44" cy="144.16" r="15.22" fill="#69303A"/>
<path d="M127.67 128.11L129.99 158.31L131.5 178.03C132.06 185.3 134.89 189.65 139.62 195.46C148.029 205.765 158.735 213.957 170.88 219.38C182.48 224.55 198.56 229.69 210.94 224.68C223.59 219.55 227.63 205.35 231.88 193.57C236.13 181.79 240.09 168.83 239.88 156.11C239.61 138.85 235.04 129.18 235.04 129.18C236.153 122.513 237.26 115.866 238.36 109.24C239.62 101.73 241.23 93.8795 239.36 86.3295C237.23 77.6795 230.69 73.9895 225.31 67.5095C211.15 85.7495 187.87 96.0595 167.54 106.51C157.07 111.93 127.67 128.11 127.67 128.11Z" fill="#845161"/>
<path d="M205.55 132.81C206.019 136.384 206.85 139.902 208.03 143.31C209.17 146.31 210.65 148.12 212.66 150.64C213.347 151.469 213.956 152.359 214.48 153.3C217.25 158.64 214.37 164.92 208.2 165.3L204.39 165.52" stroke="#00214E"/>
<path d="M190.46 159.25C189.109 160.031 188.538 161.686 189.117 163.134C189.697 164.583 191.253 165.386 192.77 165.02" stroke="#00214E"/>
<path d="M156.14 121.41C165.397 119.49 174.919 119.219 184.27 120.61" stroke="#00214E"/>
<path d="M218.77 120.45C224.487 119.129 230.376 118.72 236.22 119.24" stroke="#00214E"/>
<path d="M165 181.31C168.698 175.222 173.966 170.242 180.25 166.89" stroke="#00214E"/>
<path d="M182.92 136.61C182.428 140.74 179.755 144.288 175.92 145.9C173.858 146.656 171.7 147.12 169.51 147.28" stroke="#00214E"/>
<path d="M184.28 104.22H215.88" stroke="#00214E"/>
<path d="M180.25 110.75H211.86" stroke="#00214E"/>
<path d="M215.74 134.31C216.698 136.858 217.954 139.285 219.48 141.54C220.981 143.613 223.21 145.041 225.72 145.54" stroke="#00214E"/>
<path d="M177.06 177.81C177.333 177.368 177.778 177.062 178.288 176.965C178.797 176.868 179.324 176.989 179.74 177.3C181.82 178.77 185.62 181.86 191.02 182.94C198.38 184.4 204.77 181.46 206.29 183.36C207.15 184.43 206.1 185.73 204.09 187.36C199.833 190.535 194.477 191.862 189.23 191.04C182.15 189.72 176.83 181.51 176.83 178.61C176.838 178.328 176.917 178.052 177.06 177.81Z" fill="white"/>
<path d="M173.21 131.14C179.31 131.07 179.5 140.39 173.4 140.56H173.14C167.04 140.63 166.86 131.3 172.96 131.13H173.23L173.21 131.14Z" fill="#00214E"/>
<path d="M223.45 129.5C229.11 129.44 229.28 138.09 223.62 138.25H223.37C217.7 138.32 217.54 129.66 223.2 129.51H223.45V129.5Z" fill="#00214E"/>
<defs>
<linearGradient id="paint0_linear_3_4605" x1="155.912" y1="240.504" x2="309.667" y2="104.868" gradientUnits="userSpaceOnUse">
<stop stop-color="#315676"/>
<stop offset="1" stop-color="#E1B9E0"/>
</linearGradient>
</defs>
</svg>
