<svg width="340" height="340" viewBox="0 0 340 340" fill="none" xmlns="http://www.w3.org/2000/svg">
<path d="M249.23 111.79C250.02 119.91 257.52 126.93 255.99 134.93C253.88 145.93 237.18 148.21 233.65 158.82C231.54 165.13 234.97 172.18 233.34 178.63C231.48 185.98 223.65 190.22 216.2 191.63C205.2 193.63 195.2 192.69 185.26 198.63C179.98 201.8 175.94 206.77 170.26 209.24C153.71 216.4 134.33 207.95 123.03 195.38C108.32 179 101.56 158.11 97.1998 136.94C96.4198 133.14 95.7031 129.336 95.0498 125.53C94.9598 125 94.8598 124.47 94.7598 123.94C92.9598 114.47 89.7598 104.04 88.3898 93.8396C88.2498 92.7996 88.1298 91.7596 88.0298 90.7196C86.9698 79.6496 88.4498 68.9996 96.6298 60.3296C104.704 51.9125 116.329 47.8839 127.88 49.4996C131.53 50.0396 135.18 51.1496 138.83 50.6596C145.01 49.8496 149.62 44.8196 153.98 40.3796C163.64 30.5596 177.19 21.6896 190.37 25.6796C195.48 27.2296 200.06 30.6296 205.37 31.0696L206.28 31.1196C212.47 31.2396 218.11 27.4496 223.65 24.4896C229.45 21.3896 236.94 19.2096 242.28 23.0496C251.93 29.9796 243.55 45.9996 248.35 56.8696C251.25 63.4396 258.75 67.3196 260.92 74.1596C264.98 86.9696 247.93 98.3196 249.23 111.79Z" fill="url(#paint0_linear_3_4606)"/>
<path d="M283.48 280.66C216.632 332.131 123.391 331.719 57 279.66L105.66 256.85C107.149 256.145 108.601 255.364 110.01 254.51L111.13 253.81C111.53 253.56 111.92 253.3 112.31 253.03C118.449 248.794 123.48 243.146 126.98 236.56C130.98 229.01 132.3 220.67 132.36 212.17C132.36 206.45 132.05 200.73 131.99 195C131.95 191.833 131.917 188.663 131.89 185.49L133.89 186.49L139.09 189.18L169.38 194.33L200.5 199.63L201.44 231.63L201.91 247.5L213.38 252.17L222.38 255.81L283.48 280.66Z" fill="#845161"/>
<path d="M201.42 231.61C191.36 233.396 181.011 232.587 171.35 229.26C149.77 222.01 135.24 204.52 133.87 186.5L139.07 189.19L169.36 194.34L200.48 199.64L201.42 231.61Z" fill="#69303A"/>
<path d="M283.48 280.66C216.632 332.131 123.391 331.719 57 279.66L105.66 256.85C107.149 256.145 108.601 255.364 110.01 254.51C133.69 271.92 166.65 283.26 195.07 270.51C203.13 266.89 210.4 260.46 213.36 252.2L222.36 255.84L283.48 280.66Z" fill="url(#paint1_linear_3_4606)"/>
<circle cx="108.83" cy="151.93" r="17" fill="#845161"/>
<circle cx="114.91" cy="150.19" r="17" fill="#69303A"/>
<path d="M193.07 219.67C172.07 218.78 121.85 199.87 111.83 158.73C109.719 150.159 108.777 141.343 109.03 132.52C109.03 130.79 109.18 129.07 109.32 127.38C111.8 99.1196 127.32 76.0496 150.45 70.3796C151.769 70.052 153.104 69.7917 154.45 69.5996C162.529 68.4412 170.77 69.3672 178.39 72.2896C188.204 76.1096 196.975 82.195 203.99 90.0496C206.948 93.2983 209.65 96.7721 212.07 100.44C218.238 109.804 222.726 120.173 225.33 131.08C235.37 172.21 208.37 220.31 193.07 219.67Z" fill="#845161"/>
<path d="M160.31 133.37C166.41 133.67 166.02 142.99 159.92 142.78H159.64C153.55 142.48 153.94 133.16 160.04 133.37H160.31Z" fill="#00214E"/>
<path d="M210.69 131.65C216.35 131.93 215.98 140.58 210.32 140.39H210.07C204.41 140.1 204.78 131.46 210.44 131.65H210.69Z" fill="#00214E"/>
<path d="M192.42 131.36C192.531 135.254 193.037 139.127 193.93 142.92C194.83 146.27 196.22 148.38 198.1 151.32C198.753 152.284 199.313 153.308 199.77 154.38C202.16 160.38 198.37 166.86 191.7 166.57L187.57 166.4" stroke="#00214E"/>
<path d="M163.18 176.55C167.753 182.118 174.192 185.838 181.3 187.02" stroke="#00214E"/>
<path d="M173.29 158.13C171.754 158.823 170.958 160.537 171.419 162.158C171.88 163.779 173.459 164.818 175.13 164.6" stroke="#00214E"/>
<path d="M197.66 119.28C204.871 115.982 213.067 115.557 220.58 118.09" stroke="#00214E"/>
<path d="M145.12 119.97C155.064 115.425 166.515 115.546 176.36 120.3" stroke="#00214E"/>
<path d="M219.97 79.7096C219.07 84.3096 215.88 88.2096 209.97 90.7096C204.86 92.8896 199.27 93.5896 193.89 94.9696C186.18 96.9696 181.64 102.77 174.44 105.06C168.28 107.06 161.7 106.75 155.21 106.98C152.22 107.032 149.24 107.333 146.3 107.88C141.636 108.928 137.137 110.61 132.93 112.88C126.808 116.125 121.017 119.96 115.64 124.33C113.04 126.43 109.93 129.05 109.23 132.49C108.99 133.67 108.92 135.05 107.98 135.81C107.384 136.207 106.695 136.442 105.98 136.49C103.07 136.94 100.06 137.49 97.6898 139.3C96.1798 135.03 95.8098 129.93 95.0498 125.47C94.9598 124.94 94.8598 124.41 94.7598 123.88C92.9598 114.41 89.7598 103.98 88.3898 93.7796C88.2498 92.7396 88.1298 91.6996 88.0298 90.6596C86.9698 79.5896 88.4498 68.9396 96.6298 60.2696C104.704 51.8525 116.329 47.8239 127.88 49.4396C131.53 49.9796 135.18 51.0896 138.83 50.5996L139.34 50.5196C145.27 49.5196 149.74 44.6396 153.98 40.3196C163.64 30.4996 177.19 21.6296 190.37 25.6196C195.48 27.1696 200.06 30.5696 205.37 31.0096C208.51 31.2696 206.85 37.0596 206.64 39.3496C206.11 45.1596 205.76 48.4396 209.06 53.6996C211.66 57.8196 214.73 61.6396 217.06 65.8996C219.71 70.7896 220.79 75.5296 219.97 79.7096Z" fill="url(#paint2_linear_3_4606)"/>
<defs>
<linearGradient id="paint0_linear_3_4606" x1="87.6998" y1="211.818" x2="261.53" y2="211.818" gradientUnits="userSpaceOnUse">
<stop stop-color="#315676"/>
<stop offset="1" stop-color="#E1B9E0"/>
</linearGradient>
<linearGradient id="paint1_linear_3_4606" x1="57" y1="318.953" x2="283.48" y2="318.953" gradientUnits="userSpaceOnUse">
<stop stop-color="#16243F"/>
<stop offset="1" stop-color="#6878B1"/>
</linearGradient>
<linearGradient id="paint2_linear_3_4606" x1="73.7635" y1="172.992" x2="241.331" y2="127.816" gradientUnits="userSpaceOnUse">
<stop stop-color="#315676"/>
<stop offset="0.98" stop-color="#E1B9E0"/>
</linearGradient>
</defs>
</svg>
