<svg width="340" height="340" viewBox="0 0 340 340" fill="none" xmlns="http://www.w3.org/2000/svg">
<path d="M265.55 111.94C265.55 119.81 256.65 126.41 254.71 133.67C252.71 141.19 257.05 151.34 253.25 157.92C249.45 164.5 238.38 165.92 232.97 171.29C227.56 176.66 226.26 187.71 219.59 191.57C212.92 195.43 202.86 191.03 195.35 193.04C188.09 194.98 181.49 203.88 173.61 203.88C165.73 203.88 159.14 194.98 151.88 193.04C144.37 191.04 134.21 195.38 127.64 191.57C121.07 187.76 119.64 176.71 114.26 171.29C108.88 165.87 97.8402 164.59 93.9802 157.92C90.1202 151.25 94.5202 141.19 92.5202 133.67C90.5802 126.41 81.6802 119.81 81.6802 111.94C81.6802 104.07 90.5802 97.47 92.5202 90.21C94.5202 82.69 90.1802 72.54 93.9802 65.96C97.7802 59.38 108.85 57.96 114.26 52.59C119.67 47.22 120.96 36.17 127.64 32.31C134.32 28.45 144.37 32.85 151.88 30.84C159.14 28.9 165.74 20 173.61 20C181.48 20 188.09 28.9 195.35 30.84C202.86 32.84 213.01 28.5 219.59 32.31C226.17 36.12 227.59 47.17 232.97 52.59C238.35 58.01 249.39 59.29 253.25 65.96C257.11 72.63 252.7 82.69 254.71 90.21C256.65 97.47 265.55 104.07 265.55 111.94Z" fill="#00214E"/>
<circle cx="121.89" cy="157.66" r="17" fill="#E18477"/>
<circle cx="127.75" cy="156.66" r="16" fill="#A76962"/>
<path d="M283.48 280.84C216.632 332.311 123.391 331.9 57 279.84L105.66 257.03C107.977 255.941 110.201 254.663 112.31 253.21C112.95 252.77 113.59 252.31 114.2 251.83C119.496 247.778 123.855 242.631 126.98 236.74C130.98 229.19 132.3 220.85 132.36 212.35C132.36 206.63 132.05 200.91 131.99 195.18C131.95 192.013 131.917 188.843 131.89 185.67L133.89 186.67L139.07 189.41L141.48 189.82L169.36 194.56L200.48 199.86L201.42 231.86L201.88 247.4V247.73L213.98 252.65L283.48 280.84Z" fill="#E18477"/>
<path d="M201.76 243.79L200.22 243.95C185.17 245.269 170.301 239.913 159.55 229.3L132.17 196.79C132.08 193.89 131.97 196.79 131.94 193.88C131.9 190.713 131.867 187.543 131.84 184.37L133.84 185.37L139.04 188.06L141.45 188.47L169.33 193.21L200.45 198.51L201.39 230.51L201.76 243.79Z" fill="#A76962"/>
<path d="M127 123.06C126.21 124.06 125.51 126.01 124.76 129.17C123.03 136.5 130.61 184.63 132.06 198.79L168.48 225.65C180.584 234.687 196.044 237.955 210.77 234.59C216.64 233.2 220.36 232.3 223.01 227.59C228.13 218.59 240.7 187.8 241.52 166.08C241.75 159.92 241.6 150.52 237.8 145.26C235.95 142.71 235 142.66 235.67 139.05C236.34 135.44 237.35 131.58 238.18 127.84C240.47 117.51 242.3 105.84 238.99 95.56C237.23 90.06 234.12 86.42 229.7 82.89C224.98 79.11 223.03 79.29 220.2 84.89C218.29 88.69 216.37 91.89 212.5 94.05C206.89 97.16 203.07 95.14 197.5 94.71C192.62 94.34 193.14 98.11 192.07 101.71C190.962 105.489 188.567 108.761 185.3 110.96C179.227 114.9 171.416 114.943 165.3 111.07C164.47 110.475 163.471 110.163 162.45 110.18C159.11 110.36 158.96 114.37 158.2 117.25C156.59 123.25 149.58 126.57 143.35 126.09C133.19 125.33 129.57 119.67 127 123.06Z" fill="#E18477"/>
<path d="M207.26 140.95C207.535 144.835 208.205 148.681 209.26 152.43C210.26 155.74 211.78 157.8 213.78 160.65C214.471 161.591 215.07 162.595 215.57 163.65C218.21 169.59 214.7 176.18 208.02 176.18H203.89" stroke="#00214E"/>
<path d="M178.23 185.98C183.038 191.342 189.623 194.784 196.77 195.67" stroke="#00214E"/>
<path d="M159.56 129.83C168.818 127.919 178.34 127.651 187.69 129.04" stroke="#00214E"/>
<path d="M218.61 129.94C224.328 128.607 230.223 128.199 236.07 128.73" stroke="#00214E"/>
<path d="M283.48 280.84C216.632 332.311 123.391 331.9 57 279.84L105.66 257.03C107.977 255.941 110.201 254.663 112.31 253.21C112.95 252.77 113.59 252.31 114.2 251.83C137.75 268.59 169.89 279.16 197.69 266.65C204.31 263.65 210.39 258.81 213.99 252.59L283.48 280.84Z" fill="url(#paint0_linear_3_4615)"/>
<path d="M190.56 169.14C189.081 169.914 188.379 171.645 188.903 173.23C189.426 174.816 191.021 175.789 192.67 175.53" stroke="#00214E"/>
<path d="M174.24 139.34C180.35 139.34 180.35 148.72 174.24 148.77H173.97C167.87 148.72 167.87 139.39 173.97 139.34H174.24Z" fill="#00214E"/>
<path d="M224.51 138.68C230.17 138.68 230.17 147.38 224.51 147.43H224.25C218.59 147.38 218.59 138.73 224.25 138.68H224.51Z" fill="#00214E"/>
<defs>
<linearGradient id="paint0_linear_3_4615" x1="57" y1="319.158" x2="283.48" y2="319.158" gradientUnits="userSpaceOnUse">
<stop stop-color="#315676"/>
<stop offset="1" stop-color="#E1B9E0"/>
</linearGradient>
</defs>
</svg>
