<svg width="340" height="340" viewBox="0 0 340 340" fill="none" xmlns="http://www.w3.org/2000/svg">
<path d="M283.48 278.333C216.632 329.804 123.391 329.393 57 277.333L105.66 254.523C107.977 253.434 110.201 252.156 112.31 250.703C112.95 250.263 113.59 249.803 114.2 249.323C119.496 245.271 123.855 240.124 126.98 234.233C129.342 229.707 130.912 224.809 131.62 219.753C132.108 216.472 132.356 213.16 132.36 209.843C132.36 204.123 132.05 198.403 131.99 192.673C131.95 189.506 131.917 186.336 131.89 183.163L133.89 184.163L139.09 186.853L141.5 187.263L169.38 192.003L200.5 197.303L201.44 229.303L201.75 239.763L201.9 244.843V245.153L214 250.073L283.48 278.333Z" fill="#F2A196"/>
<path d="M201.78 242.783C198.343 243.374 194.807 242.827 191.71 241.223L132.07 192.443C132 190.183 131.94 192.553 131.91 190.293C131.87 187.126 131.837 183.956 131.81 180.783L133.81 181.783L139.01 184.473L141.42 184.883L169.3 189.623L200.42 194.923L201.36 226.923L201.67 237.383L201.82 242.463V242.793L201.78 242.783Z" fill="#E88870"/>
<path d="M283.48 278.333C216.632 329.804 123.391 329.393 57 277.333L105.66 254.523C107.977 253.434 110.201 252.156 112.31 250.703C112.95 250.263 113.59 249.803 114.2 249.323C137.75 266.083 169.89 276.653 197.69 264.143C204.31 261.143 210.39 256.303 213.99 250.083L283.48 278.333Z" fill="#FF2609"/>
<path d="M265.58 78.053C265.49 78.643 265.38 79.223 265.25 79.803C264.556 82.776 263.442 85.6349 261.94 88.293L261.86 88.433C261.29 89.433 260.68 90.433 260.02 91.433C258.269 94.0001 256.358 96.455 254.3 98.783L253.07 100.153C252.24 101.083 251.4 101.993 250.56 102.893C251.194 102.757 251.845 102.72 252.49 102.783C252.73 102.803 252.967 102.843 253.2 102.903C256.39 103.563 259.12 106.533 259.97 109.903C260.02 110.123 260.07 110.353 260.11 110.573C260.9 115.053 259.11 119.573 256.9 123.573C253.03 130.653 247.45 135.363 242.54 141.513C238.86 146.093 236.82 151.513 232.81 155.893L232.51 156.223L232.27 156.463C221.67 167.383 205.1 169.973 191.27 174.693C186.27 176.413 132.05 191.813 132.05 195.173C132.05 194.443 126.74 189.173 120.05 182.763C96.05 159.973 88.16 124.763 102.44 94.563C117.79 62.063 152.65 38.873 185.85 27.733C196.23 24.253 208.01 21.913 217.85 26.733C227.69 31.553 232.59 46.503 224.43 53.803C229.562 49.9199 235.946 48.065 242.36 48.593C248.284 48.9641 253.871 51.4769 258.08 55.663C260.431 58.0198 262.324 60.7937 263.66 63.843C264.21 65.1083 264.668 66.4117 265.03 67.743C265.93 71.1036 266.118 74.6156 265.58 78.053Z" fill="#F2D4CF"/>
<path d="M265.58 78.0529C265.49 78.6429 265.38 79.2229 265.25 79.8029C264.556 82.776 263.442 85.6349 261.94 88.2929L261.86 88.4329C261.29 89.4329 260.68 90.4329 260.02 91.4329C258.269 94.0001 256.359 96.4549 254.3 98.7829L253.07 100.153C252.24 101.083 251.4 101.993 250.56 102.893C251.194 102.757 251.845 102.72 252.49 102.783C252.73 102.803 252.967 102.843 253.2 102.903C256.39 103.563 259.12 106.533 259.97 109.903C260.02 110.123 260.07 110.353 260.11 110.573C260.9 115.053 259.11 119.573 256.9 123.573C253.03 130.653 247.45 135.363 242.54 141.513C238.86 146.093 236.82 151.513 232.81 155.893L232.51 156.223L232.27 156.463C228.249 151.053 225.687 144.699 224.83 138.013C223.12 124.173 224.16 109.093 223.69 95.0829C223.53 90.1929 223.24 84.3629 224.81 79.7229C225.239 78.5743 225.814 77.4855 226.52 76.4829C228.36 73.5143 230.458 70.7135 232.79 68.1129C235.434 65.298 238.773 63.2286 242.47 62.1129C244.466 61.5456 246.512 61.1706 248.58 60.9929C250.791 60.7762 253.019 60.8198 255.22 61.1229C258.156 61.542 260.993 62.4799 263.6 63.8929C264.15 65.1583 264.608 66.4616 264.97 67.7929C265.884 71.1335 266.091 74.6277 265.58 78.0529Z" fill="#DAAEA8"/>
<circle cx="122.05" cy="155.153" r="17" fill="#F2A196"/>
<circle cx="127.45" cy="155.153" r="15.22" fill="#E88870"/>
<path d="M127.67 139.153L132.07 196.153L198.51 234.973C208.032 238.53 218.699 234.282 223.17 225.153C232.73 205.573 248.07 174.663 246.05 163.153C243.05 146.153 235.05 140.153 235.05 140.153L238.38 120.213C239.63 112.703 241.24 104.863 239.38 97.313C237.25 88.663 230.71 84.963 225.33 78.493C211.17 96.733 187.89 107.043 167.56 117.493C157.07 122.933 127.67 139.153 127.67 139.153Z" fill="#F2A196"/>
<path d="M202.2 134.253C202.12 134.593 215.56 170.373 215.56 170.373L197.62 171.253" stroke="#00214E"/>
<path d="M159.72 127.323C168.978 125.411 178.5 125.144 187.85 126.533" stroke="#00214E"/>
<path d="M218.77 127.433C224.487 126.112 230.376 125.704 236.22 126.223" stroke="#00214E"/>
<path d="M179.24 181.253C179.516 180.816 179.962 180.513 180.471 180.419C180.979 180.324 181.505 180.445 181.92 180.753C184 182.213 187.8 185.313 193.2 186.383C200.56 187.853 206.94 184.903 208.47 186.803C209.33 187.873 208.28 189.183 206.27 190.803C202.017 193.987 196.658 195.318 191.41 194.493C184.33 193.163 179.01 184.963 179.01 182.053C179.018 181.771 179.097 181.496 179.24 181.253Z" fill="white"/>
<path d="M176.6 138.793C182.7 138.843 182.7 148.163 176.6 148.213H176.32C170.22 148.163 170.22 138.843 176.32 138.793H176.6Z" fill="#00214E"/>
<path d="M226.86 138.153C232.52 138.153 232.52 146.853 226.86 146.893H226.61C220.94 146.893 220.94 138.193 226.61 138.153H226.86Z" fill="#00214E"/>
</svg>
