<svg width="340" height="340" viewBox="0 0 340 340" fill="none" xmlns="http://www.w3.org/2000/svg">
<path fill-rule="evenodd" clip-rule="evenodd" d="M245.039 121.121C244.964 127.208 244.892 133.046 245.13 138.321C246.49 168.441 247.053 198.568 246.82 228.701C228.294 233.066 205.905 233.048 185.894 233.032C182.843 233.03 179.848 233.028 176.93 233.041C133.87 233.251 93.18 224.961 53 210.381C59.5567 175.036 68.8855 140.262 80.9 106.381C82.44 102.041 84.15 97.5909 86.08 93.1409C94.78 72.9509 107.65 52.7109 127.08 42.3109C129.38 41.0761 131.758 39.9938 134.2 39.0709C168.4 26.1209 214.22 33.4609 235.79 65.2209C245.551 79.5913 245.279 101.637 245.039 121.121ZM149.94 111.681L154.71 113.071L212.74 86.1909C206.871 83.2426 197.977 78.5863 187.39 73.0433C186.378 72.5137 185.351 71.976 184.31 71.4309C179.251 86.3015 169.404 99.0748 156.31 107.751C154.258 109.173 152.132 110.485 149.94 111.681Z" fill="#845161"/>
<path d="M286.92 268.611C220.072 320.082 126.831 319.671 60.4399 267.611L109.1 244.791C110.589 244.087 112.041 243.306 113.45 242.451L114.57 241.751C114.97 241.501 115.36 241.241 115.75 240.971C121.889 236.736 126.92 231.087 130.42 224.501C134.42 216.951 135.74 208.611 135.8 200.111C135.8 194.391 135.49 188.671 135.43 182.941C135.39 179.768 135.357 176.598 135.33 173.431L137.33 174.431L142.53 177.121L172.79 182.291L203.91 187.591L204.85 219.591L205.32 235.461L216.79 240.101L225.79 243.741L286.92 268.611Z" fill="#F2D4CF"/>
<path d="M204.86 219.561C194.8 221.347 184.451 220.538 174.79 217.211C153.21 209.961 138.68 192.471 137.31 174.451L142.51 177.141L172.79 182.291L203.91 187.591L204.86 219.561Z" fill="#DAAEA8"/>
<circle cx="106.33" cy="141.431" r="17" fill="#F2D4CF"/>
<circle cx="112.33" cy="139.431" r="17" fill="#DAAEA8"/>
<path d="M229.24 114.641C241.7 157.791 217.45 207.891 198.98 209.951C154.35 214.951 122.64 192.161 110.18 149.011C97.72 105.861 114.28 63.2009 147.18 53.7109C180.08 44.2209 216.79 71.5009 229.24 114.641Z" fill="#F2D4CF"/>
<path d="M189.43 47.5509C188.967 52.277 188.209 56.9696 187.16 61.6009C186.398 64.9291 185.446 68.2111 184.31 71.4309C179.251 86.3015 169.404 99.0748 156.31 107.751C154.258 109.173 152.132 110.485 149.94 111.681C132.99 121.011 114.1 122.861 95.1799 126.601C95.5899 116.741 95.8499 106.361 98.8299 96.8509C99.8073 93.6925 101.136 90.6535 102.79 87.7909C110.462 74.8111 121.668 64.2814 135.1 57.4309C138.927 55.4601 142.86 53.7008 146.88 52.1609C160.45 46.9009 176.79 43.5109 189.43 47.5509Z" fill="#845161"/>
<path d="M200.36 109.371C207.429 105.772 215.602 105 223.22 107.211" stroke="#00214E"/>
<path d="M286.92 268.611C220.072 320.082 126.831 319.67 60.4399 267.611L109.1 244.791C111.417 243.701 113.641 242.424 115.75 240.971C116.39 240.531 117.03 240.071 117.64 239.591C122.936 235.539 127.295 230.392 130.42 224.501C132.782 219.975 134.352 215.077 135.06 210.021C135.766 210.705 136.507 211.353 137.28 211.961C143.411 216.495 150.066 220.275 157.1 223.221C160.515 224.645 164.007 225.877 167.56 226.911C178.264 230.032 189.44 231.214 200.56 230.401C202.1 230.281 203.65 230.131 205.19 230.021L205.34 235.101V235.431L217.44 240.351L286.92 268.611Z" fill="#E18477"/>
<path d="M160.09 139.411C162.887 139.591 165.637 138.628 167.71 136.743C169.784 134.858 171.004 132.212 171.09 129.411" stroke="#00214E"/>
<path d="M202.79 127.411C202.848 130.041 204.053 132.515 206.09 134.181C208.105 135.835 210.352 137.183 212.76 138.181" stroke="#00214E"/>
<path d="M151.85 169.671C153.097 167.58 154.636 165.678 156.42 164.021C160.092 160.656 164.698 158.484 169.63 157.791" stroke="#00214E"/>
<path d="M177.57 90.1909H201.24" stroke="#00214E"/>
<path d="M171.79 98.0109H201.24" stroke="#00214E"/>
<path d="M200.06 149.421C200.53 150.161 200.96 150.931 201.36 151.721C201.807 152.468 202.109 153.292 202.25 154.151C202.277 154.772 202.022 155.372 201.556 155.783C201.09 156.195 200.463 156.374 199.85 156.271C199.22 156.141 198.95 157.101 199.58 157.271C200.388 157.429 201.225 157.26 201.908 156.801C202.591 156.341 203.063 155.629 203.22 154.821C203.285 153.79 203.041 152.763 202.52 151.871C202.05 150.861 201.516 149.882 200.92 148.941C200.58 148.401 199.71 148.941 200.06 149.451V149.421Z" fill="#00214E"/>
<path d="M183.34 150.581C182.49 151.951 181.49 153.641 181.97 155.321C182.37 156.681 183.81 157.941 185.28 157.401C185.88 157.191 185.63 156.221 185.02 156.401C184.02 156.781 183.02 155.721 182.88 154.761C182.66 153.431 183.54 152.111 184.21 151.051C184.55 150.501 183.69 150.001 183.34 150.541V150.581Z" fill="#00214E"/>
<path d="M162.92 168.431C163.196 167.994 163.642 167.691 164.151 167.597C164.659 167.502 165.184 167.623 165.6 167.931C167.68 169.391 171.48 172.491 176.88 173.561C184.24 175.031 190.62 172.091 192.15 173.981C193.01 175.051 191.96 176.361 189.95 178.031C185.697 181.215 180.338 182.546 175.09 181.721C168.01 180.391 162.69 172.191 162.69 169.291C162.69 168.989 162.769 168.692 162.92 168.431Z" fill="white"/>
<path d="M184.31 71.4309C179.251 86.3015 169.404 99.0748 156.31 107.751C154.258 109.173 152.132 110.485 149.94 111.681L102.79 97.9909L98.79 96.8509L86.05 93.1409C94.75 72.9509 107.62 52.7109 127.05 42.3109L133.44 45.4609C137.89 47.6509 142.37 49.8809 146.82 52.1309C160.07 58.7909 173.04 65.5409 184.31 71.4309Z" fill="url(#paint0_linear_3_4590)"/>
<path d="M145.26 113.071C154.999 108.109 166.443 107.742 176.48 112.071" stroke="#00214E"/>
<ellipse cx="159.382" cy="125.253" rx="3.278" ry="7.95943" transform="rotate(-85.9958 159.382 125.253)" fill="#00214E"/>
<ellipse cx="215.598" cy="125.277" rx="7.94" ry="3.27" transform="rotate(-8.86 215.598 125.277)" fill="#00214E"/>
<defs>
<linearGradient id="paint0_linear_3_4590" x1="176.314" y1="138.808" x2="194.739" y2="51.0995" gradientUnits="userSpaceOnUse">
<stop offset="0.29" stop-color="#845161"/>
<stop offset="0.52" stop-color="#AD8390"/>
<stop offset="0.8" stop-color="#845161"/>
</linearGradient>
</defs>
</svg>
