<svg width="340" height="340" viewBox="0 0 340 340" fill="none" xmlns="http://www.w3.org/2000/svg">
<path d="M185.864 217.699C175.464 217.519 165.054 217.019 154.244 216.359C140.774 215.529 124.404 218.859 111.544 213.699C99.0641 208.699 91.1141 200.769 82.9141 190.699C78.6441 185.489 72.0541 182.839 65.6641 180.699C59.2741 178.559 52.6041 176.589 47.4641 172.229C42.3241 167.869 39.1941 160.299 42.1341 154.229C49.3641 139.319 72.8841 144.299 72.9341 121.799C72.9341 114.149 69.5241 105.579 74.0641 99.4194C75.6037 97.5553 77.4838 96.0011 79.6041 94.8394C89.9041 88.4894 103.184 89.1094 113.404 82.8394C124.944 75.6994 122.544 62.1894 132.824 52.7694C136.257 49.7776 139.968 47.119 143.904 44.8294C170.824 28.1694 198.654 29.7294 226.234 45.5994C240.984 54.1094 253.794 69.3694 259.824 85.2094C266.514 102.849 253.314 122.459 264.424 137.799C266.944 141.279 270.284 144.099 273.014 147.419C284.454 161.319 266.844 169.879 259.624 179.319C253.834 186.909 254.724 198.009 249.164 205.769C242.714 214.769 230.164 216.279 219.074 216.969C207.684 217.719 196.774 217.889 185.864 217.699Z" fill="#845161"/>
<path d="M299.974 269.419C233.126 320.891 139.885 320.479 73.4941 268.419L122.154 245.609C123.644 244.905 125.096 244.124 126.504 243.269L127.624 242.569C128.024 242.319 128.414 242.059 128.804 241.789C134.943 237.554 139.974 231.906 143.474 225.319C147.474 217.769 148.794 209.429 148.854 200.929C148.854 196.259 148.664 191.589 148.544 186.929C148.544 185.876 148.524 184.826 148.484 183.779C148.444 180.613 148.411 177.443 148.384 174.269L150.384 175.269L155.584 177.959L185.874 183.109L216.994 188.409L217.904 219.309V220.379L218.374 236.249L229.844 240.919L238.844 244.559L299.974 269.419Z" fill="#F2A196"/>
<path d="M217.884 212.299C215.164 213.979 212.594 214.769 210.344 214.529C195.554 212.939 166.704 201.349 148.544 179.899C148.544 178.846 148.524 177.796 148.484 176.749C148.444 173.583 148.411 170.413 148.384 167.239L150.384 168.239L155.584 170.929L185.874 176.079L216.994 181.379L217.884 212.299Z" fill="#E88870"/>
<circle cx="123.384" cy="142.239" r="17" fill="#F2A196"/>
<circle cx="129.384" cy="140.239" r="17" fill="#E88870"/>
<path d="M238.924 116.499C250.664 157.189 225.714 206.369 210.384 206.369C189.384 206.369 138.384 189.589 126.654 148.909C114.924 108.229 130.514 67.9894 161.514 59.0394C192.514 50.0894 227.174 75.8194 238.924 116.499Z" fill="#F2A196"/>
<path d="M175.764 124.949C181.864 124.949 181.864 134.329 175.764 134.369H175.484C169.384 134.369 169.384 124.999 175.484 124.949H175.764Z" fill="#00214E"/>
<path d="M226.024 121.109C231.684 121.109 231.684 129.809 226.024 129.859H225.764C220.104 129.809 220.104 121.159 225.764 121.109H226.024Z" fill="#00214E"/>
<circle cx="175.744" cy="129.739" r="19" stroke="white"/>
<circle cx="228.884" cy="126.739" r="19" stroke="white"/>
<path d="M200.214 62.4094C195.914 81.1194 186.524 96.9994 169.354 108.559C150.844 121.379 131.284 127.559 109.964 131.819C110.504 118.709 109.064 100.269 115.824 88.5694C123.496 75.5895 134.702 65.0598 148.134 58.2094C162.934 50.5594 185.844 43.0594 202.484 48.3694C202.025 53.0927 201.267 57.7822 200.214 62.4094Z" fill="#845161"/>
<path d="M201.964 118.399C201.884 118.739 209.884 150.739 209.884 150.739H197.384" stroke="#00214E"/>
<path d="M213.424 108.209C220.495 104.583 228.686 103.803 236.314 106.029" stroke="#00214E"/>
<path d="M158.314 111.879C168.052 106.913 179.498 106.546 189.534 110.879" stroke="#00214E"/>
<path d="M194.744 129.739L209.884 128.449" stroke="white"/>
<path d="M299.974 269.419C233.126 320.891 139.885 320.479 73.4941 268.419L122.154 245.609C124.472 244.52 126.696 243.242 128.804 241.789C129.444 241.349 130.084 240.889 130.694 240.409C135.99 236.357 140.349 231.21 143.474 225.319C145.837 220.793 147.406 215.896 148.114 210.839C148.82 211.524 149.561 212.171 150.334 212.779C156.466 217.313 163.12 221.094 170.154 224.039C173.569 225.464 177.061 226.696 180.614 227.729C191.318 230.851 202.494 232.033 213.614 231.219C215.154 231.099 216.704 230.949 218.244 230.839L218.394 235.919V236.209L230.494 241.129L299.974 269.419Z" fill="url(#paint0_linear_3_4571)"/>
<path d="M175.974 162.029C176.251 161.592 176.697 161.29 177.205 161.195C177.714 161.1 178.239 161.221 178.654 161.529C180.734 162.989 184.534 166.089 189.934 167.169C197.294 168.629 203.674 165.689 205.204 167.579C206.064 168.649 205.014 169.959 203.004 171.579C198.751 174.764 193.392 176.095 188.144 175.269C181.064 173.939 175.744 165.739 175.744 162.839C175.753 162.554 175.832 162.276 175.974 162.029Z" fill="white"/>
<defs>
<linearGradient id="paint0_linear_3_4571" x1="73.4941" y1="307.742" x2="299.974" y2="307.742" gradientUnits="userSpaceOnUse">
<stop stop-color="#16243F"/>
<stop offset="1" stop-color="#6878B1"/>
</linearGradient>
</defs>
</svg>
