<svg width="340" height="340" viewBox="0 0 340 340" fill="none" xmlns="http://www.w3.org/2000/svg">
<path d="M283.48 269.245C216.632 320.716 123.391 320.304 57 268.245L105.66 245.435C107.977 244.345 110.201 243.068 112.31 241.615C112.95 241.175 113.59 240.715 114.2 240.235C119.496 236.183 123.855 231.035 126.98 225.145C129.348 220.603 130.917 215.688 131.62 210.615C132.108 207.334 132.356 204.022 132.36 200.705C132.36 194.985 132.05 189.265 131.99 183.535C131.95 180.361 131.917 177.191 131.89 174.025L133.89 175.025L139.09 177.715L141.5 178.125L169.38 182.865L200.5 188.165L201.44 220.165L201.75 230.625L201.9 235.705V236.035L214 240.955L283.48 269.245Z" fill="#F2A196"/>
<path d="M283.48 269.245C216.632 320.716 123.391 320.304 57 268.245L105.66 245.435C107.977 244.345 110.201 243.068 112.31 241.615C112.95 241.175 113.59 240.715 114.2 240.235C137.75 256.995 169.89 267.565 197.69 255.055C204.31 252.055 210.39 247.215 213.99 240.995L283.48 269.245Z" fill="url(#paint0_linear_3_4602)"/>
<path d="M201.88 235.735C191.43 236.365 180.88 228.255 169.98 221.985C149.57 210.195 137.56 195.045 141.48 178.185L169.36 182.925L200.48 188.225L201.42 220.225L201.88 235.735Z" fill="#E88870"/>
<path d="M249.82 75.0747C254.96 95.0747 246.59 113.775 238.52 132.075C228.31 155.205 213.65 157.955 191.27 165.595C186.27 167.315 132.05 182.715 132.05 186.075C132.05 185.345 126.74 180.075 120.05 173.665C96.0498 150.875 88.1598 115.665 102.44 85.4647C121.44 45.3547 178.06 38.1847 216.92 47.9347C230.32 51.2947 243.4 56.5947 248.43 70.4847C248.95 72.0247 249.42 73.5547 249.82 75.0747Z" fill="#00214E"/>
<circle cx="122.05" cy="146.065" r="17" fill="#F2A196"/>
<circle cx="127.45" cy="146.065" r="15.22" fill="#E88870"/>
<path d="M127.67 130.025L132.05 187.025L198.49 225.845C208.028 229.408 218.712 225.139 223.17 215.985C232.73 196.405 248.07 165.495 246.05 153.985C243.05 136.985 235.05 130.985 235.05 130.985L238.38 111.045C239.63 103.535 241.24 95.6947 239.38 88.1447C237.25 79.4947 230.71 75.7947 225.33 69.3247C211.17 87.5647 187.89 97.8747 167.56 108.325C157.07 113.845 127.67 130.025 127.67 130.025Z" fill="#F2A196"/>
<path d="M202.2 125.165C202.12 125.505 215.56 161.285 215.56 161.285L197.62 162.165" stroke="#00214E"/>
<path d="M159.72 118.235C168.977 116.323 178.499 116.056 187.85 117.445" stroke="#00214E"/>
<path d="M218.77 118.345C224.486 117.024 230.375 116.615 236.22 117.135" stroke="#00214E"/>
<path d="M179.24 172.165C179.516 171.727 179.962 171.425 180.471 171.33C180.979 171.235 181.504 171.357 181.92 171.665C184 173.125 187.8 176.225 193.2 177.295C200.56 178.765 206.94 175.815 208.47 177.715C209.33 178.785 208.28 180.095 206.27 181.765C202.017 184.949 196.658 186.28 191.41 185.455C184.33 184.125 179.01 175.925 179.01 173.015C179.009 172.716 179.089 172.423 179.24 172.165Z" fill="white"/>
<path d="M176.07 128.135C182.18 128.135 182.18 137.515 176.07 137.565H175.8C169.7 137.565 169.7 128.185 175.8 128.135H176.07Z" fill="#00214E"/>
<path d="M226.24 126.745C231.9 126.795 231.9 135.445 226.24 135.495H225.99C220.32 135.495 220.32 126.795 225.99 126.745H226.24Z" fill="#00214E"/>
<path d="M226.07 50.9147C205.043 51.315 184.135 54.1676 163.77 59.4147C143.317 64.4017 123.517 71.7581 104.77 81.3347C109.23 60.7047 129.66 41.6647 157.51 34.6747C185.36 27.6847 212.35 34.8447 226.07 50.9147Z" fill="#845161"/>
<defs>
<linearGradient id="paint0_linear_3_4602" x1="57" y1="307.563" x2="283.48" y2="307.563" gradientUnits="userSpaceOnUse">
<stop stop-color="#16243F"/>
<stop offset="1" stop-color="#6878B1"/>
</linearGradient>
</defs>
</svg>
