<svg width="340" height="340" viewBox="0 0 340 340" fill="none" xmlns="http://www.w3.org/2000/svg">
<path d="M205.567 41.1911C193.567 37.1911 180.717 33.9111 168.027 35.3411C147.896 37.6522 128.732 45.2417 112.477 57.3411C80.5873 81.1211 72.3873 124.121 59.0673 159.651C54.0673 172.981 49.0673 186.441 46.8973 200.521C40.5773 242.291 68.4673 257.351 104.617 267.611C150.167 280.541 200.017 276.681 244.427 261.081C282.257 247.791 297.427 215.751 289.427 177.481C285.427 158.601 277.887 140.681 270.287 122.931C255.827 89.2511 242.157 53.5411 205.567 41.1911Z" fill="#00214E"/>
<path d="M294.857 267.271C228.007 318.735 134.771 318.324 68.3773 266.271L117.037 243.461C118.527 242.757 119.979 241.976 121.387 241.121L122.507 240.421C122.907 240.171 123.297 239.911 123.687 239.641C129.832 235.392 134.864 229.726 138.357 223.121C142.357 215.571 143.677 207.241 143.737 198.741C143.737 193.011 143.427 187.301 143.367 181.561C143.327 178.394 143.294 175.224 143.267 172.051L145.267 173.051L150.467 175.741L180.757 180.891L211.877 186.191L212.817 218.191L213.257 234.121L224.727 238.791L233.727 242.431L294.857 267.271Z" fill="#E18477"/>
<path d="M212.767 214.881C210.047 216.561 207.477 217.351 205.227 217.111C190.437 215.521 161.587 203.931 143.427 182.481C143.427 181.428 143.407 180.378 143.367 179.331C143.327 176.158 143.294 172.988 143.267 169.821L145.267 170.821L150.467 173.511L180.757 178.661L211.877 183.961L212.767 214.881Z" fill="#A76962"/>
<path d="M294.857 267.271C228.007 318.735 134.771 318.324 68.3773 266.271L117.037 243.461C118.537 242.754 119.987 241.978 121.387 241.131C145.067 258.541 178.027 269.871 206.447 257.081C214.507 253.461 221.777 247.081 224.737 238.771L233.737 242.411L294.857 267.271Z" fill="#FF2609"/>
<circle cx="117.927" cy="140.081" r="17" fill="#E18477"/>
<circle cx="124.927" cy="138.081" r="17" fill="#A76962"/>
<path d="M204.927 204.211C184.287 208.071 132.927 187.431 121.187 146.751C118.721 138.276 117.409 129.507 117.287 120.681C117.287 118.951 117.287 117.231 117.367 115.531C118.647 87.1912 133.147 63.5312 156.057 56.8812C157.377 56.5012 158.707 56.1812 160.057 55.8812C168.07 54.3885 176.331 54.9667 184.057 57.5612C194.021 60.9681 203.039 66.6797 210.377 74.2312C213.474 77.3372 216.322 80.6807 218.897 84.2312C225.455 93.326 230.375 103.495 233.437 114.281C245.257 155.021 220.337 201.341 204.927 204.211Z" fill="#E18477"/>
<path d="M200.577 116.011C200.856 119.899 201.526 123.748 202.577 127.501C203.577 130.811 205.097 132.861 207.097 135.721C207.791 136.66 208.391 137.665 208.887 138.721C211.537 144.661 208.027 151.251 201.347 151.251H197.257" stroke="#00214E"/>
<path d="M182.597 143.571C181.105 144.335 180.392 146.073 180.918 147.665C181.445 149.257 183.053 150.228 184.707 149.951" stroke="#00214E"/>
<path d="M205.307 103.731C212.373 100.133 220.543 99.3607 228.157 101.571" stroke="#00214E"/>
<path d="M152.837 106.621C162.581 101.66 174.027 101.294 184.067 105.621" stroke="#00214E"/>
<path d="M197.467 51.8111C187.547 49.8811 175.647 50.2211 165.917 50.3411C160.607 50.4011 155.227 50.7411 150.167 52.3411C136.167 56.8511 127.057 70.3411 121.377 83.9411C119.927 87.4111 104.937 121.941 105.267 122.011C114.867 125.131 125.147 120.791 134.157 116.261C160.897 102.791 189.277 81.1411 200.777 52.5211C199.707 52.2811 198.597 52.0311 197.467 51.8111Z" fill="#00214E"/>
<path d="M172.257 159.671C172.534 159.234 172.98 158.932 173.488 158.837C173.997 158.742 174.522 158.863 174.937 159.171C177.017 160.631 180.817 163.731 186.217 164.811C193.577 166.271 199.967 163.331 201.487 165.221C202.347 166.291 201.297 167.601 199.287 169.271C195.035 172.456 189.676 173.786 184.427 172.961C177.347 171.631 172.027 163.431 172.027 160.531C172.027 160.229 172.106 159.933 172.257 159.671Z" fill="white"/>
<path d="M166.667 118.011C172.767 118.061 172.767 127.381 166.667 127.431H166.397C160.297 127.381 160.297 118.061 166.397 118.011H166.667Z" fill="#00214E"/>
<path d="M216.927 117.351C222.597 117.351 222.597 126.051 216.927 126.091H216.677C211.007 126.091 211.007 117.391 216.677 117.351H216.927Z" fill="#00214E"/>
</svg>
