<svg width="340" height="340" viewBox="0 0 340 340" fill="none" xmlns="http://www.w3.org/2000/svg">
<path d="M241.24 273.417C230.59 274.747 220.87 277.587 209.99 278.247C201.8 278.747 193.59 277.817 185.41 277.107C167.585 275.558 149.686 275.027 131.8 275.517C122.08 275.787 112.49 278.157 102.72 277.617C97.5701 277.337 94.7201 276.027 90.3801 273.617C88.8601 272.767 74.8201 266.127 74.9901 266.837C75.6701 269.627 82.2701 141.077 84.6201 118.677C86.5201 100.587 90.5001 82.3673 98.9601 66.1373C107.26 50.1873 121.87 41.6973 138.9 36.7973C164.14 29.5673 193.19 32.4273 215.14 47.3973C231.14 58.2973 240.32 84.1173 242.46 103.397C246.07 136.107 245.47 247.497 241.24 273.417Z" fill="url(#paint0_linear_3_4580)"/>
<path d="M283.48 268.417C216.632 319.889 123.391 319.477 57 267.417L105.66 244.607C107.149 243.903 108.601 243.122 110.01 242.267L111.13 241.567C111.53 241.317 111.92 241.057 112.31 240.787C118.449 236.552 123.48 230.903 126.98 224.317C130.98 216.767 132.3 208.427 132.36 199.927C132.36 194.207 132.05 188.487 131.99 182.757C131.95 179.584 131.917 176.414 131.89 173.247L133.89 174.247L139.09 176.937L169.38 182.087L200.5 187.387L201.44 219.387L201.91 235.257L213.38 239.927L222.38 243.567L283.48 268.417Z" fill="#845161"/>
<path d="M201.22 211.847C191.16 213.634 180.81 212.825 171.15 209.497C149.57 202.247 135.07 184.757 133.67 166.697L138.87 169.387L169.16 174.537L200.28 179.837L201.22 211.847Z" fill="#69303A"/>
<path d="M283.48 268.417C216.632 319.889 123.391 319.477 57 267.417L105.66 244.607C107.149 243.903 108.601 243.122 110.01 242.267C133.69 259.677 166.65 271.017 195.07 258.267C203.13 254.647 210.4 248.267 213.36 239.957L222.36 243.597L283.48 268.417Z" fill="url(#paint1_linear_3_4580)"/>
<circle cx="106.89" cy="141.237" r="17" fill="#845161"/>
<circle cx="112.89" cy="139.237" r="17" fill="#69303A"/>
<path d="M222.43 115.497C234.17 156.177 209.23 205.367 193.89 205.367C172.89 205.367 121.89 188.587 110.16 147.907C98.43 107.227 114.07 66.9873 145.07 58.0373C176.07 49.0873 210.68 74.8073 222.43 115.497Z" fill="#845161"/>
<path d="M187.69 65.5772C186.471 69.2127 184.984 72.7524 183.24 76.1672C176.54 89.7072 164.68 100.077 152.72 108.897C143.55 115.657 133.72 122.027 122.54 124.347C112.39 126.467 95.2799 124.467 89.5399 114.267C82.9099 102.597 97.5399 87.8772 104.21 80.1072C110.51 72.8172 119.04 61.6772 128.94 59.2372C129.11 59.2372 186.94 36.2372 186.94 36.2372C187.4 43.1372 189.37 49.9472 189.3 56.8872C189.191 59.847 188.648 62.7748 187.69 65.5772Z" fill="url(#paint2_linear_3_4580)"/>
<path d="M185.47 117.397C185.42 117.637 191.01 133.277 194.4 142.717C194.968 144.323 194.721 146.103 193.74 147.494C192.758 148.885 191.163 149.714 189.46 149.717H185.82" stroke="#00214E"/>
<path d="M196.93 107.177C203.995 103.577 212.167 102.808 219.78 105.027" stroke="#00214E"/>
<path d="M141.82 110.877C151.563 105.915 163.01 105.548 173.05 109.877" stroke="#00214E"/>
<path d="M178.37 143.987C176.736 144.165 175.468 145.496 175.37 147.137C175.395 147.929 175.773 148.668 176.4 149.152C177.027 149.636 177.838 149.814 178.61 149.637" stroke="#00214E"/>
<circle cx="182.85" cy="101.457" r="4.02" fill="#FF2609"/>
<path d="M159.48 161.027C159.756 160.59 160.202 160.288 160.711 160.193C161.219 160.098 161.745 160.219 162.16 160.527C164.24 161.987 168.04 165.087 173.44 166.157C180.8 167.627 187.19 164.677 188.71 166.577C189.57 167.647 188.52 168.947 186.51 170.627C182.255 173.806 176.898 175.137 171.65 174.317C164.57 172.987 159.25 164.787 159.25 161.877C159.25 161.579 159.329 161.285 159.48 161.027Z" fill="white"/>
<path d="M157.62 120.747C163.72 120.677 163.9 130.007 157.8 130.177H157.53C151.43 130.247 151.25 120.927 157.35 120.757H157.62V120.747Z" fill="#00214E"/>
<path d="M207.86 119.117C213.52 119.047 213.69 127.697 208.03 127.857H207.77C202.11 127.917 201.94 119.267 207.61 119.107H207.86V119.117Z" fill="#00214E"/>
<defs>
<linearGradient id="paint0_linear_3_4580" x1="74.9901" y1="278.398" x2="244.84" y2="278.398" gradientUnits="userSpaceOnUse">
<stop stop-color="#16243F"/>
<stop offset="1" stop-color="#6878B1"/>
</linearGradient>
<linearGradient id="paint1_linear_3_4580" x1="143.066" y1="334.922" x2="178.078" y2="223.292" gradientUnits="userSpaceOnUse">
<stop stop-color="#315676"/>
<stop offset="1" stop-color="#E1B9E0"/>
</linearGradient>
<linearGradient id="paint2_linear_3_4580" x1="75.4962" y1="104.678" x2="169.977" y2="156.012" gradientUnits="userSpaceOnUse">
<stop stop-color="#16243F"/>
<stop offset="1" stop-color="#6878B1"/>
</linearGradient>
</defs>
</svg>
