<svg width="340" height="340" viewBox="0 0 340 340" fill="none" xmlns="http://www.w3.org/2000/svg">
<path d="M283.48 278.383C216.632 329.854 123.391 329.443 57 277.383L105.66 254.573C107.977 253.484 110.201 252.206 112.31 250.753C112.95 250.313 113.59 249.853 114.2 249.373C119.496 245.321 123.855 240.174 126.98 234.283C129.342 229.757 130.912 224.859 131.62 219.803C132.108 216.522 132.356 213.21 132.36 209.893C132.36 206.433 132.27 202.973 132.15 199.513C132.08 197.253 132.02 194.983 131.99 192.723C131.95 189.556 131.917 186.386 131.89 183.213L133.89 184.213L139.09 186.903L141.5 187.313L169.38 192.053L200.5 197.353L201.44 229.353L201.75 239.813L201.9 244.893V245.203L202.9 245.623L213.97 250.123L283.48 278.383Z" fill="#F2A196"/>
<path d="M201.89 245.203C198.453 245.794 194.917 245.247 191.82 243.643L132.15 194.873C132.08 192.613 132.02 194.973 131.99 192.713C131.95 189.546 131.917 186.376 131.89 183.203L133.89 184.203L139.09 186.893L141.5 187.303L169.38 192.043L200.5 197.343L201.44 229.343L201.75 239.803L201.9 244.883V245.203H201.89Z" fill="#E88870"/>
<path d="M283.48 278.383C216.632 329.854 123.391 329.443 57 277.383L105.66 254.573C107.977 253.484 110.201 252.206 112.31 250.753C112.95 250.313 113.59 249.853 114.2 249.373C137.75 266.133 169.89 276.703 197.69 264.193C204.31 261.193 210.39 256.353 213.99 250.133L283.48 278.383Z" fill="url(#paint0_linear_3_4601)"/>
<path d="M265.58 78.103C265.49 78.693 265.38 79.273 265.25 79.853C264.556 82.826 263.442 85.6849 261.94 88.343L261.86 88.483C261.29 89.483 260.68 90.483 260.02 91.483C258.269 94.0501 256.358 96.505 254.3 98.833L253.07 100.203C252.24 101.133 251.4 102.043 250.56 102.943C255.01 101.943 259.32 106.093 260.11 110.573C260.9 115.053 259.11 119.573 256.9 123.573C253.03 130.653 247.45 135.363 242.54 141.513C238.86 146.093 236.82 151.513 232.81 155.893L232.51 156.223C221.92 167.343 205.2 169.943 191.28 174.693C186.28 176.413 132.06 191.813 132.06 195.173C132.06 194.443 126.75 189.173 120.06 182.763C96.06 159.973 88.17 124.763 102.45 94.563C117.8 62.063 152.66 38.873 185.86 27.733C196.24 24.253 208.02 21.913 217.86 26.733C227.7 31.553 232.6 46.503 224.44 53.803C229.572 49.9199 235.956 48.065 242.37 48.593C248.294 48.9641 253.882 51.4769 258.09 55.663C261.424 59.012 263.82 63.1775 265.04 67.743C265.944 71.1203 266.128 74.65 265.58 78.103Z" fill="#845161"/>
<path d="M265.58 78.103C265.49 78.693 265.38 79.273 265.25 79.853C265.16 80.023 265.07 80.203 264.98 80.403C263.85 82.983 263.33 85.763 261.98 88.343L261.9 88.483C261.33 89.483 260.72 90.483 260.06 91.483C258.326 94.0625 256.415 96.5184 254.34 98.833L253.07 100.203C252.24 101.133 251.4 102.043 250.56 102.943C255.01 101.943 259.32 106.093 260.11 110.573C260.9 115.053 259.11 119.573 256.9 123.573C253.03 130.653 247.45 135.363 242.54 141.513C238.86 146.093 236.82 151.513 232.81 155.893C228.154 150.357 225.19 143.598 224.27 136.423C222.63 123.163 223.63 108.713 223.18 95.293C222.9 86.853 220.18 85.293 225.24 78.463C229.309 73.443 234.015 68.9753 239.24 65.173C243.32 62.483 248.57 62.063 253.44 62.753C257.684 63.3333 261.688 65.0622 265.02 67.753C265.929 71.1257 266.12 74.6518 265.58 78.103Z" fill="#69303A"/>
<circle cx="122.05" cy="155.203" r="17" fill="#F2A196"/>
<circle cx="127.44" cy="155.203" r="15.22" fill="#E88870"/>
<path d="M127.67 139.203L132.07 196.203L198.51 235.023C208.032 238.575 218.696 234.328 223.17 225.203C232.73 205.623 248.07 174.703 246.05 163.203C243.05 146.203 235.05 140.203 235.05 140.203C236.163 133.536 237.27 126.89 238.37 120.263C239.63 112.753 241.24 104.913 239.37 97.363C237.24 88.703 230.7 85.013 225.32 78.543C211.16 96.783 187.88 107.093 167.55 117.543C157.07 122.983 127.67 139.203 127.67 139.203Z" fill="#F2A196"/>
<path d="M176.79 137.003C182.89 137.003 182.89 146.383 176.79 146.433H176.51C170.41 146.433 170.41 137.053 176.51 137.003H176.79Z" fill="#00214E"/>
<path d="M226.91 135.613C232.58 135.663 232.58 144.313 226.91 144.363H226.66C221 144.363 221 135.663 226.66 135.613H226.91Z" fill="#00214E"/>
<path d="M202.2 134.293C202.12 134.643 215.56 170.423 215.56 170.423L197.62 171.293" stroke="#00214E"/>
<path d="M159.72 127.373C168.978 125.461 178.5 125.194 187.85 126.583" stroke="#00214E"/>
<path d="M218.77 127.483C224.486 126.157 230.376 125.749 236.22 126.273" stroke="#00214E"/>
<path d="M179.24 181.303C179.514 180.863 179.96 180.559 180.47 180.464C180.979 180.369 181.505 180.492 181.92 180.803C184 182.263 187.8 185.363 193.2 186.433C200.56 187.903 206.94 184.953 208.47 186.853C209.33 187.923 208.28 189.223 206.27 190.853C202.015 194.032 196.658 195.362 191.41 194.543C184.33 193.213 179.01 185.013 179.01 182.103C179.017 181.821 179.096 181.546 179.24 181.303Z" fill="white"/>
<defs>
<linearGradient id="paint0_linear_3_4601" x1="57" y1="316.701" x2="283.48" y2="316.701" gradientUnits="userSpaceOnUse">
<stop stop-color="#16243F"/>
<stop offset="1" stop-color="#6878B1"/>
</linearGradient>
</defs>
</svg>
