<svg width="340" height="340" viewBox="0 0 340 340" fill="none" xmlns="http://www.w3.org/2000/svg">
<path d="M219.59 185.561C165.758 192.607 111.084 189.555 58.3701 176.561C65.84 142.34 77.3822 109.137 92.7501 77.661C106 50.511 133.63 36.591 163.43 34.231C187.94 32.291 211.07 42.611 223.67 63.601C233.41 79.811 239.47 101.521 243.44 119.951C247.68 139.631 251.523 159.384 254.97 179.211C254.92 178.911 223.02 185.091 219.59 185.561Z" fill="url(#paint0_linear_3_4594)"/>
<path d="M283.48 268.391C216.632 319.862 123.391 319.451 57 267.391L105.69 244.571C107.179 243.867 108.631 243.086 110.04 242.231L111.16 241.531C111.56 241.281 111.95 241.021 112.34 240.751C118.479 236.516 123.51 230.867 127.01 224.281C131.01 216.731 132.33 208.391 132.39 199.891C132.39 194.171 132.08 188.451 132.02 182.721C131.98 179.554 131.947 176.384 131.92 173.211L133.92 174.211L139.12 176.901L169.36 182.091L200.48 187.391L201.42 219.391L201.89 235.261L213.36 239.931L222.36 243.571L283.48 268.391Z" fill="#E18477"/>
<path d="M201.42 219.341C191.36 221.127 181.011 220.319 171.35 216.991C149.77 209.741 135.24 192.251 133.87 174.231L139.07 176.921L169.36 182.091L200.48 187.391L201.42 219.341Z" fill="#A76962"/>
<circle cx="102.89" cy="141.211" r="17" fill="#E18477"/>
<circle cx="108.89" cy="139.211" r="17" fill="#A76962"/>
<path d="M225.8 114.431C238.25 157.571 214.01 207.681 195.54 209.731C150.9 214.731 119.2 191.941 106.74 148.801C94.2801 105.661 110.84 62.981 143.74 53.491C176.64 44.001 213.35 71.281 225.8 114.431Z" fill="#E18477"/>
<path d="M163.58 168.741C168.597 173.912 175.319 177.089 182.5 177.681" stroke="#00214E"/>
<path d="M189.16 58.5711C188.77 60.4715 188.207 62.3325 187.48 64.1311C179.92 82.6711 168.27 98.6611 151.33 109.731C131.33 122.831 111.7 122.201 89.3301 125.361C90.6201 117.181 90.1701 110.861 90.4501 102.291C90.8901 88.8711 97.2601 82.2911 105.75 72.5011C112.07 65.2211 120.63 54.1011 130.53 51.6911L188.6 37.8511C189.2 47.8411 191.13 49.0911 189.16 58.5711Z" fill="url(#paint1_linear_3_4594)"/>
<path d="M196.92 109.151C203.985 105.551 212.157 104.782 219.77 107.001" stroke="#00214E"/>
<path d="M141.81 112.851C151.553 107.89 162.999 107.523 173.04 111.851" stroke="#00214E"/>
<path d="M283.48 268.391C216.632 319.862 123.391 319.451 57 267.391L105.69 244.571C108.007 243.482 110.231 242.204 112.34 240.751C112.98 240.311 113.62 239.851 114.23 239.371C119.526 235.319 123.885 230.172 127.01 224.281C129.372 219.755 130.942 214.857 131.65 209.801C132.356 210.485 133.097 211.133 133.87 211.741C140.002 216.275 146.656 220.056 153.69 223.001C157.105 224.426 160.597 225.657 164.15 226.691C174.854 229.812 186.03 230.994 197.15 230.181C198.69 230.061 200.24 229.911 201.78 229.801L201.93 234.881V235.211L213.99 240.091L283.48 268.391Z" fill="#845161"/>
<path d="M148.41 169.451C149.651 167.362 151.187 165.462 152.97 163.811C156.642 160.437 161.252 158.257 166.19 157.561" stroke="#00214E"/>
<path d="M174.13 89.9711H197.79" stroke="#00214E"/>
<path d="M168.35 97.791H197.79" stroke="#00214E"/>
<path d="M156.34 141.091C159.137 141.271 161.887 140.309 163.96 138.423C166.034 136.538 167.254 133.892 167.34 131.091" stroke="#00214E"/>
<path d="M200.21 128.891C200.265 131.525 201.471 134.003 203.51 135.671C205.531 137.302 207.778 138.633 210.18 139.621" stroke="#00214E"/>
<path d="M197.49 150.901C197.968 151.642 198.402 152.41 198.79 153.201C199.244 153.945 199.55 154.771 199.69 155.631C199.717 156.254 199.461 156.856 198.993 157.268C198.524 157.68 197.895 157.858 197.28 157.751C196.66 157.621 196.39 158.581 197.02 158.751C197.828 158.91 198.665 158.74 199.348 158.281C200.031 157.821 200.503 157.109 200.66 156.301C200.735 155.253 200.491 154.207 199.96 153.301C199.486 152.293 198.952 151.315 198.36 150.371C198.02 149.831 197.15 150.371 197.49 150.881V150.901Z" fill="#00214E"/>
<path d="M180.78 152.091C179.93 153.451 178.92 155.151 179.41 156.821C179.8 158.181 181.25 159.441 182.72 158.911C183.32 158.691 183.06 157.721 182.45 157.911C181.45 158.291 180.45 157.231 180.31 156.271C180.1 154.951 180.98 153.621 181.65 152.561C181.99 152.011 181.12 151.561 180.78 152.061V152.091Z" fill="#00214E"/>
<ellipse cx="158.631" cy="127.813" rx="3.278" ry="7.95943" transform="rotate(-85.9958 158.631 127.813)" fill="#00214E"/>
<ellipse cx="210.35" cy="127.343" rx="7.94" ry="3.27" transform="rotate(-8.86 210.35 127.343)" fill="#00214E"/>
<defs>
<linearGradient id="paint0_linear_3_4594" x1="58.3701" y1="189.269" x2="254.97" y2="189.269" gradientUnits="userSpaceOnUse">
<stop stop-color="#315676"/>
<stop offset="1" stop-color="#E1B9E0"/>
</linearGradient>
<linearGradient id="paint1_linear_3_4594" x1="140.755" y1="197.13" x2="280.257" y2="62.2842" gradientUnits="userSpaceOnUse">
<stop stop-color="#315676"/>
<stop offset="0.21" stop-color="#516889"/>
<stop offset="0.67" stop-color="#A296BA"/>
<stop offset="1" stop-color="#E1B9E0"/>
</linearGradient>
</defs>
</svg>
