<svg width="340" height="340" viewBox="0 0 340 340" fill="none" xmlns="http://www.w3.org/2000/svg">
<path d="M283.48 269.019C216.632 320.49 123.391 320.079 57 268.019L105.66 245.209C107.977 244.12 110.201 242.842 112.31 241.389C112.95 240.949 113.59 240.489 114.2 240.009C119.496 235.957 123.855 230.81 126.98 224.919C129.342 220.393 130.912 215.495 131.62 210.439C132.108 207.158 132.356 203.846 132.36 200.529C132.36 194.809 132.05 189.089 131.99 183.359C131.95 180.186 131.917 177.016 131.89 173.849L133.89 174.849L139.09 177.539L141.5 177.949L169.38 182.689L200.5 187.989L201.44 219.989L201.75 230.449L201.9 235.529V235.859L214 240.779L283.48 269.019Z" fill="#DE8276"/>
<path d="M201.7 233.869C198.263 234.461 194.727 233.913 191.63 232.309L131.96 183.529C131.89 181.269 131.83 183.639 131.8 181.379C131.76 178.206 131.727 175.036 131.7 171.869L133.7 172.869L138.9 175.559L141.31 175.969L169.19 180.709L200.31 186.009L201.25 218.009L201.56 228.469L201.71 233.549V233.879L201.7 233.869Z" fill="#A76962"/>
<path d="M232.5 146.919C230.945 148.545 229.241 150.022 227.41 151.329C217.01 158.859 203.13 161.329 191.27 165.389C186.27 167.099 132.05 182.509 132.05 185.859C132.05 185.129 126.74 179.859 120.05 173.459C96.9756 151.359 89.283 117.639 100.49 87.7191C111.4 59.0491 146.18 39.2891 175.31 34.7191C189.18 32.5491 205.64 31.3391 218.45 37.9891C225 41.3991 230.45 46.3691 235.45 51.8791C237.01 53.6191 238.523 55.3958 239.99 57.2091C240.62 57.9691 241.24 58.7291 241.85 59.4991C264.62 88.0991 256.55 121.649 232.5 146.919Z" fill="url(#paint0_linear_3_4596)"/>
<path d="M232.5 146.919C230.945 148.545 229.241 150.022 227.41 151.329C226.983 150.585 226.599 149.817 226.26 149.029C223.62 143.029 222.26 136.519 221.26 130.029C219.703 120.584 218.638 111.065 218.07 101.509C217.16 86.1691 210.61 78.5591 223.64 66.5991C228.329 62.3017 233.913 59.0981 239.99 57.2191C240.62 57.9791 241.24 58.7391 241.85 59.5091C264.62 88.0991 256.55 121.649 232.5 146.919Z" fill="url(#paint1_linear_3_4596)"/>
<circle cx="122.05" cy="145.869" r="17" fill="#E18477"/>
<circle cx="127.45" cy="145.869" r="15.22" fill="#A76962"/>
<path d="M128.72 129.749C129.55 140.609 129.52 153.869 129.81 157.749C130.563 167.476 131.31 177.199 132.05 186.919L198.49 225.729C208.026 229.293 218.709 225.03 223.17 215.879C232.73 196.299 248.07 165.379 246.05 153.879C243.05 136.879 235.05 130.879 235.05 130.879L238.38 110.939C241.75 90.669 234.8 71.479 211.12 69.259C206.12 68.799 200.55 69.749 197.58 73.739C189.58 84.499 194.19 97.739 182.18 107.739C167.6 119.769 135.07 125.019 127.45 115.309C127.45 115.309 128.15 122.179 128.72 129.749Z" fill="#DE8276"/>
<path d="M178.58 172.169C183.385 177.535 189.972 180.977 197.12 181.859" stroke="#00214E"/>
<path d="M202.2 124.959C202.12 125.309 215.56 161.089 215.56 161.089L197.62 161.959" stroke="#00214E"/>
<path d="M159.72 118.019C168.977 116.104 178.499 115.834 187.85 117.219" stroke="#00214E"/>
<path d="M218.77 118.149C224.485 116.817 230.376 116.409 236.22 116.939" stroke="#00214E"/>
<path d="M283.48 269.019C216.632 320.49 123.391 320.079 57 268.019L105.66 245.209C107.977 244.12 110.201 242.842 112.31 241.389C112.95 240.949 113.59 240.489 114.2 240.009C119.496 235.957 123.855 230.81 126.98 224.919C129.342 220.393 130.912 215.495 131.62 210.439C132.326 211.123 133.067 211.771 133.84 212.379C139.972 216.913 146.626 220.694 153.66 223.639C157.075 225.064 160.567 226.296 164.12 227.329C174.824 230.45 186 231.632 197.12 230.819C198.66 230.699 200.21 230.549 201.75 230.439L201.9 235.519V235.849L214 240.769L283.48 269.019Z" fill="#00214E"/>
<path d="M173.35 129.259C179.45 129.259 179.45 138.639 173.35 138.689H173.07C166.96 138.689 166.96 129.309 173.07 129.259H173.34H173.35Z" fill="#00214E"/>
<path d="M223.48 127.869C229.14 127.919 229.14 136.569 223.48 136.619H223.22C217.56 136.619 217.56 127.919 223.22 127.869H223.48Z" fill="#00214E"/>
<defs>
<linearGradient id="paint0_linear_3_4596" x1="95.3499" y1="185.898" x2="255.33" y2="185.898" gradientUnits="userSpaceOnUse">
<stop stop-color="#16243F"/>
<stop offset="1" stop-color="#6878B1"/>
</linearGradient>
<linearGradient id="paint1_linear_3_4596" x1="189.57" y1="119.085" x2="256.647" y2="138.115" gradientUnits="userSpaceOnUse">
<stop stop-color="#16243F"/>
<stop offset="1" stop-color="#6878B1"/>
</linearGradient>
</defs>
</svg>
