<svg width="340" height="340" viewBox="0 0 340 340" fill="none" xmlns="http://www.w3.org/2000/svg">
<path d="M283.48 267.942C216.632 319.414 123.391 319.002 57 266.942L105.66 244.132C107.977 243.043 110.201 241.765 112.31 240.312C112.95 239.872 113.59 239.412 114.2 238.932C119.496 234.88 123.855 229.733 126.98 223.842C129.342 219.316 130.912 214.419 131.62 209.362C132.108 206.082 132.356 202.769 132.36 199.452C132.36 193.732 132.05 188.012 131.99 182.282C131.95 179.116 131.917 175.946 131.89 172.772L133.89 173.772L139.09 176.462L141.5 176.872L169.36 181.642L200.48 186.942L201.42 218.942L201.73 229.402L201.88 234.482V234.812L214.04 239.642L283.48 267.942Z" fill="#F2D4CF"/>
<path d="M283.48 267.942C216.632 319.414 123.391 319.002 57 266.942L105.66 244.132C107.977 243.043 110.201 241.765 112.31 240.312C112.95 239.872 113.59 239.412 114.2 238.932C137.75 255.692 169.89 266.262 197.69 253.752C204.31 250.752 210.39 245.912 213.99 239.692L283.48 267.942Z" fill="url(#paint0_linear_3_4609)"/>
<path d="M201.87 234.432C191.42 235.062 179.74 232.362 168.87 226.092C148.46 214.302 137.55 193.742 141.47 176.882L169.35 181.642L200.47 186.942L201.41 218.942L201.87 234.432Z" fill="#DAAEA8"/>
<path d="M255.04 78.3424C249.833 95.4557 244.003 112.366 237.55 129.072C233.02 140.822 231.07 150.352 219.08 155.912C210.25 160.002 200.41 161.152 191.26 164.282C186.26 166.002 132.04 181.402 132.04 184.762C132.04 184.032 126.73 178.762 120.04 172.352C107.85 160.759 99.6329 145.612 96.5601 129.072C94.0301 115.072 96.1601 97.9024 100.25 84.3824C120.04 19.0824 214.81 31.8524 264.82 43.2624C261.853 55.0357 258.593 66.729 255.04 78.3424Z" fill="url(#paint1_linear_3_4609)"/>
<circle cx="122.05" cy="144.762" r="17" fill="#F2D4CF"/>
<circle cx="127.44" cy="144.762" r="15.22" fill="#DAAEA8"/>
<path d="M127.67 128.712L130.04 158.892L131.5 178.642C132.06 185.902 134.89 190.252 139.62 196.062C148.025 206.372 158.732 214.565 170.88 219.982C182.47 225.152 198.56 230.302 210.88 225.282C223.53 220.152 227.58 205.952 231.88 194.172C236.18 182.392 240.09 169.442 239.88 156.722C239.61 139.462 235.04 129.782 235.04 129.782C236.153 123.116 237.26 116.469 238.36 109.842C239.61 102.332 241.22 94.4924 239.36 86.9424C237.23 78.2824 230.7 74.5924 225.36 68.1224C211.2 86.3624 187.92 96.6724 167.59 107.122C157.04 112.542 127.67 128.712 127.67 128.712Z" fill="#F2D4CF"/>
<path d="M156.17 122.012C165.427 120.098 174.949 119.827 184.3 121.212" stroke="#00214E"/>
<path d="M218.76 121.062C224.478 119.732 230.373 119.323 236.22 119.852" stroke="#00214E"/>
<path d="M165.04 181.892C168.741 175.808 174.008 170.828 180.29 167.472" stroke="#00214E"/>
<path d="M184.11 136.722C183.705 140.128 181.807 143.176 178.93 145.042C178.346 145.433 177.726 145.768 177.08 146.042C175.017 146.795 172.86 147.256 170.67 147.412" stroke="#00214E"/>
<path d="M184.27 104.822H215.88" stroke="#00214E"/>
<path d="M180.25 111.352H211.86" stroke="#00214E"/>
<path d="M215.73 136.452C216.69 138.997 217.945 141.42 219.47 143.672C220.972 145.748 223.206 147.178 225.72 147.672" stroke="#00214E"/>
<path d="M212.39 156.302C212.862 157.047 213.296 157.814 213.69 158.602C214.144 159.347 214.45 160.172 214.59 161.032C214.617 161.655 214.361 162.257 213.893 162.669C213.424 163.081 212.794 163.259 212.18 163.152C211.55 163.022 211.29 163.992 211.92 164.152C212.728 164.311 213.565 164.142 214.248 163.682C214.931 163.223 215.403 162.51 215.56 161.702C215.625 160.671 215.381 159.644 214.86 158.752C214.386 157.744 213.852 156.766 213.26 155.822C212.92 155.282 212.05 155.822 212.39 156.332V156.302Z" fill="#00214E"/>
<path d="M195.68 157.472C194.83 158.832 193.82 160.532 194.31 162.202C194.7 163.562 196.14 164.822 197.62 164.292C198.22 164.072 197.96 163.102 197.35 163.292C196.35 163.672 195.35 162.612 195.21 161.652C195 160.332 195.88 159.012 196.54 157.942C196.89 157.392 196.02 156.892 195.68 157.442V157.472Z" fill="#00214E"/>
<path d="M179.74 175.642C184.545 181.008 191.132 184.451 198.28 185.332" stroke="#00214E"/>
<ellipse cx="174.364" cy="135.221" rx="3.27" ry="7.94" transform="rotate(-85.77 174.364 135.221)" fill="#00214E"/>
<ellipse cx="225.861" cy="133.603" rx="7.94" ry="3.27" transform="rotate(-8.86 225.861 133.603)" fill="#00214E"/>
<defs>
<linearGradient id="paint0_linear_3_4609" x1="57" y1="306.26" x2="283.48" y2="306.26" gradientUnits="userSpaceOnUse">
<stop stop-color="#16243F"/>
<stop offset="1" stop-color="#6878B1"/>
</linearGradient>
<linearGradient id="paint1_linear_3_4609" x1="95.4401" y1="184.776" x2="264.82" y2="184.776" gradientUnits="userSpaceOnUse">
<stop stop-color="#315676"/>
<stop offset="1" stop-color="#E1B9E0"/>
</linearGradient>
</defs>
</svg>
