<svg width="340" height="340" viewBox="0 0 340 340" fill="none" xmlns="http://www.w3.org/2000/svg">
<path d="M105.86 153.72C104.29 150.6 102.77 147.44 101.31 144.27C98.4499 138.07 95.7699 131.72 94.5699 125C90.6799 103.32 101.89 79.6795 117.98 65.7795C140.88 46.0095 173.32 38.5395 198.55 20.9995C197.152 29.6214 192.543 37.3951 185.65 42.7595C197.46 33.6595 232.65 48.6495 243.65 54.2695C261.889 63.4525 277.388 77.2759 288.59 94.3495C276.715 89.522 263.788 87.8678 251.08 89.5495C260.96 99.1195 271.24 109.33 274.98 122.55C257.25 109.77 228.94 115.92 218.14 134.97C211.21 147.17 211.31 162.03 207.14 175.44C202.74 189.64 190.87 198.66 176.91 202.44C166.39 205.32 145.69 206.62 136.16 200.44C133.27 198.57 131.16 195.71 129.22 192.89C120.508 180.407 112.702 167.317 105.86 153.72Z" fill="#00214E"/>
<circle cx="116.89" cy="157.69" r="17" fill="#845161"/>
<circle cx="122.75" cy="156.69" r="16" fill="#69303A"/>
<path d="M278.48 280.92C211.632 332.391 118.391 331.979 52 279.92L100.66 257.11C102.977 256.02 105.201 254.743 107.31 253.29C107.95 252.85 108.59 252.39 109.2 251.91C114.496 247.857 118.855 242.71 121.98 236.82C125.98 229.27 127.3 220.93 127.36 212.43C127.36 209.62 127.3 206.8 127.22 203.98C127.14 201.16 127.02 198.17 126.99 195.26C126.95 192.093 126.917 188.923 126.89 185.75L128.89 186.75L134.09 189.44L136.5 189.85L164.38 194.59L195.5 199.89L196.44 231.89L196.83 245.18L196.9 247.43V247.76L209 252.68L278.48 280.92Z" fill="#845161"/>
<path d="M196.81 245.11L195.27 245.27C180.221 246.589 165.351 241.233 154.6 230.62L127.22 197.28C127.13 194.38 127.02 198.11 126.99 195.2C126.95 192.033 126.917 188.863 126.89 185.69L128.89 186.69L134.09 189.38L136.5 189.79L164.38 194.53L195.5 199.83L196.44 231.83L196.81 245.11Z" fill="#69303A"/>
<path d="M125.55 125.979C122.431 128.737 120.426 132.538 119.91 136.669C117.82 156.199 125.05 179.249 127.06 198.809L163.48 225.669C175.582 234.71 191.044 237.979 205.77 234.609C211.64 233.219 215.36 232.319 218.01 227.609C223.13 218.609 235.7 187.819 236.52 166.099C236.75 159.929 236.6 150.529 232.8 145.279C230.95 142.729 230 142.669 230.67 139.069C231.36 135.309 232.35 131.589 233.18 127.859C234.386 122.464 234.723 116.911 234.18 111.409C233.63 106.409 233.65 101.969 233.12 96.8795C232.86 94.4095 231.76 83.5995 231.76 83.5995C225.41 93.1595 213.95 98.1795 203.35 101.479C188.93 105.959 173.92 108.149 159.3 111.909C149.61 114.439 133.94 118.039 125.55 125.979Z" fill="#845161"/>
<path d="M168.76 141.049C174.86 141.099 174.86 150.429 168.76 150.479H168.49C162.38 150.429 162.38 141.099 168.49 141.049H168.76Z" fill="#00214E"/>
<path d="M221.45 138.2C227.12 138.2 227.12 146.9 221.45 146.95H221.2C215.54 146.9 215.54 138.24 221.2 138.2H221.45Z" fill="#00214E"/>
<path d="M173.23 186C178.034 191.367 184.621 194.81 191.77 195.69" stroke="#00214E"/>
<path d="M154.56 129.86C163.817 127.94 173.339 127.669 182.69 129.06" stroke="#00214E"/>
<path d="M213.61 129.92C219.326 128.599 225.216 128.19 231.06 128.71" stroke="#00214E"/>
<path d="M278.48 280.92C211.632 332.391 118.391 331.979 52 279.92L100.66 257.11C102.977 256.02 105.201 254.743 107.31 253.29C107.95 252.85 108.59 252.39 109.2 251.91C132.75 268.67 164.89 279.24 192.69 266.73C199.31 263.73 205.39 258.89 208.99 252.67L278.48 280.92Z" fill="#FF2609"/>
<path d="M185.56 169.169C184.067 169.933 183.354 171.672 183.881 173.264C184.407 174.856 186.016 175.826 187.67 175.549" stroke="#00214E"/>
<path d="M200.97 140.13C203.46 149.68 205.53 159.13 207.9 168.7C208.178 169.578 208.28 170.502 208.2 171.42C207.77 174.17 204.5 175.3 201.78 175.89" stroke="#00214E"/>
</svg>
