<svg width="340" height="340" viewBox="0 0 340 340" fill="none" xmlns="http://www.w3.org/2000/svg">
<circle cx="160.56" cy="50.67" r="30.67" fill="url(#paint0_linear_3_4568)"/>
<path d="M187.06 217.11C171.04 216.832 155.063 215.368 139.26 212.73C107.78 207.47 76.96 197.42 49 181.93C47.34 181 45.68 180.06 44 179.1C68.79 155.57 87.19 127.1 102.74 96.9C113.94 75.11 119.74 60.74 143.93 51.57C185.99 35.64 242.81 51.13 254.77 98.45C259.82 118.45 260.01 139.36 257.14 159.71C254.37 179.39 247.08 217.29 247.08 217.29C247.08 217.29 194.91 217.25 187.06 217.11Z" fill="url(#paint1_linear_3_4568)"/>
<path d="M296.69 281.11C229.842 332.581 136.601 332.17 70.21 280.11L118.87 257.3C120.359 256.596 121.811 255.815 123.22 254.96L124.34 254.26C124.74 254.01 125.13 253.75 125.52 253.48C131.66 249.242 136.692 243.59 140.19 237C144.19 229.45 145.51 221.11 145.57 212.61C145.57 207.94 145.38 203.27 145.26 198.61C145.26 197.557 145.24 196.507 145.2 195.46C145.16 192.287 145.127 189.117 145.1 185.95H145.17L147.08 186.95L152.28 189.64L182.57 194.79L213.69 200.09L214.4 224.09L214.6 230.97V232.04L215.07 247.91L226.54 252.58L235.54 256.22L296.69 281.11Z" fill="#F2A196"/>
<path d="M214.4 224.11C212.245 225.586 209.67 226.326 207.06 226.22C192.27 224.63 163.42 213.04 145.26 191.59C145.26 190.537 145.24 189.487 145.2 188.44V185.97L147.11 186.97L152.31 189.66L182.6 194.81L213.72 200.11L214.4 224.11Z" fill="#E88870"/>
<circle cx="120.09" cy="153.93" r="17" fill="#F2A196"/>
<circle cx="126.09" cy="151.93" r="17" fill="#E88870"/>
<path d="M235.63 128.19C247.38 168.87 222.43 218.06 207.09 218.06C186.09 218.06 135.09 201.28 123.36 160.6C111.63 119.92 127.19 79.68 158.19 70.73C189.19 61.78 223.89 87.54 235.63 128.19Z" fill="#F2A196"/>
<path d="M172.47 136.64C178.57 136.69 178.57 146.01 172.47 146.06H172.19C166.09 146.01 166.09 136.69 172.19 136.64H172.46H172.47Z" fill="#00214E"/>
<path d="M222.73 132.8C228.4 132.85 228.4 141.5 222.73 141.55H222.48C216.82 141.55 216.82 132.85 222.48 132.8H222.73Z" fill="#00214E"/>
<circle cx="172.46" cy="141.43" r="19" stroke="white"/>
<circle cx="225.59" cy="138.43" r="19" stroke="white"/>
<path d="M196.93 74.1C192.62 92.8 183.23 108.68 166.07 120.25C147.55 133.07 128 139.25 106.67 143.5C107.21 130.39 105.77 111.95 112.53 100.26C120.202 87.2802 131.408 76.7505 144.84 69.9C159.65 62.25 182.56 54.75 199.2 60.05C198.737 64.7761 197.979 69.4686 196.93 74.1Z" fill="url(#paint2_linear_3_4568)"/>
<path d="M198.67 130.09C198.59 130.43 206.59 162.43 206.59 162.43H194.09" stroke="#00214E"/>
<path d="M210.13 119.88C217.192 116.271 225.367 115.498 232.98 117.72" stroke="#00214E"/>
<path d="M155.02 123.54C164.763 118.577 176.21 118.211 186.25 122.54" stroke="#00214E"/>
<path d="M191.46 141.43L206.59 140.14" stroke="white"/>
<path d="M296.68 281.11C229.832 332.581 136.591 332.17 70.2 280.11L118.86 257.3C121.177 256.211 123.401 254.933 125.51 253.48C126.15 253.04 126.79 252.58 127.4 252.1C132.701 248.046 137.063 242.895 140.19 237C142.547 232.479 144.113 227.589 144.82 222.54C145.526 223.224 146.267 223.872 147.04 224.48C153.171 229.014 159.826 232.795 166.86 235.74C170.275 237.164 173.767 238.396 177.32 239.43C188.024 242.551 199.2 243.733 210.32 242.92C211.86 242.8 213.41 242.65 214.95 242.54L215.1 247.62V247.95L227.2 252.87L296.68 281.11Z" fill="#845161"/>
<path d="M172.68 173.72C172.958 173.282 173.406 172.98 173.916 172.885C174.426 172.79 174.953 172.911 175.37 173.22C177.44 174.68 181.24 177.78 186.64 178.85C194 180.32 200.39 177.37 201.91 179.27C202.77 180.34 201.72 181.65 199.71 183.32C195.458 186.499 190.105 187.829 184.86 187.01C177.77 185.68 172.46 177.48 172.46 174.57C172.457 174.272 172.533 173.979 172.68 173.72Z" fill="white"/>
<defs>
<linearGradient id="paint0_linear_3_4568" x1="129.89" y1="81.345" x2="191.24" y2="81.345" gradientUnits="userSpaceOnUse">
<stop stop-color="#16243F"/>
<stop offset="1" stop-color="#6878B1"/>
</linearGradient>
<linearGradient id="paint1_linear_3_4568" x1="176.304" y1="280.073" x2="267.687" y2="133.622" gradientUnits="userSpaceOnUse">
<stop stop-color="#16243F"/>
<stop offset="1" stop-color="#6878B1"/>
</linearGradient>
<linearGradient id="paint2_linear_3_4568" x1="138.183" y1="172.524" x2="183.449" y2="110.567" gradientUnits="userSpaceOnUse">
<stop stop-color="#16243F"/>
<stop offset="1" stop-color="#6878B1"/>
</linearGradient>
</defs>
</svg>
