<svg width="340" height="340" viewBox="0 0 340 340" fill="none" xmlns="http://www.w3.org/2000/svg">
<path d="M206.71 244.062C201.114 250.656 194.884 256.685 188.11 262.062C176.11 271.582 167.11 270.492 153.17 269.222C136.92 267.742 120.79 265.052 104.59 263.052C102.53 262.802 100.33 262.472 98.8099 261.002C97.4899 259.722 96.9499 257.802 96.4699 256.002C86.9033 219.539 81.1392 182.183 79.2699 144.532C77.4899 108.472 95.2699 73.182 128.57 59.942C163.21 46.202 208.3 55.342 228.84 89.732C257.65 138.002 241.74 203.042 206.71 244.062Z" fill="url(#paint0_linear_3_4566)"/>
<path d="M283.48 267.332C216.632 318.803 123.391 318.392 57 266.332L105.66 243.522C107.149 242.818 108.601 242.037 110.01 241.182L111.13 240.482C111.53 240.232 111.92 239.972 112.31 239.702C118.449 235.467 123.48 229.818 126.98 223.232C130.98 215.682 132.3 207.342 132.36 198.842C132.36 193.122 132.05 187.402 131.99 181.672C131.95 178.505 131.917 175.335 131.89 172.162L133.89 173.162L139.09 175.852L169.38 181.002L200.5 186.302L201.44 218.302L201.91 234.172L213.38 238.842L222.38 242.482L283.48 267.332Z" fill="#F2A196"/>
<path d="M201.42 218.282C191.36 220.068 181.01 219.26 171.35 215.932C149.77 208.682 135.24 191.192 133.87 173.172L139.07 175.862L169.36 181.012L200.48 186.312L201.42 218.282Z" fill="#E88870"/>
<circle cx="102.89" cy="140.152" r="17" fill="#F2A196"/>
<circle cx="108.89" cy="138.152" r="17" fill="#E88870"/>
<path d="M225.84 113.402C238.3 156.542 214.05 206.652 195.58 208.702C150.95 213.702 119.24 190.912 106.79 147.772C94.34 104.632 110.89 61.9521 143.79 52.4621C176.69 42.9721 213.35 70.2221 225.84 113.402Z" fill="#F2A196"/>
<path d="M225.09 88.0821C220.37 78.2121 208.91 73.8321 198.44 70.6521C192.78 68.9421 186.97 67.2921 181.06 67.4721C175.589 67.7895 170.237 69.2006 165.32 71.6221C156.66 75.6221 147.85 81.2721 141.4 88.3321C138.27 91.7521 135.45 95.3321 132.22 98.7621C130.44 100.662 128.743 102.635 127.13 104.682C125.9 106.242 124.5 109.432 122.91 110.522C152.38 90.4021 189.84 81.4021 225.09 88.0821Z" fill="#FF2609"/>
<path d="M185.47 118.302C185.39 118.652 195.26 157.152 195.26 157.152H182.76" stroke="#00214E"/>
<path d="M196.93 108.092C203.995 104.491 212.167 103.722 219.78 105.942" stroke="#00214E"/>
<path d="M141.84 111.792C151.583 106.83 163.03 106.463 173.07 110.792" stroke="#00214E"/>
<path d="M283.48 267.332C216.632 318.803 123.391 318.392 57 266.332L105.66 243.522C107.977 242.433 110.201 241.155 112.31 239.702C112.95 239.262 113.59 238.802 114.2 238.322C119.496 234.27 123.855 229.123 126.98 223.232C129.342 218.706 130.912 213.808 131.62 208.752C132.326 209.436 133.067 210.084 133.84 210.692C139.972 215.226 146.626 219.007 153.66 221.952C157.075 223.377 160.567 224.609 164.12 225.642C174.824 228.763 186 229.945 197.12 229.132C198.66 229.012 200.21 228.862 201.75 228.752L201.9 233.832V234.162L214 239.082L283.48 267.332Z" fill="#00214E"/>
<path fill-rule="evenodd" clip-rule="evenodd" d="M195.47 37.1421C227.1 46.6321 244.1 73.9821 250.1 104.452C254.169 125.569 253.406 147.332 247.87 168.112C242.15 189.012 232.84 208.712 223.01 228.012C222.858 228.309 222.707 228.605 222.557 228.9C216.368 241.04 211.278 251.023 197.61 256.402C173.58 265.882 144.29 260.492 124.7 243.602C90.18 213.812 73.9 152.402 80.65 108.142C88.18 58.7821 148.1 22.9221 195.47 37.1421ZM158.78 199.552C169.02 205.092 186.01 210.182 197.48 205.552C198.164 205.236 198.814 204.851 199.42 204.402C201.073 203.271 202.57 201.926 203.87 200.402C212.42 190.902 217.7 178.942 220.87 166.402C223.06 157.469 224.399 148.348 224.87 139.162C225.78 123.252 221.24 108.292 213.36 94.5121C206.45 82.4321 191.74 70.3921 177.06 74.1221C168 76.4321 160.48 82.2821 154.06 88.8921C150.438 92.6169 147.278 96.6898 144.124 100.755C139.623 106.557 135.133 112.343 129.33 117.082C126.632 119.384 123.7 121.395 120.58 123.082C120.11 123.322 113.76 126.462 113.7 126.142C114.364 129.563 115.205 132.948 116.22 136.282C122.84 159.402 133.76 183.322 154.54 197.012C155.92 197.925 157.333 198.772 158.78 199.552Z" fill="url(#paint1_linear_3_4566)"/>
<path d="M155.47 138.322C158.265 138.497 161.012 137.532 163.084 135.648C165.157 133.764 166.378 131.121 166.47 128.322" stroke="#00214E"/>
<path d="M199.33 126.132C199.394 128.764 200.598 131.238 202.63 132.912C204.653 134.559 206.903 135.906 209.31 136.912" stroke="#00214E"/>
<path d="M148.41 168.402C149.655 166.313 151.194 164.413 152.98 162.762C156.653 159.387 161.262 157.205 166.2 156.502" stroke="#00214E"/>
<path d="M174.13 91.662H197.8" stroke="#00214E"/>
<path d="M168.36 99.4821H197.8" stroke="#00214E"/>
<path d="M159.48 167.152C159.756 166.715 160.202 166.413 160.711 166.318C161.219 166.223 161.745 166.344 162.16 166.652C164.24 168.112 168.04 171.212 173.44 172.292C180.8 173.752 187.19 170.812 188.71 172.712C189.57 173.772 188.52 175.082 186.51 176.712C182.257 179.896 176.898 181.227 171.65 180.402C164.57 179.082 159.25 170.872 159.25 167.972C159.257 167.684 159.336 167.402 159.48 167.152Z" fill="white"/>
<path d="M158.57 125.112C164.67 125.042 164.85 134.362 158.75 134.532H158.48C152.37 134.602 152.19 125.272 158.29 125.102H158.57V125.112Z" fill="#00214E"/>
<path d="M208.84 123.472C214.51 123.412 214.68 132.062 209.01 132.222H208.76C203.1 132.292 202.93 123.632 208.59 123.482H208.84V123.472Z" fill="#00214E"/>
<defs>
<linearGradient id="paint0_linear_3_4566" x1="79.1499" y1="270.054" x2="243.76" y2="270.054" gradientUnits="userSpaceOnUse">
<stop stop-color="#16243F"/>
<stop offset="1" stop-color="#6878B1"/>
</linearGradient>
<linearGradient id="paint1_linear_3_4566" x1="79.15" y1="261.025" x2="252.67" y2="261.025" gradientUnits="userSpaceOnUse">
<stop stop-color="#16243F"/>
<stop offset="1" stop-color="#6878B1"/>
</linearGradient>
</defs>
</svg>
