<svg width="340" height="340" viewBox="0 0 340 340" fill="none" xmlns="http://www.w3.org/2000/svg">
<path d="M237.41 147.913C235.855 149.539 234.151 151.015 232.32 152.323C221.92 159.853 208.04 162.323 196.18 166.383C191.18 168.093 136.96 183.503 136.96 186.853C136.96 186.123 131.65 180.853 124.96 174.453C101.864 152.367 94.1478 118.645 105.34 88.7125C116.25 60.0425 151.03 40.2825 180.16 35.7125C194.05 33.5525 210.51 32.3425 223.34 38.9725C229.89 42.3825 235.39 47.3525 240.34 52.8625C241.9 54.6025 243.413 56.3792 244.88 58.1925C245.51 58.9525 246.13 59.7125 246.74 60.4825C269.53 89.0925 261.46 122.643 237.41 147.913Z" fill="url(#paint0_linear_3_4612)"/>
<path d="M237.41 147.913C235.855 149.539 234.151 151.015 232.32 152.323C231.893 151.578 231.509 150.811 231.17 150.023C228.53 144.023 227.17 137.513 226.17 131.023C224.619 121.574 223.561 112.051 223 102.493C222.09 87.1525 215.54 79.4925 228.57 67.5825C233.259 63.2851 238.843 60.0815 244.92 58.2025C245.55 58.9625 246.17 59.7225 246.78 60.4925C269.53 89.0925 261.46 122.643 237.41 147.913Z" fill="url(#paint1_linear_3_4612)"/>
<path d="M283.48 268.273C216.632 319.744 123.391 319.332 57 267.273L105.66 244.463C107.977 243.373 110.201 242.096 112.31 240.643C112.95 240.203 113.59 239.743 114.2 239.263C119.496 235.21 123.855 230.063 126.98 224.173C129.342 219.646 130.912 214.749 131.62 209.693C132.108 206.412 132.356 203.1 132.36 199.783C132.36 194.063 132.05 188.343 131.99 182.613C131.95 179.446 131.917 176.276 131.89 173.103L133.89 174.103L139.09 176.793L141.5 177.203L169.34 181.973L200.46 187.273L201.4 219.273L201.71 229.733L201.86 234.813V235.143L213.96 240.063L283.48 268.273Z" fill="#E18477"/>
<path d="M283.48 268.273C216.632 319.744 123.391 319.332 57 267.273L105.66 244.463C107.977 243.373 110.201 242.096 112.31 240.643C112.95 240.203 113.59 239.743 114.2 239.263C137.75 256.023 169.89 266.593 197.69 254.083C204.31 251.083 210.39 246.243 213.99 240.023L283.48 268.273Z" fill="url(#paint2_linear_3_4612)"/>
<path d="M201.87 234.763C191.42 235.393 179.74 232.693 168.87 226.423C148.46 214.633 137.55 194.073 141.47 177.213L169.34 181.973L200.46 187.273L201.4 219.273L201.87 234.763Z" fill="#A76962"/>
<circle cx="122.05" cy="145.093" r="17" fill="#E18477"/>
<circle cx="127.44" cy="145.093" r="15.22" fill="#A76962"/>
<path d="M128.06 129.973C128.28 132.573 128.14 135.173 128.34 137.783C128.893 144.943 129.44 152.103 129.98 159.263L131.5 178.973C132.06 186.233 134.89 190.583 139.62 196.393C148.025 206.702 158.732 214.895 170.88 220.313C182.47 225.483 198.56 230.633 210.93 225.613C223.58 220.483 227.62 206.283 231.88 194.503C236.14 182.723 240.09 169.773 239.88 157.053C239.61 139.793 235.04 130.113 235.04 130.113C236.14 123.446 237.247 116.799 238.36 110.173C239.61 102.663 241.22 94.8226 239.36 87.2726C238.01 81.7626 234.36 77.9326 230.58 73.9826C225.89 69.1526 223.58 69.3226 216.94 71.2026C205.411 74.5653 195.341 81.6949 188.34 91.4526C181.34 101.113 177.24 113.103 168 120.633C161.65 125.813 153.76 127.953 145.73 128.633C142.82 128.981 139.883 129.045 136.96 128.823C134.005 128.729 131.048 128.846 128.11 129.173H127.94C128.01 129.403 128.04 129.673 128.06 129.973Z" fill="#E18477"/>
<path d="M156.17 122.343C165.427 120.428 174.949 120.157 184.3 121.543" stroke="#00214E"/>
<path d="M218.76 121.393C224.478 120.062 230.372 119.653 236.22 120.183" stroke="#00214E"/>
<path d="M165 182.222C168.701 176.138 173.968 171.158 180.25 167.802" stroke="#00214E"/>
<path d="M184.27 105.153H215.88" stroke="#00214E"/>
<path d="M180.25 111.682H211.85" stroke="#00214E"/>
<path d="M183.48 139.073C182.971 143.199 180.304 146.742 176.48 148.373C174.416 149.12 172.259 149.581 170.07 149.743" stroke="#00214E"/>
<path d="M216.34 136.792C217.29 139.321 218.532 141.731 220.04 143.972C221.541 146.045 223.77 147.474 226.28 147.972" stroke="#00214E"/>
<path d="M212.96 158.163C213.43 158.913 213.86 159.673 214.26 160.463C214.707 161.209 215.009 162.034 215.15 162.893C215.165 163.509 214.903 164.099 214.436 164.502C213.97 164.905 213.347 165.077 212.74 164.973C212.12 164.843 211.85 165.803 212.48 165.973C213.287 166.131 214.125 165.962 214.808 165.502C215.491 165.043 215.963 164.33 216.12 163.523C216.185 162.491 215.941 161.464 215.42 160.573C214.946 159.565 214.412 158.586 213.82 157.643C213.48 157.103 212.61 157.643 212.96 158.153V158.163Z" fill="#00214E"/>
<path d="M196.24 159.333C195.39 160.693 194.39 162.393 194.87 164.063C195.27 165.423 196.71 166.683 198.18 166.153C198.78 165.933 198.52 164.963 197.92 165.153C196.87 165.533 195.92 164.473 195.78 163.513C195.56 162.193 196.44 160.863 197.11 159.803C197.45 159.253 196.58 158.753 196.24 159.303V159.333Z" fill="#00214E"/>
<path d="M177.05 178.743C177.326 178.302 177.774 177.998 178.285 177.903C178.797 177.808 179.324 177.931 179.74 178.243C181.81 179.703 185.62 182.803 191.02 183.873C198.38 185.343 204.76 182.393 206.29 184.293C207.15 185.363 206.1 186.663 204.08 188.343C199.826 191.516 194.475 192.846 189.23 192.033C182.15 190.703 176.83 182.503 176.83 179.593C176.83 179.295 176.906 179.003 177.05 178.743Z" fill="white"/>
<ellipse cx="174.356" cy="137.647" rx="3.27" ry="7.94" transform="rotate(-85.77 174.356 137.647)" fill="#00214E"/>
<ellipse cx="225.859" cy="136.011" rx="7.94" ry="3.27" transform="rotate(-8.86 225.859 136.011)" fill="#00214E"/>
<defs>
<linearGradient id="paint0_linear_3_4612" x1="100.26" y1="186.869" x2="260.24" y2="186.869" gradientUnits="userSpaceOnUse">
<stop stop-color="#16243F"/>
<stop offset="1" stop-color="#6878B1"/>
</linearGradient>
<linearGradient id="paint1_linear_3_4612" x1="194.489" y1="120.108" x2="261.555" y2="139.116" gradientUnits="userSpaceOnUse">
<stop stop-color="#16243F"/>
<stop offset="1" stop-color="#6878B1"/>
</linearGradient>
<linearGradient id="paint2_linear_3_4612" x1="57" y1="306.591" x2="283.48" y2="306.591" gradientUnits="userSpaceOnUse">
<stop stop-color="#16243F"/>
<stop offset="1" stop-color="#6878B1"/>
</linearGradient>
</defs>
</svg>
